<?xml version="1.0" encoding="utf-8"?>
<!-- Generator: Adobe Illustrator 23.0.3, SVG Export Plug-In . SVG Version: 6.00 Build 0)  -->
<svg version="1.1" id="Capa_1" xmlns="http://www.w3.org/2000/svg" xmlns:xlink="http://www.w3.org/1999/xlink" x="0px" y="0px"
	 viewBox="0 0 1200 1200" enable-background="new 0 0 1200 1200" xml:space="preserve">
<g>
	<path fill="#7AAF71" d="M252.053,537.791c-0.537,1.122-0.977,2.271-1.333,3.44c-9.655-16.912-14.358-35.169-10.224-54.888
		c5.344-25.49,25.629-48.004,22.782-73.893c-1.825-16.6-12.913-30.465-19.944-45.613c-21.573-46.47,1.317-108.411,47.924-129.686
		c8.86-4.045,18.441-6.826,26.273-12.615c23.075-17.056,21.878-50.934,24.211-79.534c5.805-71.154,123.191-103.562,187.964-74.486
		c-15.343,8.515-30.395,19.66-45.079,33.405c-5.136-6.733-12.706-11.876-21.502-13.656c-14.603-2.952-31.29,2.82-43.55,15.06
		c-10.568,10.554-16.789,23.826-21.938,36.598c-2.287,5.672-4.18,11.299-5.8,16.901c-14.335,4.764-26.616,16.3-33.786,29.894
		c-9.569,18.141-11.461,39.344-11.063,59.85c0.347,17.907,0.939,42.538,8.952,58.843c0.097,0.198,0.227,0.352,0.329,0.543
		c-8.649-1.638-17.245-0.932-24.739,2.372c-11.972,5.28-21.369,17.189-25.133,31.852c-11.38,44.278,4.042,115.764,33,152.975
		c6.766,8.696,14.653,16.2,22.283,23.461c4.248,4.04,8.249,7.934,12.097,11.955c-0.232-0.038-0.449-0.108-0.682-0.143
		c-30.907-4.608-61.266-20.024-93.298-11.291C268.69,522.161,257.015,527.413,252.053,537.791z M527.566,858.746
		c-10.719-3.203-20.676-6.772-29.888-10.742c15.828,58.83,8.836,122.16,9.156,184.15c0.122,23.65,10.077,42.38,24.163,53.41
		C534.87,1010.031,533.761,933.978,527.566,858.746z M426.657,708.795c20.198,10.669,41.079,21.708,63.041,27.838
		c4.358,1.219,8.79,2.238,13.319,3.245c-0.297-5.307-0.421-11.203-0.541-17.313c-0.169-8.405-0.34-17.06-1.033-23.171
		c-11.293-3.275-22.48-7.195-33.321-11.761c-2.537-1.069-5.177-2.238-7.856-3.512c-1.007,1.083-2.222,2.216-3.807,3.443
		c-13.37,10.341-28.885,15.599-45.42,15.552c1.928,2.302,3.871,4.591,5.767,6.918c0.044-0.039,0.077-0.082,0.122-0.121
		C419.63,707.563,423.492,707.116,426.657,708.795z M458.92,193.727c2.949,5.173,5.988,11.002,8.457,17.03
		c8.261-17.926,22.756-33.826,42.566-31.83c9.962,1.009,18.065,6.543,24.68,11.82c36.317,29.005,59.889,74.001,63.054,120.371
		c0.325,4.773-3.28,8.909-8.056,9.234c-0.2,0.014-0.399,0.02-0.599,0.02c-4.516,0-8.324-3.5-8.635-8.076
		c-2.84-41.604-23.992-81.983-56.579-108.006c-4.637-3.703-10.124-7.565-15.615-8.12c-12.785-1.263-22.997,14.67-27.861,28.735
		c-8.026,23.224-11.587,48.465-10.297,72.999c0.254,4.776-3.419,8.855-8.198,9.105c-2.483,0.198-4.772-0.759-6.443-2.383
		c-0.606,3.072-1.246,6.136-1.996,9.174c-3.704,15-10.338,30.082-22.179,39.768c15.695,0.435,31.164,10.397,39.429,23.116
		c11.018,16.948,12.849,37.891,14.318,54.721c0.416,4.769-3.111,8.97-7.877,9.386c-4.756,0.454-8.97-3.107-9.386-7.877
		c-1.371-15.686-2.925-33.463-11.583-46.786c-7.278-11.187-22.77-19.223-34.225-13.35l-0.829,0.433
		c-2.708,1.442-6.814,3.605-11.962,2.691c-6.211-1.12-9.596-5.961-11.221-8.29c-1.655-2.363-3.283-4.763-4.908-7.166
		c-6.756-9.969-13.133-19.382-21.579-26.46c-8.039-6.736-21.471-12.829-32.878-7.802c-7.149,3.151-12.883,10.744-15.337,20.306
		c-9.891,38.49,4.637,105.566,29.892,138.02c5.974,7.677,13.052,14.413,20.55,21.545c5.165,4.915,10.507,9.999,15.493,15.449
		c8.912,9.741,17.712,19.868,24.716,30.652c1.488-11.408,3.339-22.568,5.092-33.096c0.782-4.685,1.537-9.221,2.22-13.563
		c0.616-3.92,1.462-9.285,4.861-13.959c5.487-7.548,15.926-10.666,26-7.772c7.606,2.19,13.492,7.051,18.715,11.976
		c8.55,8.066,15.283,17.03,21.789,25.698c3.432,4.573,6.983,9.302,10.686,13.722c8.858,10.575,19.92,20.147,30.617,29.405
		c4.39,3.798,8.76,7.579,12.991,11.427c19.341,17.578,38.869,37.305,50.699,62.425c13.448,28.555,13.54,59.429,0.244,82.592
		c-1.601,2.789-4.519,4.35-7.521,4.35c-1.466,0-2.948-0.369-4.309-1.151c-4.15-2.383-5.582-7.677-3.199-11.83
		c10.321-17.981,9.979-43.49-0.894-66.575c-10.537-22.378-28.664-40.612-46.678-56.989c-4.126-3.751-8.391-7.44-12.673-11.147
		c-11.214-9.705-22.811-19.737-32.56-31.378c-4.001-4.776-7.694-9.694-11.265-14.447c-6.347-8.459-12.345-16.447-19.815-23.491
		c-3.639-3.432-7.562-6.766-11.624-7.934c-2.85-0.819-6.066-0.23-7.183,1.307c-0.948,1.303-1.398,4.167-1.76,6.465
		c-0.694,4.394-1.456,8.98-2.244,13.716c-6.75,40.538-15.151,90.99,3.916,124.142c7.332,12.744,22.513,20.384,34.919,25.614
		c12.037,5.071,24.517,9.349,37.095,12.714c4.34,1.161,6.981,5.425,6.266,9.771c0.001,0.008,0.005,0.014,0.006,0.022
		c1.164,7.274,1.367,17.368,1.577,28.051c0.155,7.756,0.32,15.689,0.889,21.675c4.914,1.213,9.842,2.578,14.709,4.277
		c13.543,4.722,31.635,14.081,40.941,31.842c2.221,4.238,0.582,9.478-3.656,11.698c-4.241,2.21-9.478,0.579-11.698-3.656
		c-6.675-12.748-20.702-19.826-31.294-23.522c-8.188-2.857-16.671-4.708-25.651-6.672c-6.221-1.357-12.656-2.762-19.006-4.536
		c-17.937-5.01-34.716-12.784-50.904-21.07c15.508,20.753,29.806,42.382,42.691,64.771c5.319,9.242,9.748,18.658,13.451,28.217
		c12.575,6.687,26.978,12.41,43.41,17.248c1.841,0.543,3.344,1.657,4.423,3.076c3.409,0.922,6.11,3.862,6.426,7.603
		c6.786,80.009,7.931,160.978,3.434,241.299c21.978,6.651,47.653-2.477,63.308-34.28c9.04-18.38,8.517-39.774,8.441-60.242
		c-0.287-77.023,9.541-156.091,35.63-228.11c-27.429,1.697-43.97-29.379-41.863-54.131c1.99-23.376,15.262-44.543,31.821-61.161
		c22.97-23.052,49.129-35.719,81.8-37.424c7.58-0.395,15.167-0.379,22.754-0.329c25.36-27.61,51.607-54.512,68.896-87.558
		c4.249-8.122,7.749-16.842,10.417-25.855c-20.056,4.45-40.222,4.43-51.822-5.797c-4.266,0.98-8.671-1.345-10.127-5.577
		c-7.633-22.144-3.402-47.358,11.042-65.796c9.385-11.991,22.583-20.427,37.083-24.321c-3.598-4.4-7.7-8.459-12.381-12.066
		c-6.865-5.288-14.784-9.564-20.642-15.8c-1.18-1.256-2.276-2.591-3.262-4.031c-7.265-10.594-7.054-24.448-6.327-37.274
		c1.557-27.479,4.159-55.451,0.517-82.531c-1.035,1.248-2.085,2.572-3.169,4.062c-17.967,24.686-30.177,53.648-35.301,83.753
		c-0.806,4.719-5.26,7.877-9.999,7.088c-0.808-0.138-1.548-0.416-2.253-0.752c-4.748,11.754-10.193,23.061-18.254,32.81
		c-3.228,3.905-6.978,7.541-11.303,10.104c10.906,6.617,20.004,18.895,26.055,35.735c15.896,44.234,11.749,95.167-11.096,136.243
		c-1.584,2.85-4.536,4.455-7.579,4.455c-1.425,0-2.87-0.352-4.204-1.093c-4.184-2.325-5.687-7.599-3.361-11.783
		c20.448-36.77,24.158-82.365,9.931-121.959c-2.427-6.753-11.62-28.856-28.051-29.825c-0.558-0.034-1.12-0.047-1.682-0.061
		c-2.809-0.071-6.658-0.166-10.466-2.105c-6.428-3.263-8.794-9.441-10.524-13.949c-0.311-0.809-0.616-1.615-0.948-2.383
		c-5.748-13.354-24.818-17.002-38.05-11.336c-16.535,7.074-26.619,24.503-32.164,37.877c-18.316,44.163-12.653,98.159,14.43,137.56
		c2.711,3.943,1.709,9.339-2.234,12.05c-3.943,2.701-9.336,1.713-12.05-2.234c-30.319-44.116-36.662-104.57-16.156-154.017
		c9.721-23.441,24.023-39.753,41.357-47.172c11.323-4.849,25.398-5.171,37.483-0.751c-4.76-20.568-4.518-44.452,2.93-64.222
		c12.603-33.451,41.799-60.175,76.231-69.779c10.968-3.059,24.143-3.947,32.371,3.926c4.11,3.932,6.586,8.372,7.838,13.117
		c1.871-1.979,3.932-3.891,6.176-5.62c-0.024-0.087-0.042-0.175-0.066-0.262c-3.884-14.093-10.744-27.842-19.932-39.362
		c-0.658,0.419-1.359,0.785-2.144,1.021c-4.573,1.378-9.41-1.225-10.788-5.812c-1.168-3.892-2.382-7.834-3.882-11.535
		c-7.832-5.781-16.568-10.097-26.087-12.246c-0.306,0.224-0.64,0.459-0.915,0.669c-7.985,6.1-14.562,14.078-19.01,23.075
		c-1.632,3.297-5.162,5.233-8.818,4.759c-3.649-0.443-6.621-3.145-7.413-6.736c-0.535-2.43-2.356-4.245-5.406-5.389
		c-5.081-1.909-11.753-1.09-15.862,1.953c-8.814,6.516-12.7,18.448-16.525,32.221c-1.066,3.835-4.549,6.35-8.347,6.35
		c-0.765,0-1.547-0.105-2.322-0.318c-4.61-1.283-7.311-6.059-6.032-10.669c3.629-13.052,8.594-30.928,22.926-41.523
		c1.031-0.762,2.13-1.445,3.266-2.073c-5.199-0.144-10.348-0.765-15.417-2.238c-33.935-9.864-47.309-49.811-71.381-75.685
		c-2.387-2.567-4.997-4.946-7.797-7.149c-11.287,5.371-22.463,12.286-33.486,20.802c10.457,3.013,19.972,10.705,26.71,21.937
		c5.382,8.973,8.368,18.675,11.258,28.061c0.535,1.736,1.07,3.476,1.621,5.203c1.449,4.563-1.073,9.434-5.633,10.886
		c-4.563,1.449-9.434-1.073-10.886-5.633c-0.565-1.78-1.114-3.568-1.665-5.358c-2.705-8.781-5.26-17.077-9.559-24.243
		c-5.142-8.574-12.558-14.142-19.836-14.897c-3.778-0.342-7.924,0.978-10.94,3.558c-1.259,1.076-2.738,2.735-3.327,4.901
		c-0.085,0.931-0.217,1.858-0.399,2.782c-0.88,4.461-5.088,7.494-9.566,6.929c-4.512-0.559-7.826-4.509-7.592-9.048
		c0.054-1.032,0.173-2.055,0.352-3.067c0.183-7.176-6.411-14.88-14.623-16.542c-8.963-1.808-19.653,2.143-27.865,10.341
		c-8.368,8.354-13.651,19.744-18.113,30.81c-1.126,2.794-2.124,5.572-3.066,8.346C431.28,158.955,448.494,175.436,458.92,193.727z
		 M678.076,167.851c1.35-1.856,2.795-3.64,4.292-5.38c-3.998,0.305-8.002,0.768-12.004,1.273c0.152,0.054,0.314,0.083,0.464,0.14
		C673.52,164.892,675.953,166.233,678.076,167.851z"/>
	<path fill="#AD5985" d="M456.459,687.563c-13.37,10.341-28.885,15.599-45.42,15.552c-2.581-0.007-5.181-0.119-7.808-0.388
		c-42.176-4.3-79.953-34.964-107.398-65.237c-18.161-20.032-36.117-43.941-43.545-70.365c-2.37-8.431-4.077-17.67-1.569-25.896
		c0.356-1.169,0.797-2.318,1.333-3.44c4.962-10.378,16.637-15.63,27.741-18.657c32.031-8.732,62.391,6.684,93.298,11.291
		c0.234,0.035,0.45,0.105,0.682,0.143c0.843,0.881,1.729,1.734,2.553,2.634c17.52,19.148,34.621,39.709,34.601,62.032
		c0,0.034,0.01,0.065,0.01,0.099c0.324,21.32,3.942,41.91,13.977,59.353c8.225,14.302,22.283,23.218,35.353,29.434
		C459.26,685.204,458.045,686.337,456.459,687.563z M924.089,327.765c19.109,8.492,32.454,34.129,34.16,53.459
		c5.276-16.175,7.696-32.818,6.115-49.237c-1.358-14.113-7.552-30.326-21.369-33.508c-13.296-3.062-25.531,7.686-34.339,18.106
		c-2.805,3.319-5.566,6.707-8.277,10.151C908.164,324.035,916.287,324.294,924.089,327.765z M829.167,505.382
		c21.342-4.735,42.545-14.517,53.123-22.447c18.92-14.185,37.683-33.353,52.537-55.142c4.978-15.342,7.203-30.612,6.227-44.462
		c-0.999-14.163-11.475-34.161-24.006-39.732c-5.853-2.6-11.336-1.655-17.27,2.979c-6.888,5.392-11.797,13.723-16.546,21.775
		l-22.828,38.727c-1.99,3.378-5.324,9.031-11.884,11.255c-3.767,1.286-7.339,0.944-9.945,0.697l-0.65-0.061
		c-17.25-1.588-35.335,6.272-46.021,19.924c-10.693,13.655-13.953,33.071-8.303,49.467c1.56,4.526-0.843,9.457-5.368,11.015
		c-0.294,0.101-0.591,0.14-0.887,0.208C788.945,509.812,809.111,509.832,829.167,505.382z M717.69,337.093
		c5.575-32.722,18.844-64.205,38.375-91.041c1.955-2.688,4.273-5.655,6.965-8.504c-1.252-4.745-3.728-9.185-7.838-13.117
		c-8.227-7.872-21.402-6.985-32.371-3.926c-34.431,9.603-63.628,36.328-76.231,69.779c-7.449,19.771-7.691,43.655-2.93,64.222
		c10.079,3.687,18.779,10.662,23.303,21.168c0.42,0.978,0.816,2,1.208,3.033c0.606,1.574,1.618,4.214,2.268,4.749
		c0.362,0.118,1.933,0.159,2.972,0.186c0.765,0.017,1.527,0.037,2.278,0.085c6.106,0.36,11.908,2.268,17.279,5.527
		c4.325-2.563,8.075-6.199,11.303-10.104c8.061-9.749,13.506-21.056,18.254-32.81C719.112,344.715,717.025,341.005,717.69,337.093z
		 M749.854,618.795c-7.587-0.05-15.173-0.066-22.754,0.329c-32.672,1.705-58.83,14.372-81.8,37.424
		c-16.559,16.618-29.832,37.786-31.821,61.161c-2.107,24.752,14.434,55.828,41.863,54.131c2.534-0.157,5.154-0.57,7.869-1.318
		c11.136-3.068,19.737-11.69,27.786-19.975c16.498-16.983,32.997-33.966,49.495-50.949c19.401-19.971,46.174-43.586,56.083-70.373
		c0.025-0.067,0.037-0.118,0.061-0.184c-9.138,3.081-18.415,5.848-27.611,8.588c-20.8,6.198-42.305,12.605-60.58,22.354
		c-12.385,6.607-25.197,13.966-33.775,24.798c-11.492,14.504-15.388,25.268-11.915,32.908c1.98,4.356,0.051,9.491-4.306,11.475
		c-4.353,1.984-9.495,0.051-11.475-4.306c-9.539-20.987,8.259-43.456,14.108-50.838c10.649-13.442,25.82-22.188,39.204-29.33
		c19.812-10.568,42.169-17.229,63.786-23.671c2.637-0.785,5.257-1.57,7.867-2.355C764.581,618.864,757.218,618.844,749.854,618.795z
		 M358.049,188.717c-9.569,18.141-11.461,39.344-11.063,59.85c0.347,17.907,0.939,42.538,8.952,58.843
		c0.097,0.198,0.227,0.352,0.329,0.543c9.098,1.724,18.257,6.045,26.258,12.75c10.304,8.635,17.669,19.507,24.795,30.021
		c1.581,2.332,3.158,4.661,4.766,6.959c0.125,0.183,0.244,0.345,0.349,0.491c0.173-0.091,0.339-0.179,0.487-0.261l1.066-0.562
		c5.537-2.834,11.399-3.947,17.231-3.785c11.841-9.686,18.476-24.768,22.179-39.768c0.75-3.038,1.39-6.102,1.996-9.174
		c-1.53-1.486-2.544-3.53-2.662-5.815c-1.408-26.741,2.474-54.254,11.221-79.566c0.982-2.84,2.134-5.686,3.425-8.488
		c-2.469-6.027-5.507-11.856-8.457-17.03c-10.427-18.29-27.64-34.771-48.28-36.98c-9.728,28.638-10.113,56.397-10.518,88.094
		c-0.078,6.147-0.159,12.382-0.311,18.732c-0.112,4.712-3.971,8.456-8.659,8.456c-0.071,0-0.142,0-0.213-0.003
		c-4.783-0.115-8.567-4.086-8.452-8.872c0.149-6.279,0.23-12.45,0.308-18.536c0.371-29.263,0.759-57.17,9.039-85.794
		C377.5,163.587,365.219,175.123,358.049,188.717z"/>
	<path d="M675.689,383.728c6.106,0.36,11.908,2.268,17.279,5.527c10.906,6.617,20.004,18.895,26.055,35.735
		c15.896,44.234,11.749,95.167-11.096,136.243c-1.584,2.85-4.536,4.455-7.579,4.455c-1.425,0-2.87-0.352-4.204-1.093
		c-4.184-2.325-5.687-7.599-3.361-11.783c20.448-36.77,24.158-82.365,9.931-121.959c-2.427-6.753-11.62-28.856-28.051-29.825
		c-0.558-0.034-1.12-0.047-1.682-0.061c-2.809-0.071-6.658-0.166-10.466-2.105c-6.428-3.263-8.794-9.441-10.524-13.949
		c-0.311-0.809-0.616-1.615-0.948-2.383c-5.748-13.354-24.818-17.002-38.05-11.336c-16.535,7.074-26.619,24.503-32.164,37.877
		c-18.316,44.163-12.653,98.159,14.43,137.56c2.711,3.943,1.709,9.339-2.234,12.05c-3.943,2.701-9.336,1.713-12.05-2.234
		c-30.319-44.116-36.662-104.57-16.156-154.017c9.721-23.441,24.023-39.753,41.357-47.172c11.323-4.849,25.398-5.171,37.483-0.751
		c10.079,3.687,18.779,10.662,23.303,21.168c0.42,0.978,0.816,2,1.208,3.033c0.606,1.574,1.618,4.214,2.268,4.749
		c0.362,0.118,1.933,0.159,2.972,0.186C674.176,383.66,674.938,383.68,675.689,383.728z M958.249,381.224
		c-1.706-19.33-15.052-44.967-34.16-53.459c-7.802-3.47-15.925-3.73-23.709-1.028c-3.871,1.343-7.665,3.364-11.281,6.194
		c-3.37,2.639-6.287,5.639-8.905,8.804c-0.889-4.188-1.837-8.359-2.855-12.5c9.579-51.884,3.274-108.085-17.029-150.748
		c-4.983-10.459-12.196-23.664-23.874-32.976c-12.99-10.359-29.415-13.637-42.953-8.615c-9.326-16.914-21.177-25.812-47.33-26.518
		c-5.191-9.003-11.067-17.608-17.731-25.612c-6.983-8.388-18.015-19.893-33.098-22.98c-8.135-1.665-15.952-0.669-23.086,2.2
		c-0.002-0.001-0.004-0.003-0.006-0.003c-29.073-11.966-57.703-16.285-85.104-12.825c-19.488,2.459-38.673,8.954-57.425,19.361
		c-15.343,8.515-30.395,19.66-45.079,33.405c-5.136-6.733-12.706-11.876-21.502-13.656c-14.603-2.952-31.29,2.82-43.55,15.06
		c-10.568,10.554-16.789,23.826-21.938,36.598c-2.287,5.672-4.18,11.299-5.8,16.901c-8.281,28.624-8.669,56.531-9.039,85.794
		c-0.078,6.086-0.159,12.257-0.308,18.536c-0.115,4.786,3.669,8.757,8.452,8.872c0.071,0.003,0.142,0.003,0.213,0.003
		c4.688,0,8.547-3.744,8.659-8.456c0.152-6.35,0.234-12.585,0.311-18.732c0.404-31.697,0.79-59.456,10.518-88.094
		c0.942-2.773,1.94-5.551,3.066-8.346c4.461-11.065,9.745-22.456,18.113-30.81c8.212-8.198,18.901-12.148,27.865-10.341
		c8.212,1.662,14.806,9.366,14.623,16.542c-0.179,1.012-0.298,2.034-0.352,3.067c-0.234,4.539,3.08,8.489,7.592,9.048
		c4.478,0.565,8.686-2.468,9.566-6.929c0.183-0.924,0.315-1.852,0.399-2.782c0.589-2.166,2.068-3.825,3.327-4.901
		c3.016-2.579,7.163-3.899,10.94-3.558c7.278,0.755,14.694,6.323,19.836,14.897c4.299,7.166,6.854,15.462,9.559,24.243
		c0.552,1.791,1.1,3.578,1.665,5.358c1.452,4.559,6.323,7.081,10.886,5.633c4.56-1.452,7.081-6.323,5.633-10.886
		c-0.552-1.726-1.087-3.466-1.621-5.203c-2.891-9.386-5.876-19.088-11.258-28.061c-6.738-11.232-16.252-18.923-26.71-21.937
		c11.023-8.517,22.199-15.432,33.486-20.802c13.865-6.597,27.9-10.844,42.044-12.628c21.003-2.645,42.992-0.073,65.477,7.596
		c-3.93,4.012-7.363,8.6-10.13,13.543c-8.557-7.091-20.482-10.236-31.321-7.068c-16.877,4.932-27.726,24.165-23.214,41.164
		c1.225,4.627,5.988,7.386,10.598,6.15c4.624-1.225,7.379-5.971,6.15-10.598c-2.122-8.002,3.382-17.761,11.326-20.083
		c7.955-2.322,17.839,2.941,20.354,10.825c1.181,3.693,4.624,6.154,8.533,6.029c3.872-0.125,7.19-2.803,8.131-6.563
		c4.279-17.138,20.425-33.917,36.649-30.583c9.745,1.994,17.94,10.71,23.254,17.09c9.336,11.214,17.141,23.62,23.204,36.879
		c1.456,3.182,4.6,5.064,7.887,5.064c1.205,0,2.43-0.254,3.598-0.789c3.42-1.565,5.301-5.079,4.995-8.626
		c13.804,2.015,19.389,8.24,25.13,19.911c-6.357,10.86-5.528,25.234-5.179,31.182c0.281,4.78,4.306,8.405,9.16,8.144
		c4.78-0.284,8.425-4.383,8.144-9.16c-0.849-14.397,1.638-20.403,4.054-23.078c0.146-0.146,0.286-0.294,0.421-0.45
		c1.123-1.078,2.187-1.491,2.84-1.74c7.765-2.965,18.079-0.667,26.267,5.866c8.909,7.108,14.853,18.099,19.033,26.88
		c19.02,39.966,24.751,93.031,15.327,141.943c-0.009,0.049-0.004,0.096-0.013,0.145c-0.055,0.314-0.066,0.636-0.086,0.958
		c-0.016,0.26-0.05,0.521-0.043,0.779c0.007,0.245,0.054,0.491,0.082,0.737c0.038,0.333,0.069,0.666,0.145,0.989
		c0.011,0.047,0.009,0.092,0.02,0.139c2.558,10.199,4.697,20.609,6.407,30.987l-21.024,35.666c-0.474,0.802-1.916,3.246-2.461,3.625
		c-0.457,0.098-1.862-0.034-2.796-0.125l-0.738-0.071c-8.17-0.714-16.34,0.088-24.14,2.183c-14.5,3.894-27.698,12.33-37.083,24.321
		c-14.443,18.438-18.675,43.652-11.042,65.796c1.456,4.232,5.861,6.557,10.127,5.577c0.296-0.068,0.594-0.107,0.887-0.208
		c4.526-1.557,6.929-6.489,5.368-11.015c-5.649-16.397-2.39-35.813,8.303-49.467c10.686-13.651,28.772-21.511,46.021-19.924
		l0.65,0.061c2.606,0.247,6.177,0.589,9.945-0.697c6.56-2.224,9.894-7.877,11.884-11.255l22.828-38.727
		c4.749-8.053,9.657-16.383,16.546-21.775c5.934-4.634,11.417-5.578,17.27-2.979c12.531,5.572,23.007,25.57,24.006,39.732
		c0.976,13.85-1.249,29.12-6.227,44.462c-5.018,15.465-12.834,31.004-23.005,45.239c-13.029,18.218-25.099,31.585-37.989,42.068
		c-4.813,3.913-9.843,7.504-15.168,11.309c-10.209,7.298-20.766,14.84-29.54,24.72c-15.185,17.097-23.268,30.722-22.506,53.725
		c0.023,0.689,0.147,1.347,0.321,1.984c-11.076,4.46-22.875,8.178-34.999,11.827c-2.61,0.785-5.23,1.57-7.867,2.355
		c-21.616,6.441-43.974,13.103-63.786,23.671c-13.384,7.142-28.555,15.889-39.204,29.33c-5.849,7.383-23.647,29.852-14.108,50.838
		c1.98,4.356,7.122,6.289,11.475,4.306c4.356-1.984,6.286-7.119,4.306-11.475c-3.473-7.64,0.423-18.404,11.915-32.908
		c8.577-10.832,21.389-18.191,33.775-24.798c18.275-9.749,39.78-16.156,60.58-22.354c9.196-2.74,18.473-5.507,27.611-8.588
		c19.715-6.647,38.777-14.764,54.944-27.282c1.11,33.074-9.353,67.56-30.701,100.715c-21.291,33.064-63.264,44.742-103.853,56.037
		l-4.895,1.361c-4.607,1.29-7.301,6.069-6.015,10.679c1.07,3.828,4.553,6.337,8.344,6.337c0.772,0,1.554-0.105,2.336-0.322
		l0.337-0.094c-4.657,17.064-8.853,34.306-12.468,51.436c-6.151,2.254-12.233,4.839-18.14,7.992
		c-18.983,10.131-33.46,28.606-41.865,53.421c-1.533,4.532,0.897,9.451,5.429,10.987c4.536,1.537,9.451-0.897,10.987-5.429
		c4.857-14.339,14.63-33.558,33.609-43.693c13.242-7.068,27.675-11.048,42.955-15.266c12.094-3.338,24.605-6.79,36.527-11.925
		c20.394-8.784,41.344-17.805,60.512-31.493c-4.255,55.211-42.667,107.671-94.91,126.542c-4.637,1.676-9.129,2.928-13.472,4.14
		c-14.103,3.937-28.68,8.021-37.889,25.818c-0.025,0.043-0.048,0.086-0.071,0.13c-0.048,0.094-0.102,0.177-0.15,0.272
		c-0.092,0.182-0.138,0.374-0.216,0.559c-0.121,0.286-0.245,0.566-0.335,0.867c-0.096,0.317-0.15,0.635-0.208,0.956
		c-0.034,0.187-0.098,0.361-0.12,0.552c-8.391,73.514-3.75,110.166,5.836,180.132c-23.634-0.487-48.892-1.127-73.419-1.75
		c-24.737-0.63-50.219-1.276-74.038-1.764c0.876-11.479,1.635-22.977,2.28-34.487c4.496-80.322,3.352-161.291-3.434-241.299
		c-0.316-3.741-3.017-6.681-6.426-7.603c-1.079-1.419-2.582-2.533-4.423-3.076c-16.432-4.838-30.835-10.561-43.41-17.248
		c-12.826-6.82-23.75-14.643-32.927-23.581c-21.257-20.699-32.397-47.819-30.072-72.959c2.275,1.19,4.56,2.376,6.857,3.552
		c16.188,8.286,32.967,16.061,50.904,21.07c6.35,1.774,12.785,3.178,19.006,4.536c8.98,1.963,17.463,3.815,25.651,6.672
		c10.591,3.696,24.619,10.774,31.294,23.522c2.221,4.235,7.457,5.866,11.698,3.656c4.238-2.221,5.876-7.46,3.656-11.698
		c-9.305-17.761-27.398-27.12-40.941-31.842c-4.867-1.699-9.795-3.064-14.709-4.277c-0.568-5.987-0.733-13.92-0.889-21.675
		c-0.21-10.683-0.413-20.777-1.577-28.051c-0.001-0.008-0.005-0.014-0.006-0.022c0.714-4.345-1.926-8.61-6.266-9.771
		c-12.578-3.365-25.059-7.643-37.095-12.714c-12.406-5.23-27.587-12.87-34.919-25.614c-19.067-33.152-10.666-83.604-3.916-124.142
		c0.789-4.735,1.55-9.322,2.244-13.716c0.362-2.298,0.812-5.162,1.76-6.465c1.117-1.537,4.333-2.126,7.183-1.307
		c4.062,1.168,7.985,4.502,11.624,7.934c7.471,7.044,13.469,15.032,19.815,23.491c3.571,4.752,7.264,9.671,11.265,14.447
		c9.749,11.641,21.345,21.674,32.56,31.378c4.282,3.707,8.547,7.396,12.673,11.147c18.015,16.376,36.141,34.611,46.678,56.989
		c10.872,23.085,11.214,48.594,0.894,66.575c-2.383,4.153-0.951,9.447,3.199,11.83c1.361,0.782,2.843,1.151,4.309,1.151
		c3.002,0,5.92-1.56,7.521-4.35c13.296-23.163,13.205-54.037-0.244-82.592c-11.83-25.12-31.358-44.847-50.699-62.425
		c-4.231-3.849-8.601-7.63-12.991-11.427c-10.696-9.258-21.758-18.83-30.617-29.405c-3.703-4.421-7.254-9.149-10.686-13.722
		c-6.506-8.669-13.238-17.632-21.789-25.698c-5.223-4.925-11.109-9.786-18.715-11.976c-10.074-2.894-20.513,0.223-26,7.772
		c-3.398,4.675-4.245,10.04-4.861,13.959c-0.684,4.343-1.439,8.879-2.22,13.563c-1.753,10.528-3.604,21.688-5.092,33.096
		c-7.003-10.784-15.804-20.911-24.716-30.652c-4.986-5.45-10.327-10.534-15.493-15.449c-7.498-7.132-14.576-13.868-20.55-21.545
		c-25.255-32.455-39.783-99.53-29.892-138.02c2.454-9.562,8.188-17.155,15.337-20.306c11.407-5.027,24.839,1.066,32.878,7.802
		c8.445,7.078,14.823,16.491,21.579,26.46c1.625,2.403,3.253,4.803,4.908,7.166c1.625,2.329,5.01,7.169,11.221,8.29
		c5.148,0.914,9.254-1.249,11.962-2.691l0.829-0.433c11.455-5.873,26.947,2.163,34.225,13.35
		c8.659,13.323,10.212,31.101,11.583,46.786c0.416,4.769,4.631,8.33,9.386,7.877c4.766-0.416,8.293-4.617,7.877-9.386
		c-1.469-16.83-3.3-37.772-14.318-54.721c-8.265-12.72-23.734-22.681-39.429-23.116c-5.832-0.162-11.694,0.952-17.231,3.785
		l-1.066,0.562c-0.149,0.081-0.315,0.169-0.487,0.261c-0.105-0.146-0.223-0.308-0.349-0.491c-1.608-2.298-3.185-4.627-4.766-6.959
		c-7.125-10.514-14.491-21.386-24.795-30.021c-8.002-6.705-17.16-11.026-26.258-12.75c-8.649-1.638-17.245-0.932-24.739,2.372
		c-11.972,5.28-21.369,17.189-25.133,31.852c-11.38,44.278,4.042,115.764,33,152.975c6.766,8.696,14.653,16.2,22.283,23.461
		c4.248,4.04,8.249,7.934,12.097,11.955c0.843,0.881,1.729,1.734,2.553,2.634c17.52,19.148,34.621,39.709,34.601,62.032
		c0,0.034,0.01,0.065,0.01,0.099c0.324,21.32,3.942,41.91,13.977,59.353c8.225,14.302,22.283,23.218,35.353,29.434
		c2.679,1.274,5.319,2.443,7.856,3.512c10.841,4.567,22.027,8.486,33.321,11.761c0.693,6.112,0.864,14.766,1.033,23.171
		c0.12,6.11,0.244,12.005,0.541,17.313c-4.528-1.007-8.961-2.026-13.319-3.245c-21.961-6.13-42.843-17.168-63.041-27.838
		c-3.165-1.679-7.027-1.232-9.728,1.117c-0.045,0.039-0.078,0.082-0.122,0.121c-4.697,4.162-5.956,9.928-6.516,14.505
		c-3.798,31.053,9.271,64.527,34.963,89.541c13.944,13.582,31.249,24.797,52.424,33.924c9.212,3.97,19.169,7.539,29.888,10.742
		c6.195,75.232,7.304,151.285,3.431,226.819c-0.876,17.086-1.919,34.154-3.31,51.17c-0.196,2.386,0.603,4.746,2.207,6.519
		c1.604,1.774,3.872,2.806,6.266,2.853c26.325,0.498,55.198,1.229,83.124,1.94c28.095,0.714,57.148,1.452,83.658,1.953
		c0.054,0,0.108,0,0.162,0c2.471,0,4.83-1.056,6.475-2.908c1.682-1.892,2.454-4.424,2.109-6.932l-0.751-5.487
		c-10.039-73.198-14.656-106.936-6.598-178.708c5.708-10.226,13.701-12.482,26.616-16.084c4.431-1.235,9.457-2.637,14.704-4.532
		c64.743-23.386,110.525-92.842,106.497-161.559c-0.196-3.331-2.288-6.255-5.379-7.518c-3.094-1.256-6.631-0.636-9.102,1.615
		c-20.672,18.796-45.933,29.676-70.366,40.196c-10.825,4.661-22.219,7.806-34.279,11.136c-3.079,0.85-6.18,1.714-9.288,2.601
		c3.787-16.984,8.088-34.03,12.884-50.828c37.571-10.841,76.896-25.081,98.822-59.133c27.306-42.406,38.267-87.172,31.693-129.463
		c-0.511-3.28-2.847-5.978-6.018-6.953c-3.178-0.975-6.624-0.054-8.882,2.373c-8.126,8.714-17.683,15.511-28.231,21.138
		c0.694-14.227,6.452-23.232,18.073-36.316c7.477-8.422,16.796-15.08,26.66-22.127c5.308-3.791,10.794-7.711,16.024-11.966
		c14.125-11.485,27.201-25.922,41.154-45.432c22.872-32.004,34.689-68.819,32.424-100.999
		C958.324,381.823,958.275,381.517,958.249,381.224z M788.316,241.991c11.038-0.68,18.959,14.559,21.163,19.24
		c13.763,29.195,15.591,63.433,5.016,93.935c-1.567,4.522,0.829,9.461,5.348,11.028c0.941,0.325,1.899,0.481,2.84,0.481
		c3.588,0,6.946-2.248,8.188-5.829c12.044-34.746,9.962-73.751-5.714-107.004c-9.146-19.419-23.082-30.065-37.877-29.148
		c-7.042,0.422-13.033,3.349-18.075,7.235c-2.244,1.729-4.305,3.64-6.176,5.62c-2.693,2.849-5.01,5.816-6.965,8.504
		c-19.531,26.836-32.8,58.319-38.375,91.041c-0.665,3.911,1.422,7.622,4.835,9.247c0.705,0.336,1.445,0.614,2.253,0.752
		c4.739,0.789,9.193-2.369,9.999-7.088c5.125-30.106,17.334-59.067,35.301-83.753c1.084-1.49,2.134-2.814,3.169-4.062
		C778.738,245.57,783.597,242.275,788.316,241.991z M461.837,307.008c4.78-0.25,8.452-4.329,8.198-9.105
		c-1.29-24.534,2.271-49.775,10.297-72.999c4.864-14.064,15.076-29.997,27.861-28.735c5.49,0.555,10.977,4.417,15.615,8.12
		c32.587,26.023,53.739,66.402,56.579,108.006c0.311,4.576,4.119,8.076,8.635,8.076c0.2,0,0.399-0.007,0.599-0.02
		c4.776-0.325,8.381-4.461,8.056-9.234c-3.165-46.37-26.738-91.366-63.054-120.371c-6.614-5.277-14.718-10.811-24.68-11.82
		c-19.81-1.996-34.305,13.904-42.566,31.83c-1.291,2.802-2.443,5.648-3.425,8.488c-8.747,25.312-12.629,52.825-11.221,79.566
		c0.118,2.286,1.133,4.329,2.662,5.815C457.065,306.25,459.353,307.206,461.837,307.008z M752.876,182.538
		c-2.525-8.425-5.389-17.971-11.61-26.088c-7.829-10.229-19.501-15.384-30.427-13.526c-6.81,1.175-12.375,4.959-15.967,7.704
		c-4.568,3.489-8.75,7.482-12.504,11.843c-1.497,1.739-2.943,3.523-4.292,5.38c-2.122-1.618-4.556-2.958-7.247-3.967
		c-0.151-0.057-0.313-0.085-0.464-0.14c-9.184-3.283-20.123-2.334-28.515,2.308c-1.136,0.628-2.234,1.312-3.266,2.073
		c-14.332,10.595-19.297,28.471-22.926,41.523c-1.28,4.61,1.422,9.386,6.032,10.669c0.775,0.213,1.557,0.318,2.322,0.318
		c3.798,0,7.281-2.515,8.347-6.35c3.825-13.773,7.711-25.705,16.525-32.221c4.109-3.043,10.781-3.862,15.862-1.953
		c3.05,1.144,4.871,2.958,5.406,5.389c0.792,3.591,3.764,6.293,7.413,6.736c3.656,0.474,7.186-1.462,8.818-4.759
		c4.448-8.997,11.025-16.975,19.01-23.075c0.274-0.21,0.608-0.444,0.915-0.669c2.085-1.529,4.815-3.271,7.477-3.728
		c5.125-0.88,10.578,2.874,13.722,6.983c2.014,2.629,3.561,5.718,4.888,8.991c1.501,3.701,2.715,7.643,3.882,11.535
		c1.378,4.587,6.215,7.19,10.788,5.812c0.785-0.235,1.486-0.602,2.144-1.021C752.398,190.275,754.015,186.337,752.876,182.538z"/>
</g>
</svg>
