<?xml version="1.0" encoding="utf-8"?>
<!-- Generator: Adobe Illustrator 23.0.3, SVG Export Plug-In . SVG Version: 6.00 Build 0)  -->
<svg version="1.1" id="Capa_1" xmlns="http://www.w3.org/2000/svg" xmlns:xlink="http://www.w3.org/1999/xlink" x="0px" y="0px"
	 viewBox="0 0 1200 1200" enable-background="new 0 0 1200 1200" xml:space="preserve">
<g>
	<path fill="#C0EF92" d="M451.17,806.268c0.177-1.189,0.315-2.367,0.499-3.557c13.815-89.45,42.941-178.483,73.851-265.417
		c8.206,73.426,25.688,145.66,43.186,217.378c-0.598,17.739-0.797,35.528-0.483,53.369c0.56,31.798,3.346,62.506,7.075,93.426
		c-4.832,3.264-11.316,2.054-16.95,0.509c-24.342-6.676-47.911-17.248-67.344-33.354
		C471.663,852.592,456.618,830.783,451.17,806.268z"/>
	<path fill="#3A6854" d="M712.937,348.539c-1.916,7.093-4.232,15.15-6.919,23.569c-5.526,9.487-11.061,18.911-16.548,28.243
		c-24.557,41.77-49.635,84.43-71.175,128.834c4.653-17.337,9.727-34.572,15.322-51.668c7.457-22.777,15.911-45.757,24.09-67.98
		c15.573-42.318,31.675-86.077,41.899-131.093c2.01-8.839,4.161-17.909,6.353-27.148c1.335-5.629,2.688-11.352,4.037-17.125
		c9.433,3.825,19.893,9.251,28.438,15.621c-0.02,0.174-0.032,0.349-0.052,0.523C734.451,284.359,721.774,315.822,712.937,348.539z
		 M511.156,207.795c-2.455,2.346-4.965,4.768-6.407,7.843c-1.885,4.02-1.725,8.66-1.498,13.095
		c3.978,77.764,16.669,155.02,17.441,232.882c0.125,12.583,0.656,25.12,1.454,37.624c2.258-6.26,4.516-12.51,6.769-18.746
		c3.333-9.224,6.644-18.399,9.937-27.551c4.243-84.383,0.844-169.377-10.628-262.245
		C521.595,195.065,514.881,204.236,511.156,207.795z M739.746,231.328c0.904-28.744-3.589-57.648-13.205-84.751
		c-2.818,24.029-7.651,48.303-12.926,71.804C721.828,221.539,731.073,225.902,739.746,231.328z M577.08,261.816
		c4.012,24.018,5.954,48.776,3.505,72.907c3.424-10.134,6.783-20.301,10.082-30.495c8.155-60.93,3.059-126.672-15.061-195.91
		c-9.636,5.907-19.273,11.814-28.909,17.72C554.97,171.405,569.43,216.021,577.08,261.816z M626.256,177.629
		c-5.122-29.471-12.673-58.211-30.814-81.47c-1.86,1.14-3.719,2.28-5.579,3.419c13.016,48.318,19.861,95.06,20.507,139.821
		C616.148,218.924,621.503,198.337,626.256,177.629z M599.475,616.044c-0.172,0.507-0.404,0.975-0.661,1.423
		c-8.256,47.693-13.047,96.06-14.351,144.849c2.262-5.757,4.813-11.42,7.419-17.012c15.565-33.397,33.092-65.768,50.98-97.956
		c20.063-36.102,40.579-71.976,59.29-108.813c20.539-40.436,41.077-80.871,61.616-121.307c4.104-8.079,8.307-17.315,5.313-25.867
		c-15.434-7.375-34.267-14.63-48.719-5.478c-3.111,1.97-5.716,4.586-8.158,7.362c-2.987,5.094-5.97,10.173-8.937,15.219
		C664.436,474.515,624.281,542.817,599.475,616.044z M556.438,403.925c5.151-14.426,10.271-28.914,15.323-43.465
		c-4.811-52.462-10.399-105.165-25.716-155.471C554,274.457,557.398,339.753,556.438,403.925z M618.404,472.539
		c7.547-23.055,16.055-46.176,24.281-68.531c15.395-41.842,31.318-85.104,41.314-129.11c2.017-8.889,4.18-18.009,6.384-27.298
		c8.217-34.646,17.146-72.374,20.891-108.838c-8.242,1.839-16.358,4.247-24.233,7.296c-1.827,0.707-3.789,1.577-4.682,3.32
		c-0.732,1.429-0.575,3.131-0.4,4.727c4.764,43.418,3.119,94.897-14.96,135.533c-10.143,22.798-18.322,4.704-22.218-11.071
		c-4.893-19.813-8.959-39.827-12.157-59.983c-7.909,30.136-16.847,59.989-26.406,89.571c-0.088,0.344-0.192,0.676-0.321,0.999
		c-14.612,45.15-30.589,89.682-46.38,133.621l-4.255,11.843c-3.73,10.393-7.504,20.832-11.293,31.315
		c-6.153,17.026-12.333,34.157-18.45,51.361c8.206,73.426,25.688,145.66,43.186,217.378
		C571.955,658.338,588.578,563.659,618.404,472.539z"/>
	<path fill="#C19C8B" d="M559.718,1090.837c-1.842,0.094-3.674,0.19-5.475,0.259c-9.173,0.353-19.899,1.335-29.871,5.947
		c-9.348,4.319-16.451,11.334-20.162,19.646c-9.674-8.991-16.845-20.6-22.4-32.01c12.132-13.272,50.293-10.384,63.433-4.603
		C550.72,1082.486,556.203,1086.139,559.718,1090.837z M562.657,1106.723c-0.632,0.031-1.269,0.058-1.898,0.09
		c-1.985,0.103-3.955,0.203-5.897,0.278c-7.594,0.294-16.358,1.054-23.776,4.483c-6.685,3.086-11.61,8.345-13.178,14.069
		c-0.052,0.19-0.135,0.361-0.199,0.543c0.976,0.491,1.984,0.945,3.003,1.392c6.81-0.096,13.641-1.37,20.156-3.404
		C550.049,1121.311,559.774,1115.308,562.657,1106.723z"/>
	<path d="M771.757,276.57c0.928-18.714-14.334-34.184-32.011-45.243c-8.673-5.425-17.918-9.789-26.13-12.947
		c5.275-23.501,10.108-47.775,12.926-71.804c2.48-21.145,3.404-42.093,1.698-62.138c-0.347-4.077-3.714-7.238-7.807-7.322
		c-24.012-0.5-48.183,1.651-71.751,6.419c-3.342,0.675-5.887,3.395-6.344,6.775c-3.95,29.333-9.453,58.437-16.081,87.319
		c-4.752,20.709-10.108,41.295-15.885,61.77c-0.646-44.761-7.491-91.503-20.507-139.821c-3.173-11.778-6.674-23.641-10.579-35.6
		c-0.879-2.679-2.348-7.166-6.256-10.336c-5.537-4.487-12.456-3.733-16.177-3.327l-48.858,5.312
		c-4.061,0.441-7.139,3.871-7.139,7.957c0,5.346,0.954,10.611,1.962,16.186c1.149,6.337,2.45,13.522,2.526,22.133
		c0,0.02,0.006,0.037,0.006,0.056l-26.946,11.212c-3.686,1.535-8.736,3.636-12.297,8.27c-4.846,6.312-4.529,14.023-4.319,19.125
		c7.885,191.816,10.881,357.468-0.105,542.184c-10.753,38.924-19.75,78.127-25.833,117.516
		c-15.603,101.037-7.225,196.025,24.229,274.691c7.794,19.497,19.417,43.859,40.287,59.354
		c13.408,9.958,32.519,15.689,51.253,15.689c18.737,0,37.093-5.734,48.993-18.709c24.622-26.844,15.283-77.895,10.268-105.324
		c-1.332-7.285-2.78-14.429-4.152-21.21c-2.029-10.033-3.949-19.51-5.003-27.123l-2.417-17.284
		c-7.288-51.96-14.169-101.037-15.076-152.591c-0.268-15.185-0.171-30.333,0.233-45.444c1.304-48.789,6.095-97.156,14.351-144.849
		c0.258-0.447,0.489-0.916,0.661-1.423c24.806-73.227,64.96-141.529,103.792-207.58c2.967-5.046,5.95-10.125,8.937-15.219
		c17.442-29.747,35.067-60.266,51.011-91.13C766.611,295.545,771.26,286.547,771.757,276.57z M558.583,66.229
		c2.454-0.269,3.968-0.291,4.277-0.231c0.388,0.453,0.985,2.279,1.207,2.958c4.324,13.244,8.134,26.357,11.538,39.362
		c18.12,69.237,23.216,134.98,15.061,195.91c-3.299,10.194-6.658,20.361-10.082,30.495c-2.906,8.602-5.853,17.178-8.824,25.737
		c-5.052,14.551-10.172,29.039-15.323,43.465c0.96-64.172-2.437-129.468-10.394-198.937c-3.819-33.348-8.651-67.628-14.594-103.254
		c-0.402-2.411-1.882-4.502-4.018-5.687c-1.945-1.073-4.233-1.247-6.329-0.565c-0.473-7.113-1.551-13.13-2.535-18.566
		c-0.399-2.198-0.772-4.265-1.069-6.219L558.583,66.229z M477.781,139.909c-0.116-2.792-0.289-7.013,1.019-8.717
		c0.958-1.247,3.617-2.354,5.753-3.245l32.746-13.625c4.24,26.13,7.855,51.518,10.926,76.375
		c11.472,92.868,14.871,177.862,10.628,262.245c-3.293,9.152-6.604,18.327-9.937,27.551c-2.253,6.236-4.512,12.486-6.769,18.746
		c-14.143,39.221-28.268,78.924-41.136,118.996C487.895,458.4,484.744,309.311,477.781,139.909z M520.713,1127.58
		c-1.019-0.448-2.028-0.901-3.003-1.392c0.065-0.182,0.147-0.354,0.199-0.543c1.568-5.725,6.494-10.984,13.178-14.069
		c7.418-3.43,16.181-4.19,23.776-4.483c1.942-0.075,3.911-0.175,5.897-0.278c0.629-0.032,1.266-0.059,1.898-0.09
		c6.703-0.333,13.529-0.588,19.635,0.281c4.34,0.622,7.957,2.032,10.461,4.074c0.394,0.322,0.622,0.563,0.741,0.703
		c0.088,0.445,0.227,0.867,0.384,1.28c-1.433,2.702-3.066,5.23-5.068,7.412C573.981,1136.652,542.653,1137.216,520.713,1127.58z
		 M585.866,979.832c1.122,8.104,3.089,17.818,5.171,28.101c1.354,6.688,2.779,13.732,4.096,20.917
		c2.956,16.163,8.12,44.614,4.197,67.363c-4.189-2.538-9.127-4.247-14.777-5.054c-8.213-1.176-16.552-0.747-24.615-0.331
		c-0.074,0.004-0.145,0.007-0.219,0.01c-1.842,0.094-3.674,0.19-5.475,0.259c-9.173,0.353-19.899,1.335-29.871,5.947
		c-9.348,4.319-16.451,11.334-20.162,19.646c-9.674-8.991-16.845-20.6-22.4-32.01c-2.613-5.367-4.881-10.688-6.87-15.663
		c-30.023-75.091-38.198-165.88-23.771-262.749c0.177-1.189,0.315-2.367,0.499-3.557c13.815-89.45,42.941-178.483,73.851-265.417
		c6.117-17.204,12.298-34.334,18.45-51.361c3.789-10.483,7.563-20.923,11.293-31.315l4.255-11.843
		c15.791-43.939,31.767-88.471,46.38-133.621c0.129-0.322,0.234-0.655,0.321-0.999c9.559-29.583,18.497-59.435,26.406-89.571
		c10.405-39.648,19.039-79.774,24.788-120.432c18.247-3.345,36.815-5.056,55.368-5.099c0.764,14.777,0.093,30.13-1.507,45.71
		c-3.745,36.464-12.674,74.192-20.891,108.838c-2.204,9.289-4.368,18.409-6.384,27.298c-9.996,44.006-25.919,87.268-41.314,129.11
		c-8.226,22.355-16.733,45.475-24.281,68.531c-29.825,91.12-46.448,185.799-49.698,282.133c-0.598,17.739-0.797,35.528-0.483,53.369
		c0.56,31.798,3.346,62.506,7.075,93.426c2.431,20.158,5.254,40.404,8.157,61.107L585.866,979.832z M748.996,294.767
		c-13.455,26.037-28.178,51.931-42.978,77.34c-5.526,9.487-11.061,18.911-16.548,28.243c-24.557,41.77-49.635,84.43-71.175,128.834
		c4.653-17.337,9.727-34.572,15.322-51.668c7.457-22.777,15.911-45.757,24.09-67.98c15.573-42.318,31.675-86.077,41.899-131.093
		c2.01-8.839,4.161-17.909,6.353-27.148c1.335-5.629,2.688-11.352,4.037-17.125c9.433,3.825,19.893,9.251,28.438,15.621
		c10.288,7.671,17.794,16.709,17.334,25.984C755.468,281.795,752.523,287.938,748.996,294.767z"/>
</g>
</svg>
