<?xml version="1.0" encoding="utf-8"?>
<!-- Generator: Adobe Illustrator 23.0.3, SVG Export Plug-In . SVG Version: 6.00 Build 0)  -->
<svg version="1.1" id="Capa_1" xmlns="http://www.w3.org/2000/svg" xmlns:xlink="http://www.w3.org/1999/xlink" x="0px" y="0px"
	 viewBox="0 0 1200 1200" enable-background="new 0 0 1200 1200" xml:space="preserve">
<g>
	<path fill="#E2CDB5" d="M277.415,938.363c1.612,4.185,3.251,8.404,4.969,12.63c-25.787-0.531-52.24,2.836-77.962-0.007
		c-142.585-15.76-187.221-182.948-130.61-298.86c30.644-62.743,84.595-111.711,144.421-147.72
		c39.087-23.527,77.952-48.046,119.846-65.283c36.132-14.865,76.756-22.919,93.052-63.752c6.875-17.227,6.751-36.351,6.097-54.888
		c-0.99-28.032-2.765-56.224-5.501-84.117c-1.664-16.956-13.287-42.034-0.881-57.369c19.522-24.13,74.682-25.249,103.136-26.086
		c10.464-0.308,21.618,0.231,30.836,4.679c-4.1,10.147-4.297,21.288-4.424,29.449l-0.228,15.968
		c-0.673,49.604-1.256,92.442-11.129,142.962c-4.072,20.844-8.69,44.467-22.626,61.141c-9.823,11.754-26.465,13.846-44.085,16.062
		c-6.288,0.789-12.787,1.604-19.008,2.9c-29.515,6.136-57.542,13.752-83.304,22.635c-57.036,19.667-106.496,46.563-147.013,79.946
		c-73.765,60.782-119.088,147.751-121.239,232.642c-0.927,36.521,14.387,72.779,43.121,102.086
		c30.63,31.244,72.502,50.357,113.081,51.877C271.483,922.96,274.49,930.769,277.415,938.363z M822.601,467.624
		c-6.755-1.517-13.89-2.69-21.441-3.928c-27.953-4.583-59.635-9.777-74.009-35.794c0,0,0,0,0-0.004
		c-3.906-7.077-6.302-15.385-7.117-24.699c-0.451-5.138-0.762-10.279-1-15.42c-22.863-8.982-45.19-19.505-65.01-33.991
		c-14.857-10.859-26.173-20.739-34.759-32.51c-2.563,20.606-5.914,41.117-10.2,61.449c-0.919,4.362-4.767,7.359-9.057,7.359
		c-0.633,0-1.276-0.065-1.92-0.203c-5.008-1.057-8.212-5.969-7.157-10.979c6.217-29.496,10.579-59.358,13.071-89.375
		c-1.032-3.485-1.988-7.118-2.835-11.003c-5.477-25.126-9.999-50.46-13.554-75.929c-0.382-2.738-0.803-5.528-1.269-8.317
		c-2.519-1.199-5.041-2.641-7.457-4.347l-0.189,13.321c-0.686,50.498-1.278,94.111-11.472,146.267
		c-4.279,21.893-9.604,49.141-26.594,69.474c-14.501,17.347-36.547,20.116-55.998,22.563c-6.197,0.778-12.051,1.513-17.546,2.653
		c-28.749,5.98-56.013,13.387-81.034,22.013c-54.936,18.943-102.466,44.76-141.268,76.732
		C175.11,600.37,132.308,682.166,130.29,761.765c-0.766,30.245,11.651,60.489,34.986,85.613
		c-5.536-97.582,43.895-195.493,126.819-248.011c4.328-2.737,10.053-1.448,12.787,2.871c2.737,4.326,1.452,10.049-2.872,12.789
		c-80.784,51.16-128.783,153.141-116.721,248.001c0.108,0.849,0.058,1.674-0.057,2.481c23.723,18.092,51.994,29.156,79.719,31.007
		c2.765-30.51,9.346-59.792,19.691-87.107c35.761-94.397,111.505-155.516,178.332-209.435c3.987-3.215,9.819-2.585,13.032,1.39
		c3.213,3.986,2.59,9.817-1.394,13.032C409.62,666.84,335.954,726.279,301.974,815.977c-10.357,27.341-16.749,56.811-19.044,87.603
		c4.593,9.536,8.259,18.981,11.78,28.122c2.729,7.089,5.411,14.02,8.439,20.776c7.181,0.963,14.279,2.448,21.259,4.716
		c8.06,2.618,15.68,6.181,23.062,10.26c-0.175-6.537-0.094-12.898,0.118-18.909c1.586-44.927,9.131-83.262,23.068-117.202
		c16.545-40.304,42.094-73.199,73.886-95.128c4.21-2.907,9.986-1.846,12.889,2.364c2.907,4.214,1.848,9.984-2.366,12.891
		c-28.827,19.888-52.087,49.941-67.266,86.911c-13.088,31.877-20.181,68.123-21.689,110.817c-0.332,9.387-0.362,19.675,0.6,30.066
		c9.593,6.303,19.07,12.872,28.913,18.682c28.478,16.812,60.653,27.066,93.538,30.476c6.72-20.688,8.619-43.102,5.136-64.375
		c-0.827-5.053,2.597-9.817,7.649-10.643c5.043-0.843,9.814,2.595,10.643,7.645c3.756,22.953,2.184,46.407-4.309,68.509
		c26.936,0.612,53.96-3.285,79.459-12.02c0.752-0.257,1.498-0.539,2.248-0.804c-24.357-55.168-18.479-133.762-16.254-163.414
		c2.815-37.513,9.852-77.883,22.152-127.041c1.242-4.967,6.291-8.004,11.238-6.74c4.967,1.242,7.986,6.273,6.74,11.236
		c-12.036,48.116-18.916,87.494-21.647,123.928c-2.139,28.523-7.853,105.077,14.986,155.392
		c26.694-11.001,52.889-23.948,81.495-25.538c9.789-0.544,19.52,0.303,29.239,1.596c-3.883-19.278-6.292-39.707-7.196-61.223
		c-2.085-49.658,3.768-99.154,10.48-149.717c0.673-5.072,5.329-8.637,10.407-7.967c5.075,0.673,8.641,5.332,7.967,10.407
		c-6.603,49.716-12.362,98.332-10.335,146.495c0.968,23.041,3.74,44.716,8.26,64.95c6.418,1.01,12.841,1.969,19.284,2.616
		c23.467,2.354,47.264,0.286,70.091-5.599c0.218-11.832-0.693-23.69-2.861-35.367c-0.934-5.032,2.389-9.868,7.421-10.802
		c5.032-0.927,9.868,2.386,10.802,7.421c2.029,10.924,3.028,21.995,3.164,33.069c16.986-6.111,33.177-14.407,47.975-24.716
		c27.665-69.712,17.899-159.319-28.732-229.961c-20.731-31.41-37.26-49.119-54.759-67.87c-3.526-3.779-7.07-7.577-10.668-11.508
		c-3.453-3.776-3.193-9.636,0.583-13.093s9.64-3.193,13.093,0.583c3.555,3.884,7.055,7.638,10.541,11.374
		c17.253,18.483,35.088,37.597,56.681,70.306c44.394,67.26,57.884,148.154,40.23,217.81c30.396-28.04,72.532-38.977,109.56-58.355
		c6.586-33.477,7.212-68.107,1.472-101.956c-10.48-61.778-41.709-119.096-87.932-161.391c-3.776-3.457-4.036-9.318-0.583-13.093
		c3.45-3.776,9.314-4.04,13.093-0.583c49.256,45.068,82.531,106.144,93.695,171.968c5.202,30.682,5.466,61.964,1.127,92.583
		c2.236-1.539,4.461-3.095,6.621-4.756c27.892-21.458,51.709-47.733,68.255-78.221c-0.31-57.651-20.961-118.425-59.246-168.25
		C1013.183,542.01,926.591,490.983,822.601,467.624z M1085.599,541.951c-20.31-16.791-44.201-28.632-68.252-39.402
		c-9.355-4.189-18.775-8.316-28.25-12.384c-78.905-33.88-161.577-63.715-241.742-91.912c-3.114-1.095-6.234-2.216-9.353-3.34
		c0.152,2.224,0.3,4.449,0.495,6.669c0.597,6.816,2.194,12.496,4.88,17.361c10.027,18.139,34.683,22.183,60.782,26.465
		c7.486,1.227,15.225,2.494,22.505,4.13c108.211,24.308,198.582,77.749,254.463,150.473c32.612,42.441,53.155,92.462,60.237,142.396
		c1.365-4.415,2.636-8.874,3.698-13.426C1160.713,661.885,1138.699,585.851,1085.599,541.951z"/>
	<path d="M826.663,449.539c-7.28-1.636-15.019-2.903-22.505-4.13c-26.1-4.282-50.755-8.326-60.782-26.465
		c-2.686-4.865-4.282-10.545-4.88-17.361c-0.195-2.22-0.343-4.444-0.495-6.669c-3.198-46.899,2.966-94.808,8.958-141.209
		c3.996-30.943,8.127-62.94,9.542-94.712c0.286-6.498,0.959-21.712-9.658-30.534c-8.648-7.186-20.091-6.299-26.94-5.785
		l-105.724,8.109c-15.511,1.191-31.56,3.363-42.393,15.432c-3.112,3.466-5.339,7.345-6.968,11.377
		c-4.1,10.147-4.297,21.288-4.424,29.449l-0.228,15.968c-0.673,49.604-1.256,92.442-11.129,142.962
		c-4.072,20.844-8.69,44.467-22.626,61.141c-9.823,11.754-26.465,13.846-44.085,16.062c-6.288,0.789-12.787,1.604-19.008,2.9
		c-29.515,6.136-57.542,13.752-83.304,22.635c-57.036,19.667-106.496,46.563-147.013,79.946
		c-73.765,60.782-119.088,147.751-121.239,232.642c-0.927,36.521,14.387,72.779,43.121,102.086
		c30.63,31.244,72.502,50.357,113.081,51.877c3.519,7.703,6.525,15.511,9.45,23.106c1.612,4.185,3.251,8.404,4.969,12.63
		c6.07,14.927,13.308,29.97,25.384,44.166c66.904,78.65,187.769,88.496,271.752,64.373c1.745-0.503,3.488-1.024,5.233-1.542
		c7.902-2.36,15.367-4.59,22.76-4.93c8.015-0.322,16.322,1.51,24.12,3.591l3.761,1.006c35.754,9.553,74.857,20.004,113.373,20.004
		c16.301,0,32.5-1.872,48.29-6.476c27.034-7.888,45.727-24.015,63.805-39.609c18.798-16.214,36.55-31.526,63.066-37.484
		c80.471-18.082,176.696-49.539,206.778-132.989c13.218-36.669,16.48-77.653,10.659-118.695
		c-7.082-49.934-27.625-99.954-60.237-142.396C1025.245,527.288,934.874,473.847,826.663,449.539z M1125.675,779.556
		c0.141,26.169-3.909,51.696-12.404,75.263c-14.244,39.51-46.134,66.292-84.209,85.292c10.704-24.787,17.962-50.93,21.738-77.578
		c4.339-30.62,4.075-61.901-1.127-92.583c-11.164-65.825-44.438-126.9-93.695-171.968c-3.779-3.457-9.643-3.193-13.093,0.583
		c-3.453,3.776-3.193,9.636,0.583,13.093c46.223,42.295,77.452,99.613,87.932,161.391c5.74,33.849,5.114,68.479-1.472,101.956
		c-5.233,26.601-14.258,52.456-26.91,76.612c-27.225,10.682-56.117,18.315-83.152,24.39c-6.351,1.427-12.236,3.317-17.779,5.535
		c7.916-15.172,14.013-31.344,18.281-48.183c17.654-69.655,4.164-150.55-40.23-217.81c-21.593-32.71-39.428-51.823-56.681-70.306
		c-3.486-3.736-6.987-7.49-10.541-11.374c-3.453-3.776-9.318-4.04-13.093-0.583s-4.036,9.318-0.583,13.093
		c3.598,3.931,7.142,7.729,10.668,11.508c17.499,18.751,34.027,36.46,54.759,67.87c46.631,70.642,56.397,160.249,28.732,229.961
		c-6.252,15.755-14.402,30.501-24.486,43.774c-0.555,0.73-0.942,1.527-1.25,2.343c-6.569,5.068-12.77,10.417-18.906,15.71
		c-2.591,2.234-5.162,4.435-7.736,6.611c3.106-14.368,4.583-29.039,4.402-43.721c-0.136-11.074-1.136-22.144-3.164-33.069
		c-0.934-5.035-5.77-8.348-10.802-7.421c-5.032,0.934-8.355,5.77-7.421,10.802c2.168,11.677,3.079,23.535,2.861,35.367
		c-0.327,17.7-3.251,35.341-8.838,52.213c-0.367,1.105-0.487,2.228-0.437,3.326c-7.802,4.848-16.182,8.944-25.756,11.737
		c-9.389,2.74-19.045,4.358-28.86,5.135c-11.262-20.697-19.781-43.899-25.484-69.428c-4.519-20.234-7.292-41.909-8.26-64.95
		c-2.027-48.163,3.732-96.779,10.335-146.495c0.673-5.075-2.892-9.734-7.967-10.407c-5.079-0.67-9.734,2.896-10.407,7.967
		c-6.711,50.563-12.565,100.058-10.48,149.717c0.904,21.516,3.313,41.945,7.196,61.223c5.343,26.525,13.51,50.841,24.404,72.796
		c-34.286-1.096-69.674-10.514-102.164-19.198l-3.768-1.003c-3.994-1.067-8.139-2.072-12.399-2.848
		c-6.838-7.25-12.367-16.023-16.807-25.805c-22.84-50.315-17.125-126.869-14.986-155.392c2.731-36.435,9.611-75.812,21.647-123.928
		c1.245-4.963-1.774-9.995-6.74-11.236c-4.947-1.263-9.996,1.774-11.238,6.74c-12.301,49.159-19.338,89.528-22.152,127.041
		c-2.224,29.652-8.102,108.247,16.254,163.414c2.883,6.529,6.185,12.733,9.971,18.485c-7.141,1.041-13.915,3.041-20.51,5.012
		c-1.683,0.5-3.365,1.003-5.048,1.488c-22.8,6.551-48.48,10.437-74.945,10.912c3.567-7.461,6.505-15.18,8.824-23.073
		c6.493-22.102,8.065-45.556,4.309-68.509c-0.829-5.05-5.6-8.489-10.643-7.645c-5.052,0.825-8.476,5.589-7.649,10.643
		c3.482,21.274,1.583,43.687-5.136,64.375c-2.696,8.3-6.177,16.314-10.397,23.871c-32.329-1.644-65.017-8.595-94.388-22.299
		c-11.345-14.481-16.002-32.76-17.666-50.732c-0.962-10.391-0.932-20.678-0.6-30.066c1.508-42.693,8.601-78.94,21.689-110.817
		c15.178-36.97,38.438-67.023,67.266-86.911c4.214-2.907,5.272-8.677,2.366-12.891c-2.903-4.21-8.679-5.271-12.889-2.364
		c-31.792,21.93-57.341,54.824-73.886,95.128c-13.937,33.94-21.482,72.276-23.068,117.202c-0.212,6.011-0.293,12.372-0.118,18.909
		c0.396,14.788,2.19,30.515,7.214,45.445c-11.985-8.406-23.035-18.272-32.799-29.75c-8.249-9.696-13.935-19.959-18.736-30.671
		c-3.028-6.756-5.71-13.687-8.439-20.776c-3.522-9.142-7.187-18.586-11.78-28.122c2.294-30.792,8.686-60.262,19.044-87.603
		c33.98-89.698,107.646-149.137,172.638-201.579c3.984-3.214,4.606-9.046,1.394-13.032c-3.213-3.975-9.044-4.605-13.032-1.39
		c-66.827,53.919-142.571,115.038-178.332,209.435c-10.346,27.315-16.927,56.597-19.691,87.107
		c-27.725-1.851-55.995-12.915-79.719-31.007c0.116-0.807,0.165-1.633,0.057-2.481c-12.062-94.86,35.937-196.841,116.721-248.001
		c4.324-2.74,5.609-8.463,2.872-12.789c-2.735-4.319-8.46-5.607-12.787-2.871c-82.924,52.517-132.355,150.429-126.819,248.011
		c-23.336-25.124-35.752-55.368-34.986-85.613c2.018-79.599,44.82-161.395,114.498-218.807
		c38.802-31.971,86.332-57.789,141.268-76.732c25.021-8.626,52.284-16.033,81.034-22.013c5.495-1.14,11.348-1.875,17.546-2.653
		c19.452-2.447,41.497-5.216,55.998-22.563c16.99-20.333,22.315-47.58,26.594-69.474c10.194-52.156,10.786-95.769,11.472-146.267
		l0.189-13.321c2.416,1.706,4.938,3.148,7.457,4.347c3.1,1.476,6.173,2.63,8.962,3.581c3.491,1.191,7.03,2.226,10.595,3.157
		c1.168,29.52,0.543,59.09-1.9,88.512c-2.493,30.017-6.855,59.879-13.071,89.375c-1.055,5.01,2.148,9.922,7.157,10.979
		c0.644,0.138,1.287,0.203,1.92,0.203c4.29,0,8.138-2.997,9.057-7.359c4.286-20.332,7.637-40.844,10.2-61.449
		c4.807-38.653,6.581-77.66,5.273-116.613c6.859,0.91,13.775,1.388,20.694,1.388c6.169,0,12.333-0.4,18.461-1.119
		c-0.393,42.876-4.447,86.016-12.053,128.237c-0.909,5.035,2.44,9.857,7.475,10.762c0.557,0.101,1.108,0.148,1.654,0.148
		c4.398,0,8.301-3.142,9.108-7.624c7.808-43.323,11.964-87.591,12.355-131.584c0.009-1.102-0.207-2.146-0.551-3.13
		c9.377-2.226,18.56-5.27,27.361-9.229c4.67-2.1,6.751-7.587,4.652-12.253c-2.103-4.67-7.587-6.748-12.253-4.652
		c-31.24,14.056-67.736,15.765-100.149,4.71c-5.388-1.839-11.39-4.275-15.043-8.42c-2.632-2.986-3.636-7.348-2.239-9.723
		c0.544-0.924,0.87-1.909,1.067-2.904c0.178-0.219,0.316-0.47,0.504-0.679c6.257-6.972,17.77-8.395,30.02-9.332l105.72-8.105
		c5.47-0.434,11.03-0.644,13.68,1.557c3.138,2.606,3.243,9.629,2.986,15.457c-1.379,30.994-5.462,62.596-9.408,93.159
		c-5.759,44.589-11.665,90.542-9.543,136.451c0.238,5.141,0.548,10.281,1,15.42c0.814,9.314,3.211,17.622,7.117,24.699
		c0,0.004,0,0.004,0,0.004c14.375,26.016,46.056,31.211,74.009,35.794c7.551,1.238,14.686,2.411,21.441,3.928
		c103.99,23.359,190.582,74.386,243.828,143.682C1104.714,661.131,1125.365,721.905,1125.675,779.556z"/>
</g>
</svg>
