<?xml version="1.0" encoding="utf-8"?>
<!-- Generator: Adobe Illustrator 23.0.3, SVG Export Plug-In . SVG Version: 6.00 Build 0)  -->
<svg version="1.1" id="Capa_1" xmlns="http://www.w3.org/2000/svg" xmlns:xlink="http://www.w3.org/1999/xlink" x="0px" y="0px"
	 viewBox="0 0 1200 1200" enable-background="new 0 0 1200 1200" xml:space="preserve">
<g>
	<path fill="#A03F70" d="M535.168,373.605c1.844-1.789,3.738-3.524,5.686-5.195c5.608,5.243,11.019,10.668,16.197,16.257
		c32.396,34.975,58.088,76.353,94.636,106.964c104.559,87.572,277.714,71.901,361.577,179.458
		c27.296,35.008,39.796,78.693,39.873,123.142c-10.893-28.082-26.54-54.338-46.674-77.094
		c-56.094-63.405-136.963-93.512-215.166-122.629c-64.882-24.156-131.971-49.135-184.209-92.958
		c-26.722-22.422-43.22-42.561-62.325-65.883c-8.007-9.773-16.252-19.827-25.699-30.591c8.53-4.54,16.742-9.642,24.516-15.304
		c2.718-1.977,4-5.381,3.265-8.659c-0.735-3.282-3.344-5.812-6.646-6.442C538.476,374.341,536.801,373.985,535.168,373.605z
		 M668.672,1036.166c100.72,20.944,215.152,17.977,294.337-47.697c25.887-21.47,46.71-48.748,62.104-78.65
		c11.328-22.005,19.414-45.98,23.911-70.544c-8.606-40.794-27.322-79.457-55.193-110.96
		c-53.303-60.242-128.649-88.296-208.421-117.997c-66.219-24.653-134.696-50.15-189.162-95.844
		c-27.935-23.434-45.711-45.138-64.532-68.114c-7.917-9.665-16.069-19.604-25.353-30.183c-5.358,13.186-8.373,27.281-8.42,41.606
		c-19.802-6.785-40.003-9.043-57.378-22.383c-2.487-1.909-4.968-3.886-7.466-5.851c-0.827,0.052-1.654,0.13-2.482,0.171
		c-1.521,0.076-3.056,0.138-4.598,0.204c-10.827,0.445-21.055,0.867-28.485,5.934c-11.473,7.822-14.01,25.329-15.486,41.121
		c-0.68,7.279-1.27,14.593-1.862,21.918c-1.336,16.58-2.718,33.721-5.188,50.463c-0.603,4.089-4.081,7.137-8.214,7.203
		c-45.779,0.692-97.553-16.844-138.798-47.046c-4.419,6.211-16.525,24.664-28.885,44.017c5.81,90.701,39.153,180.566,93.449,253.914
		C381.819,928.041,521.776,1005.619,668.672,1036.166z M198.193,523.774c8.511-13.052,15.768-23.89,17.994-26.642
		c1.316-1.628,4.396-5.43,9.643-5.994c4.995-0.547,8.641,2.181,10.391,3.489c36.505,27.276,81.982,43.82,123.087,45.016
		c1.792-13.931,2.944-28.218,4.063-42.1c0.596-7.397,1.193-14.785,1.88-22.132c1.835-19.618,5.259-41.546,22.78-53.491
		c6.573-4.482,13.919-6.536,21.284-7.599c-2.953-1.213-6.005-2.171-9.199-2.756c-21.251-3.891-42.172,9.541-55.958,26.175
		c-13.786,16.635-22.894,36.707-36.418,53.555c-28.703-45.092-34.501-116.315-19.662-174.625
		c-8.371,4.77-16.348,10.22-23.794,16.271c-0.361,1.115-0.666,2.24-1.051,3.352c-0.639,1.852-1.903,3.423-3.573,4.442
		c-4.159,2.541-8.197,5.153-12.14,7.817c-22.088,23.514-36.85,52.943-39.166,84.544C201.58,462.826,198.295,493.248,198.193,523.774
		z"/>
	<path fill="#3FAD80" d="M333.579,271.145c-4.509-9.354-6.411-20.001-7.724-30.715c17.78-24.846,33.631-46.277,34.421-80.292
		c0.066-2.849,0.027-5.786-0.126-8.821c-1.383-27.482-7.858-54.95-4.471-82.258c0.391-3.155,1.018-6.51,3.242-8.783
		c1.909-1.951,4.668-2.76,7.308-3.456c10.925-2.881,22.028-5.086,33.225-6.599c2.198-0.297,4.647-0.507,6.427,0.815
		c1.682,1.25,2.238,3.48,2.672,5.531c7.006,33.114,6.865,65.762,16.707,98.661c1.456,4.866,3.066,9.83,6.25,13.788
		c10.001,12.434,29.182,9.443,44.87,12.359c28.562,5.308,47.264,31.744,69.061,50.949c31.251,27.536,65.832,45.843,93.043,78.181
		c11.277,13.402,22.292,20.359,2.86,28.489c-14.043,5.876-32.841,0.688-47.695,3.498c-19.606,3.709-37.716,12.986-52.795,25.917
		c-1.949,1.671-3.843,3.405-5.686,5.195c-24.165-5.62-38.719-16.64-58.386-31.532c-5.091-3.855-10.353-7.842-16.177-12.027
		c-3.232-2.323-6.335-4.613-9.361-6.847c-25.149-18.571-46.881-34.624-91.942-30.983l-2.624-0.418
		c-0.181-0.03-0.364-0.053-0.549-0.069C346.863,290.869,340.118,284.714,333.579,271.145z M288.078,316.671
		c-14.84,58.311-9.042,129.533,19.662,174.625c13.523-16.848,22.632-36.92,36.418-53.555c13.786-16.634,34.707-30.066,55.958-26.175
		c3.194,0.584,6.247,1.543,9.199,2.756c5.427-0.783,10.864-1.042,16.01-1.255c1.491-0.063,2.975-0.122,4.447-0.198
		c30.895-1.552,61.697-10.89,88.459-26.623c-20.462-7.12-35.171-18.261-51.632-30.726c-5.007-3.793-10.185-7.714-15.837-11.773
		c-3.292-2.366-6.453-4.699-9.536-6.975c-24.442-18.047-42.098-31.085-81.508-27.661c-0.684,0.066-1.376,0.036-2.058-0.072
		l-3.379-0.537c-20.169-2.017-30.143-18.089-35.897-30.027c-2.825-5.861-4.774-11.992-6.222-18.159
		c-0.754,1.162-1.512,2.301-2.26,3.491C300.357,278.988,293.057,297.103,288.078,316.671z M497.943,457.782
		c0.048-14.325,3.063-28.42,8.42-41.606c-1.021-1.163-2.045-2.328-3.095-3.508c-22.239,9.574-46.148,15.374-70.169,16.879
		c2.498,1.965,4.979,3.942,7.466,5.851C457.94,448.739,478.14,450.997,497.943,457.782z"/>
	<path d="M1053.138,794.232c-10.893-28.082-26.54-54.338-46.674-77.094c-56.094-63.405-136.963-93.512-215.166-122.629
		c-64.882-24.156-131.971-49.135-184.209-92.958c-26.722-22.422-43.22-42.561-62.325-65.883
		c-8.007-9.773-16.252-19.827-25.699-30.591c8.53-4.54,16.742-9.642,24.516-15.304c2.718-1.977,4-5.381,3.265-8.659
		c-0.735-3.282-3.344-5.812-6.646-6.442c-1.725-0.33-3.4-0.686-5.033-1.066c-24.165-5.62-38.719-16.64-58.386-31.532
		c-5.091-3.855-10.353-7.842-16.177-12.027c-3.232-2.323-6.335-4.613-9.361-6.847c-25.149-18.571-46.881-34.624-91.942-30.983
		l-2.624-0.418c-0.181-0.03-0.364-0.053-0.549-0.069c-9.267-0.86-16.012-7.015-22.551-20.584
		c-4.509-9.354-6.411-20.001-7.724-30.715c-0.372-3.039-0.704-6.083-1.026-9.105l-8.107-76.098
		c-1.733-16.284-3.7-34.736-12.252-51.003c-1.901-3.608-6.117-5.344-10.002-4.119c-14.781,4.659-30.116,7.522-45.583,8.518
		c-2.348,0.152-4.526,1.278-6.008,3.104c-1.483,1.829-2.135,4.191-1.797,6.521l8.228,56.97
		c7.013,48.568,14.946,103.499-1.073,152.746c-66.382,41.388-106.634,98.21-116.483,164.499
		c-0.157,1.045-15.116,104.856,22.829,121.713c1.112,0.494,2.275,0.728,3.419,0.728c3.203,0,6.262-1.835,7.677-4.936
		c0.382-0.834,0.615-1.697,0.712-2.563c1.748-3.919,8.071-14.544,16.077-27.468c15.792,137.846,82.03,277.764,180.17,378.637
		c102.889,105.756,246.124,174.634,392.978,188.971c16.745,1.634,32.218,2.455,46.756,2.455c21.203,0,40.413-1.746,58.657-5.269
		c90.058-17.394,167.329-84.74,196.865-171.576C1077.642,915.087,1075.127,850.922,1053.138,794.232z M155.111,592.739
		c-11.107-17.631-11.476-65.478-6.674-97.798c8.616-57.99,42.784-108.349,99.083-146.389c3.943-2.664,7.981-5.275,12.14-7.817
		c1.671-1.018,2.934-2.59,3.573-4.442c0.384-1.112,0.689-2.236,1.051-3.352c17.141-52.893,8.989-109.799,1.719-160.135l-6.951-48.13
		c11.257-1.219,22.416-3.348,33.33-6.363c4.72,11.994,6.163,25.539,7.565,38.7l8.107,76.098c0.919,8.636,1.936,17.961,4.106,27.203
		c1.448,6.167,3.397,12.299,6.222,18.159c5.755,11.938,15.729,28.011,35.897,30.027l3.379,0.537
		c0.682,0.109,1.374,0.138,2.058,0.072c39.41-3.423,57.066,9.615,81.508,27.661c3.082,2.277,6.244,4.61,9.536,6.975
		c5.653,4.059,10.831,7.98,15.837,11.773c16.462,12.465,31.171,23.605,51.632,30.726c-26.762,15.734-57.563,25.072-88.459,26.623
		c-1.471,0.076-2.956,0.135-4.447,0.198c-5.146,0.213-10.583,0.472-16.01,1.255c-7.365,1.062-14.711,3.116-21.284,7.599
		c-17.521,11.944-20.945,33.872-22.78,53.491c-0.687,7.348-1.283,14.735-1.88,22.132c-1.119,13.882-2.27,28.169-4.063,42.1
		c-41.105-1.196-86.582-17.74-123.087-45.016c-1.75-1.308-5.396-4.036-10.391-3.489c-5.247,0.563-8.326,4.366-9.643,5.994
		c-2.226,2.752-9.483,13.59-17.994,26.642c-5.702,8.746-11.961,18.475-17.666,27.471
		C167.276,572.142,159.549,584.798,155.111,592.739z M1041.918,967.725c-27.615,81.198-99.878,144.175-184.087,160.439
		c-29.118,5.625-61.079,6.452-100.576,2.59c-142.95-13.954-282.374-81.001-382.526-183.943
		C274.003,843.282,207.783,697.579,197.19,556.531c0.638-1.001,1.273-1.998,1.911-2.996c12.361-19.354,24.467-37.807,28.885-44.017
		c41.245,30.202,93.019,47.738,138.798,47.046c4.134-0.066,7.611-3.114,8.214-7.203c2.47-16.742,3.852-33.882,5.188-50.463
		c0.591-7.325,1.181-14.64,1.862-21.918c1.476-15.793,4.013-33.299,15.486-41.121c7.43-5.068,17.658-5.489,28.485-5.934
		c1.542-0.066,3.078-0.129,4.598-0.204c0.828-0.042,1.654-0.119,2.482-0.171c24.021-1.505,47.93-7.305,70.169-16.879
		c1.05,1.18,2.074,2.344,3.095,3.508c9.284,10.579,17.436,20.517,25.353,30.183c18.821,22.976,36.597,44.68,64.532,68.114
		c54.466,45.695,122.942,71.191,189.162,95.844c79.772,29.701,155.118,57.754,208.421,117.997
		c27.871,31.503,46.587,70.166,55.193,110.96C1057.966,881.661,1055.992,926.349,1041.918,967.725z"/>
</g>
</svg>
