<?xml version="1.0" encoding="utf-8"?>
<!-- Generator: Adobe Illustrator 23.0.3, SVG Export Plug-In . SVG Version: 6.00 Build 0)  -->
<svg version="1.1" id="Capa_1" xmlns="http://www.w3.org/2000/svg" xmlns:xlink="http://www.w3.org/1999/xlink" x="0px" y="0px"
	 viewBox="0 0 1200 1200" enable-background="new 0 0 1200 1200" xml:space="preserve">
<g>
	<path fill="#DD4062" d="M573.003,463.174c0.039,0.005,0.083,0.016,0.122,0.022c-1.54,2.432-2.884,4.936-4.051,7.496
		c-0.488-0.447-1.001-0.86-1.504-1.287c0.379-1.24,0.84-2.467,1.312-3.692C570.746,465.031,572.145,464.184,573.003,463.174z
		 M609.596,576.25c-9.187-5.077-17.378-12-24.243-20.084c-0.014,0.071-0.026,0.144-0.041,0.215
		c6.38,15.2,12.759,30.399,19.139,45.599c11.402-0.096,20.011-4.122,28.551-11.465c-0.683-1.587-1.309-3.196-1.954-4.798
		C623.905,583.332,616.74,580.197,609.596,576.25z M731.408,953.88c36.744-24.269,80.529-19.334,116.909-43.308
		c7.457-15.531,12.907-32.401,16.007-49.912c0.747-4.217,1.32-8.427,1.788-12.628c-19.507,12.692-42.773,19.59-66.044,19.59
		c-3.688,0-7.376-0.173-11.052-0.524c-4.192-0.399-7.269-4.12-6.867-8.315c0.396-4.195,4.078-7.281,8.315-6.867
		c25.799,2.446,52.468-5.094,73.151-20.723c1.102-0.831,2.358-1.286,3.634-1.448c0.488-29.504-5.849-57.795-18.141-82.142
		c-2.877,3.273-6.599,6.202-11.09,8.583c-15.077,8.008-32.144,8.666-47.207,9.244c-0.098,0.003-0.2,0.006-0.298,0.006
		c-4.075,0-7.457-3.223-7.615-7.334c-0.161-4.206,3.119-7.752,7.328-7.912c13.424-0.515,28.641-1.102,40.638-7.474
		c4.082-2.167,8.686-6.004,9.519-10.217c-6.956-10.573-15.127-20.182-24.539-28.445c-9.388-8.243-19.872-15.337-31.241-21.207
		c-0.025,0.503-0.089,0.994-0.105,1.5c-0.134,4.126-3.521,7.379-7.617,7.379c-0.086,0-0.17,0-0.253-0.003
		c-4.209-0.137-7.513-3.661-7.376-7.871c0.146-4.48,0.628-8.839,1.276-13.133c0.029-0.392,0.071-0.783,0.164-1.174
		c0.904-5.625,2.145-11.12,3.656-16.49c-6.696-3.323-11.294-10.399-14.619-17.89c-3.373,6.885-6.161,16.775-8.14,26.626
		c-0.011,0.058-0.007,0.116-0.019,0.174c-0.009,0.042-0.028,0.08-0.038,0.122c-1.174,5.892-2.06,11.754-2.608,16.93
		c-0.444,4.189-4.189,7.201-8.389,6.78c-4.189-0.444-7.224-4.201-6.78-8.389c0.355-3.356,0.864-7.119,1.513-11.075
		c-3.35-0.64-6.453-1.14-9.633-1.525c-0.151,3.323-0.445,6.673-0.906,10.053c-0.569,4.174-4.424,7.126-8.586,6.524
		c-4.174-0.569-7.096-4.415-6.524-8.586c2.615-19.146-0.68-37.365-7.357-54.948c-1.259,3.339-2.736,6.518-4.556,9.42
		c-5.404,8.614-11.657,12.146-18.05,12.37c2.644,12.632,3.883,25.894,2.734,39.227c-0.343,3.974-3.676,6.971-7.591,6.971
		c-0.22,0-0.441-0.009-0.664-0.027c-4.195-0.363-7.305-4.058-6.944-8.255c0.286-3.32,0.387-6.639,0.357-9.951
		c-8.55,1.793-16.875,4.207-24.91,7.208c3.294,2.398,4.152,6.977,1.863,10.393c-1.472,2.196-3.885,3.381-6.342,3.381
		c-1.46,0-2.934-0.417-4.239-1.29c-7.591-5.085-14.128-10.818-19.932-16.97c-1.277,4.226-2.857,8.388-4.666,12.503
		c5.52,4.476,11.11,8.82,16.706,13.058c3.357,2.544,4.016,7.329,1.475,10.686c-1.501,1.978-3.78,3.021-6.086,3.021
		c-1.603,0-3.22-0.503-4.6-1.546c-4.831-3.659-9.666-7.382-14.457-11.208c-9.392,17.261-20.941,34.174-27.664,52.432
		c-2.215,6.014-3.829,11.843-5.002,17.532c1.848,1.817,3.822,3.429,5.774,4.767c17.565,12.038,40.703,13.567,64.867,14.157
		c4.209,0.101,7.54,3.599,7.436,7.808c-0.101,4.15-3.494,7.442-7.62,7.442c-0.063,0-0.125,0-0.188-0.003
		c-26.241-0.639-51.52-2.403-72.388-16.354c-0.523,18.365,4.244,34.966,12.538,50.115c2.275,0.373,4.566,0.628,6.864,0.725
		c4.209,0.179,7.474,3.733,7.299,7.942c-0.124,2.93-1.898,5.38-4.376,6.552c22.435,30.253,58.053,54.394,89.635,75.405
		c5.112,3.401,10.47,7.135,12.888,12.78c3.803,8.88-0.944,18.952-6.013,27.176c-6.914,11.218-14.783,22.418-22.329,33.763
		c6.797,4.004,13.469,8.437,19.628,13.481c4.151-6.21,8.302-12.419,12.454-18.629C706.113,979.042,716.463,963.751,731.408,953.88z
		 M633.349,1087.887c13.952-20.87,27.903-41.739,41.855-62.609c-5.878-4.971-12.497-9.346-19.4-13.377
		C640.949,1035.834,629.589,1060.666,633.349,1087.887z M640.8,607.116c-0.398-0.79-0.772-1.592-1.165-2.385
		c-8.612,6.667-17.891,10.986-29.132,12.169c3.508,9.298,6.318,18.814,6.789,28.692c0.083,1.75,0.074,3.479,0.02,5.198
		c3.592,4.593,7.457,8.964,11.728,13.047c11.872-5.111,24.402-8.989,37.375-11.564c-0.885-6.447-2.241-12.781-3.921-18.919
		C653.314,626.697,645.268,615.975,640.8,607.116z M713.088,581.971c-1.764,0.756-3.544,1.465-5.337,2.138
		c-0.056,2.724-0.178,5.425-0.369,8.095c9.222,18.065,16.093,37.103,17.891,57.207c4.407,0.461,8.536,1.11,13.006,1.966
		c2.052-8.502,4.705-16.856,7.968-23.384c2.219-4.438,4.247-8.956,6.122-13.53c-2.282-7.148-4.377-14.353-6.288-21.608
		C735.265,591.657,723.648,588.55,713.088,581.971z M729.773,573.356c4.071,1.618,8.246,2.756,12.385,3.518
		c-0.769-3.438-1.497-6.886-2.184-10.342C736.66,568.96,733.257,571.239,729.773,573.356z M861.303,544.229
		c-9.427,12.828-18.206,26.128-26.347,39.808c11.839-1.464,23.419-4.354,33.512-10.332c3.362-1.99,6.512-4.525,9.346-7.41
		c1.29-1.511,2.566-3.035,3.916-4.486c8.515-11.048,12.295-25.558,5.664-37.22c-0.845-1.487-1.149-3.199-0.909-4.862
		C877.031,526.355,868.557,534.359,861.303,544.229z M825.735,600.199c-1.78,3.264-3.519,6.549-5.225,9.853
		c-1.217,2.358-2.434,4.716-3.613,7.094c-1.386,2.795-2.745,5.603-4.077,8.423c-5.148,10.901-12.556,23.528-22.675,27.886
		c-1.353,4.432-2.52,8.885-3.45,13.386c14.375,6.868,27.547,15.507,39.212,25.748c44.668,39.214,65.144,104.634,53.436,170.731
		c-1.398,7.892-3.268,15.657-5.523,23.264c23.572-30.37,33.26-72.488,19.856-109.036c-14.933-40.717-40.944-74.185-42.532-119.379
		c-0.372-10.598,0.279-22.363,2.169-34.126c1.673-10.418,4.346-20.814,8.121-30.418C849.8,597.694,837.514,599.421,825.735,600.199z
		 M904.095,524.899c1.532,4.809,2.077,9.757,1.867,14.691c10.14-8.388,20.498-16.555,29.893-25.675
		c2.632-2.555,5.405-5.875,4.582-9.45c-0.4-1.738-1.635-3.111-3.191-4.015C928.5,510.512,917.19,518.905,904.095,524.899z"/>
	<path fill="#3FAD80" d="M808.304,600.862c5.573-0.106,11.435-0.266,17.431-0.662c-1.78,3.264-3.519,6.549-5.225,9.853
		c-4.424-2.334-8.689-4.776-12.725-7.338C807.964,602.099,808.131,601.479,808.304,600.862z M762.855,385.085
		c-5.274,0.247-10.374,1.846-14.735,5.152c23.435-32.682,33.492-78.245,14.072-113.462c-6.592-11.955-17.249-21.446-29.524-27.637
		c0.196,0.336,0.409,0.655,0.6,0.994c12.304,21.756,15.053,46.542,16.072,65.704c2.413,45.482-6.176,81.329-25.546,106.749
		c16.01,9.533,27.5,27.262,30.279,47.707c1.758,12.94,0.075,26.872-4.736,40.681c3.148,10.345,10.455,20.249,17.959,28.516
		c0.018-4.686-0.117-9.38-0.431-14.072c-0.277-4.114-0.676-8.246-1.075-12.381c-1.406-14.535-2.86-29.564,0.81-44.493
		c2.732-11.121,9.81-12.813,12.727-13.025c3.584-0.268,10.293,0.873,14.663,11.401c1.38,3.329,2.663,6.644,3.899,9.952
		c12.11-43.46,18.384-88.774,18.639-134.011C795.342,351.768,776.733,366.668,762.855,385.085z M789.71,589.238
		c1.551,1.377,3.182,2.729,4.854,4.066c1.479-5.804,2.615-11.681,3.198-17.743c3.03-31.516-2.675-65.352-16.96-100.601
		c-2.249,11.583-1.072,23.767,0.17,36.61c0.414,4.284,0.825,8.565,1.111,12.828c1.209,18.041,0.096,36.099-3.196,53.744
		C782.33,582.157,785.935,585.887,789.71,589.238z M765.197,559.193c0.295,0.482,0.581,0.974,0.881,1.452
		c0.02-0.181,0.043-0.361,0.063-0.542C765.829,559.803,765.515,559.5,765.197,559.193z M788.182,258.251
		c-8.653,26.344,4.96,57.031,28.247,71.225c-0.343-16.569-1.457-33.103-3.432-49.499c-0.503-4.183,2.479-7.981,6.661-8.484
		c4.189-0.483,7.978,2.479,8.484,6.661c2.303,19.13,3.498,38.439,3.647,57.78c1.206,0.297,2.423,0.565,3.657,0.775
		c-1.228,0.286-2.444,0.611-3.66,0.937c0.241,54.619-8.013,109.47-24.531,161.306c-0.308,0.968-0.808,1.815-1.419,2.55
		c4.201,15.583,6.728,30.877,7.599,45.817c20.515-10.972,36.296-30.364,42.684-52.773c1.156-4.049,5.362-6.405,9.426-5.243
		c4.052,1.156,6.399,5.374,5.243,9.426c-8.055,28.251-28.802,52.438-55.494,64.7c-0.509,0.233-1.031,0.404-1.556,0.52
		c-0.115,4.393-0.379,8.752-0.795,13.073c-0.277,2.879-0.69,5.706-1.164,8.508c7.612-0.182,15.447-0.536,23.177-1.492
		c8.141-13.68,16.92-26.981,26.347-39.808c7.254-9.87,15.728-17.874,25.181-24.502c0.074-0.512,0.191-1.021,0.37-1.516
		c0.766-2.103,2.416-3.763,4.51-4.543c18.14-6.739,32.889-18.467,41.525-33.023c9.298-15.661,11.079-34.834,4.647-50.043
		c-6.59-15.584-22.608-26.719-38.293-26.719c-0.289,0-0.578,0.012-0.864,0.009c-2.773,0-5.333-1.504-6.676-3.938
		c-1.37-2.482-1.251-5.52,0.31-7.886c32.457-49.235,44.257-110.601,32.38-168.363c-4.85-23.583-13.549-44.991-25.298-62.777
		c-14.999,17.385-24.902,38.489-26.331,62.172C841.81,207.544,798.993,225.338,788.182,258.251z M1099.318,324.583
		c-6.862-21.708-27.933-39.79-50.62-37.884c19.069-18.467,33.738-41.449,42.458-66.522c8.699-25.013,10.901-54.507-3.85-76.501
		c-12.045-17.958-33.388-27.73-54.667-31.577c-41.386-7.482-89.994,7.835-122.699,37.711c13.765,19.957,23.907,44.141,29.395,70.821
		c11.866,57.696,1.609,118.755-28.12,169.438c17.395,4.189,33.008,17.174,40.372,34.593c8.282,19.587,6.143,44.022-5.58,63.767
		c-2.511,4.23-5.469,8.234-8.761,12.021c1.556,0.905,2.791,2.277,3.191,4.015c0.823,3.575-1.95,6.895-4.582,9.45
		c-9.396,9.12-19.753,17.287-29.893,25.675c-0.802,18.855-13.262,37.494-29.722,47.241c-4.74,2.807-9.713,5.013-14.805,6.794
		c-3.775,9.604-6.447,20-8.121,30.418c42.237,14.255,91.073,17.737,125.544,2.074c29.205-13.27,51.833-41.893,54.453-73.863
		s-16.936-65.46-47.3-75.804c45.676-10.609,85.75-43.098,105.576-85.592C1101.214,370.226,1106.181,346.29,1099.318,324.583z
		 M881.73,561.81c-1.35,1.451-2.626,2.975-3.916,4.486C879.204,564.881,880.517,563.384,881.73,561.81z M757.563,551.433
		c-5.924-6.362-11.95-13.789-16.617-21.947c-0.706,1.252-1.435,2.499-2.193,3.739c-7.511,12.285-16.639,21.925-26.6,28.445
		c1.563,1.69,3.238,3.253,5.014,4.616c3.947,3.028,8.215,5.323,12.607,7.069c3.484-2.118,6.887-4.396,10.2-6.824
		C746.169,561.993,752.051,556.936,757.563,551.433z M464.075,169.554c16.593-33.369,52.17-56.752,88.523-58.187
		c37.072-1.504,74.215,20.18,90.391,52.631c5.91,11.851,9.765,26.106,11.452,42.363c0.406,3.923,1.157,10.66,5.675,15.358
		c1.395,12.294,1.576,24.168,0.411,35.17c12.149-12.878,29.539-17.381,46.859-15.391c4.806,4.529,9.103,9.954,12.606,16.145
		c10.74,18.992,13.185,41.508,14.118,59.004c2.443,46.08-7.01,80.864-28.096,103.377c-1.764,1.88-2.455,4.522-1.844,7.025
		c0.614,2.502,2.449,4.528,4.88,5.383c15.378,5.41,27.399,21.452,29.907,39.917c2.246,16.51-2.449,35.305-13.218,52.923
		c-5.251,8.584-19.481,28.285-40.129,30.515c-4.135-6.217-8.328-12.313-12.44-18.286c-3.542-5.145-7.043-10.227-10.412-15.256
		c-7.414-11.059-15.408-23.012-22.832-35.657c30.576-55.404,41.555-120.109,30.849-182.511c-0.712-4.153-4.63-6.932-8.806-6.226
		c-4.15,0.712-6.938,4.653-6.226,8.806c9.57,55.793,0.829,113.544-24.596,163.958c-11.171-21.847-19.454-45.408-19.474-69.915
		l0.012-1.594c0.152-16.084-1.171-26.973-8.225-31.575c-3.432-2.24-7.567-2.464-11.639-0.623
		c-5.964,2.693-12.59,10.108-16.486,44.668c-1.157,10.27-1.099,20.967,0.117,31.903c-42.569-20.272-74.74-62.066-82.858-108.543
		c-0.721-4.144-4.668-6.923-8.827-6.199c-4.147,0.724-6.923,4.677-6.199,8.827c9.441,54.038,48.342,102.388,99.108,123.179
		c0.57,0.234,1.154,0.371,1.739,0.461c2.607,11.802,6.487,23.762,11.649,35.67c11.413,26.317,27.39,50.284,42.842,73.461
		l0.349,0.524c2.11,3.165,4.722,7.27,7.553,12.128c-1.468,1.557-2.912,2.998-4.349,4.377c-1.802-0.508-3.604-1.046-5.409-1.649
		c-7.143-2.385-14.309-5.52-21.452-9.467c-9.187-5.077-17.378-12-24.243-20.084c-0.014,0.071-0.026,0.144-0.041,0.215
		c-2.078,10.085-4.925,19.856-8.079,28.819c-0.798,2.268-1.67,4.514-2.604,6.737c-6.386-4.901-11.652-10.748-12.195-14.659
		c-0.334-2.398-1.784-4.495-3.914-5.651c-2.127-1.162-4.68-1.236-6.87-0.209c-13.302,6.214-29.868,6.363-45.437,0.402
		c-13.787-5.276-27.074-15.396-38.415-29.264c-14.886-18.202-24.947-46.456-11.857-65.468c1.385-2.014,1.722-4.567,0.906-6.87
		c-0.813-2.303-2.681-4.075-5.026-4.77c-17.469-5.169-32.806-18.622-42.077-36.917c-8.243-16.26-11.773-36.318-10.206-58.009
		c1.51-20.9,7.533-39.375,17.389-53.511c11.511-1.718,23.304-1.57,34.809,0.363c5.955-5.884,13.335-10.202,21.547-11.563
		c-5.866-5.363-11.654-10.857-17.268-16.52c2.228-0.528,4.47-0.922,6.716-1.156c2.58-0.268,4.844-1.829,6.015-4.141
		c1.171-2.315,1.087-5.064-0.226-7.302C449.546,244.332,447.8,202.279,464.075,169.554z M573.39,462.753
		c-0.096,0.15-0.266,0.278-0.387,0.42c-0.858,1.011-2.257,1.857-4.12,2.539c-1.306,0.477-2.828,0.875-4.466,1.217
		c1.08,0.781,2.13,1.606,3.154,2.475c0.503,0.427,1.016,0.84,1.504,1.287c1.167-2.56,2.511-5.064,4.051-7.496
		C573.217,463.05,573.296,462.899,573.39,462.753z M443.017,181.728c1.935-6.537,4.384-12.896,7.402-18.966
		c19.298-38.806,59.171-64.962,101.578-66.636c24.345-0.977,48.777,6.763,68.786,20.535C593.064,75.785,552.79,46.3,505.197,50.376
		c-33.69,2.886-64.37,23.903-83.101,52.054c-10.966,16.48-18.402,33.02-21.998,49.824c3.102,1.529,6.223,3.184,9.364,4.987
		C421.45,164.126,432.69,172.336,443.017,181.728z M688.68,589.537c-8.382-14.762-18.284-29.163-28.075-43.388
		c-3.578-5.198-7.111-10.331-10.513-15.411c-23.895-35.636-53.632-79.988-53.671-130.025l0.012-1.752
		c0.06-6.265-0.164-10.537-0.5-13.448c-1.63,4.445-3.739,12.697-5.44,27.774c-2.705,23.996,1.984,50.805,13.567,77.522
		c10.865,25.06,26.457,48.449,41.537,71.066l0.349,0.524c4.319,6.478,10.578,16.61,16.719,29.146
		C671.501,591.896,680.202,591.194,688.68,589.537z M412.476,231.937c8.479,16.405,19.52,31.235,31.872,45.001
		c1.994-0.732,4.004-1.397,6.032-1.947c-11.14-23.452-14.903-50.35-11.178-75.786c-11.221-11.265-23.754-20.935-37.336-28.735
		c-1.342-0.77-2.663-1.436-3.993-2.15C396.568,188.908,401.13,209.984,412.476,231.937z M713.088,581.971
		c-1.767-1.101-3.51-2.28-5.208-3.583c-3.621-2.78-6.932-6.127-9.836-9.805c-1.166,0.389-2.336,0.738-3.513,1.044
		c3.234,5.207,6.36,10.497,9.306,15.876c1.312-0.443,2.617-0.907,3.914-1.394C709.544,583.436,711.325,582.727,713.088,581.971z
		 M428.74,626.381c-26.597-4.633-51.559-18.598-69.299-38.957c-13.185-15.134-22.263-37.888-15.31-56.638
		c-35.314-11.839-66.883-35.728-87.639-66.6c-10.835-16.117-23.022-40.995-19.555-67.986c2.836-22.093,17.177-41.049,35.469-48.765
		c-11.636-15.321-18.67-36.366-20.946-62.766c-3.057-35.469,2.267-66.195,15.828-91.324c3.311-6.135,7.163-11.843,11.42-17.107
		c-17.609,5.678-33.059,18.182-41.73,34.568c-38.973-13.987-82.461-18.184-113.184,16.149
		c-18.202,20.349-24.497,48.734-25.937,75.981c-2.908,55.025,11.678,110.844,41.134,157.412
		c18.804,29.729,48.672,57.86,83.754,55.263c-15.515,6.84-24.165,24.784-23.489,41.727c0.677,16.942,9.243,32.734,20.257,45.626
		c24.447,28.616,68.432,44.975,100.534,25.33c9.884,28.434,40.967,44.102,70.691,48.864c22.266,3.567,45.177,2.373,67.07-3
		C441.388,663.085,430.169,645.295,428.74,626.381z M493.889,661.151c19.067-3.572,36.393-13.068,50.644-26.208
		c-7.851-12.862-14.212-27.271-18.596-43.595c-8.387-0.368-16.917-2.123-25.174-5.283c-16.266-6.226-31.748-17.931-44.77-33.851
		c-9.333-11.412-16.772-25.646-19.862-40.212c-0.633-0.145-1.259-0.361-1.862-0.679c-37.337-19.665-88.47-46.596-111.096-93.555
		c-1.829-3.792-0.235-8.353,3.56-10.18c3.795-1.838,8.353-0.235,10.18,3.56c17.984,37.323,54.7,60.167,97.807,83.147
		c0.362-5.983,1.604-11.857,4-17.431c-17.755-7.775-32.97-22.474-42.58-41.436c-9.494-18.729-13.579-41.552-11.812-66.005
		c1.255-17.38,5.373-33.371,11.99-47.152c-4.106,1.512-8.142,3.225-12.025,5.281c2.342-10.671,3.911-21.593,4.516-32.537
		c-8.087-11.815-14.828-23.957-19.892-38.711c-1.367-3.983,0.754-8.321,4.737-9.688c3.989-1.373,8.324,0.757,9.688,4.737
		c1.189,3.465,2.531,6.746,3.941,9.956c-1.297-8.361-3.305-16.599-6.186-24.595c-11.603-32.201-42.432-61.886-77.926-63.737
		c-8.861,7.392-16.592,16.744-22.458,27.612c-12.125,22.465-16.853,50.314-14.052,82.768c2.464,28.617,10.85,49.676,24.923,62.596
		c2.21,2.029,3.024,5.16,2.085,8.008c-0.938,2.848-3.459,4.88-6.441,5.196c-19.138,2.026-32.907,21.411-35.162,38.984
		c-2.863,22.289,7.71,43.59,17.085,57.535c20.508,30.503,52.614,53.519,88.086,63.148c2.437,0.664,4.388,2.488,5.21,4.877
		c0.825,2.389,0.411,5.029-1.102,7.051c-9.414,12.59-2.3,32.996,9.596,46.649c16.748,19.221,40.876,31.9,66.204,34.784
		c4.013,0.459,6.971,3.965,6.751,7.996c-1.102,20.092,14.11,40.334,34.738,47.473c5.616-2.149,11.113-4.59,16.472-7.311
		L493.889,661.151z M550.525,588.196c-2.932,0.935-5.965,1.602-9.038,2.131c3.509,12.081,8.295,23.018,14.059,33.028
		c4.562-5.489,8.655-11.387,12.219-17.583C560.835,600.941,554.309,594.79,550.525,588.196z"/>
	<path d="M825.909,692.589c-11.665-10.241-24.837-18.88-39.212-25.748c0.93-4.501,2.097-8.954,3.45-13.386
		c2.389-7.826,5.276-15.613,8.268-23.591c3.312-8.828,6.662-17.826,9.371-27.15c0.178-0.615,0.346-1.235,0.518-1.852
		c5.573-0.106,11.435-0.266,17.431-0.662c11.779-0.778,24.065-2.506,35.7-6.574c5.092-1.781,10.065-3.987,14.805-6.794
		c16.459-9.747,28.919-28.386,29.722-47.241c0.21-4.934-0.335-9.882-1.867-14.691c13.095-5.994,24.405-14.387,33.152-24.449
		c3.292-3.787,6.25-7.79,8.761-12.021c11.723-19.745,13.862-44.18,5.58-63.767c-7.364-17.419-22.978-30.405-40.372-34.593
		c29.728-50.683,39.985-111.742,28.12-169.438c-5.487-26.679-15.63-50.863-29.395-70.821c-7.375-10.693-15.772-20.193-25.09-28.168
		c-31.426-26.898-74.593-36.655-109.976-24.863c-37.146,12.387-62.823,48.601-61.494,84.862
		c-15.833,2.201-31.18,10.365-43.754,23.27c-0.005-0.045-0.01-0.077-0.015-0.123c-1.874-18.086-6.238-34.099-12.971-47.597
		c-8.086-16.223-20.707-30.102-35.858-40.531c-20.008-13.772-44.441-21.511-68.786-20.535
		c-42.407,1.674-82.279,27.831-101.578,66.636c-3.019,6.07-5.468,12.429-7.402,18.966c-10.326-9.392-21.567-17.602-33.554-24.486
		c-3.141-1.803-6.262-3.457-9.364-4.987c-19.805-9.762-38.794-13.951-56.53-12.465c-24.447,2.062-47.989,15.587-64.859,36.448
		c-4.257,5.263-8.109,10.972-11.42,17.107c-13.561,25.129-18.884,55.855-15.828,91.324c2.276,26.401,9.31,47.445,20.946,62.766
		c-18.292,7.716-32.633,26.672-35.469,48.765c-3.468,26.991,8.72,51.869,19.555,67.986c20.755,30.872,52.325,54.762,87.639,66.6
		c-6.953,18.75,2.124,41.505,15.31,56.638c17.74,20.359,42.702,34.325,69.299,38.957c1.428,18.914,12.648,36.704,29.068,47.777
		c6.797,4.584,14.463,8.045,22.73,9.913c5.133,1.159,10.418,1.725,15.762,1.725c22.659,0,46.319-10.144,63.517-27.962
		c0.248-0.257,0.443-0.542,0.648-0.822c9.141,10.936,19.278,20.739,29.864,29.847c-5.147,4.076-10.062,8.422-14.636,13.036
		c-29.154,29.43-47.604,68.038-52.593,108.068c-0.18,0.693-0.24,1.409-0.22,2.131c-1.362,12.103-1.551,24.317-0.366,36.441
		c4.859,49.727,32.752,97.908,76.524,132.185c11.991,9.387,25.43,16.418,38.424,23.216c3.789,1.984,7.579,3.965,11.326,6.003
		c2.362,1.284,4.7,2.609,7.016,3.962c6.904,4.031,13.522,8.406,19.4,13.377c12.593,10.648,21.79,24.016,23.039,42.577
		c0.42,6.22,0.262,12.801,0.098,19.766c-0.465,19.611-0.992,41.838,12.753,59.445c1.466,1.877,3.697,2.934,6.012,2.934
		c0.59,0,1.186-0.068,1.776-0.208c2.905-0.697,5.136-3.024,5.711-5.955l10.412-53.293c6.426-32.916,20.69-63.177,38.15-80.951
		c6.485-6.602,14.362-12.131,22.704-17.985c4.918-3.453,10.004-7.022,14.755-10.823c15.613-12.482,26.952-24.089,35.677-36.535
		c12.014-17.128,21.331-36.756,27.53-57.665c2.255-7.607,4.125-15.372,5.523-23.264
		C891.052,797.223,870.577,731.802,825.909,692.589z M721.733,196.291c2.213-0.015,4.311-0.989,5.747-2.672
		c1.439-1.683,2.073-3.909,1.743-6.095c-4.725-31.203,17.919-65.418,50.478-76.273c30.399-10.141,67.786-1.51,95.229,21.98
		c9.033,7.732,17.144,17.068,24.166,27.698c11.75,17.786,20.448,39.194,25.298,62.777c11.878,57.761,0.077,119.128-32.38,168.363
		c-1.561,2.365-1.68,5.404-0.31,7.886c1.344,2.434,3.903,3.938,6.676,3.938c0.286,0.003,0.575-0.009,0.864-0.009
		c15.685,0,31.703,11.136,38.293,26.719c6.432,15.208,4.65,34.382-4.647,50.043c-8.636,14.556-23.386,26.284-41.525,33.023
		c-2.094,0.781-3.745,2.44-4.51,4.543c-0.18,0.495-0.296,1.004-0.37,1.516c-0.24,1.663,0.064,3.375,0.909,4.862
		c6.631,11.662,2.851,26.173-5.664,37.22c-1.213,1.574-2.526,3.071-3.916,4.486c-2.835,2.885-5.984,5.419-9.346,7.41
		c-10.092,5.978-21.673,8.869-33.512,10.332c-7.729,0.956-15.565,1.31-23.177,1.492c0.474-2.803,0.887-5.629,1.164-8.508
		c0.416-4.322,0.68-8.68,0.795-13.073c0.525-0.116,1.046-0.287,1.556-0.52c26.693-12.262,47.439-36.449,55.494-64.7
		c1.156-4.052-1.192-8.27-5.243-9.426c-4.063-1.162-8.27,1.195-9.426,5.243c-6.388,22.409-22.169,41.801-42.684,52.773
		c-0.871-14.94-3.398-30.234-7.599-45.817c0.612-0.735,1.111-1.582,1.419-2.55c16.518-51.836,24.772-106.687,24.531-161.306
		c-0.002-0.571,0.007-1.142,0.003-1.712c-0.149-19.341-1.344-38.65-3.647-57.78c-0.506-4.183-4.296-7.144-8.484-6.661
		c-4.183,0.503-7.165,4.302-6.661,8.484c1.975,16.397,3.089,32.93,3.432,49.499c0.092,4.46,0.125,8.922,0.1,13.385
		c-0.255,45.237-6.529,90.551-18.639,134.011c-1.237-3.308-2.519-6.623-3.899-9.952c-4.37-10.528-11.079-11.669-14.663-11.401
		c-2.917,0.212-9.995,1.904-12.727,13.025c-3.67,14.928-2.216,29.958-0.81,44.493c0.399,4.135,0.798,8.267,1.075,12.381
		c0.314,4.692,0.449,9.386,0.431,14.072c-7.504-8.268-14.811-18.171-17.959-28.516c4.811-13.809,6.493-27.741,4.736-40.681
		c-2.779-20.445-14.27-38.174-30.279-47.707c19.37-25.421,27.959-61.268,25.546-106.749c-1.019-19.161-3.769-43.947-16.072-65.704
		c-0.192-0.339-0.404-0.659-0.6-0.994c-11.44-19.598-29.596-33.07-48.932-36.667C695.021,202.173,708.424,196.377,721.733,196.291z
		 M752.37,614.463c-1.875,4.574-3.903,9.092-6.122,13.53c-3.263,6.529-5.916,14.883-7.968,23.384
		c-4.47-0.856-8.599-1.505-13.006-1.966c-1.798-20.104-8.668-39.141-17.891-57.207c-1.148-2.249-2.33-4.483-3.545-6.702
		c-2.946-5.379-6.072-10.669-9.306-15.876c1.176-0.306,2.347-0.655,3.513-1.044c2.904,3.678,6.215,7.025,9.836,9.805
		c1.698,1.303,3.442,2.482,5.208,3.583c10.56,6.578,22.177,9.685,32.993,10.884c4.058,0.449,8.005,0.637,11.737,0.637
		c0.62,0,1.208-0.025,1.816-0.035C757.606,600.578,755.186,607.592,752.37,614.463z M763.391,578.081
		c-6.337,0.346-13.711,0.178-21.234-1.207c-4.139-0.762-8.314-1.9-12.385-3.518c-4.392-1.746-8.66-4.041-12.607-7.069
		c-1.776-1.363-3.451-2.926-5.014-4.616c9.961-6.521,19.09-16.16,26.6-28.445c0.758-1.24,1.487-2.487,2.193-3.739
		c4.667,8.158,10.693,15.585,16.617,21.947c2.613,2.806,5.194,5.395,7.635,7.759c0.318,0.308,0.631,0.61,0.943,0.91
		c-0.019,0.181-0.043,0.361-0.063,0.542C765.431,566.495,764.551,572.315,763.391,578.081z M552.599,111.367
		c37.072-1.504,74.215,20.18,90.391,52.631c5.91,11.851,9.765,26.106,11.452,42.363c0.406,3.923,1.157,10.66,5.675,15.358
		c0.858,0.892,1.804,1.736,2.961,2.445c3.864,2.365,8.008,2.493,11.034,2.589l0.882,0.03c11.512,0.454,22.954,5.822,32.393,14.715
		c4.806,4.529,9.103,9.954,12.606,16.145c10.74,18.992,13.185,41.508,14.118,59.004c2.443,46.08-7.01,80.864-28.096,103.377
		c-1.764,1.88-2.455,4.522-1.844,7.025c0.614,2.502,2.449,4.528,4.88,5.383c15.378,5.41,27.399,21.452,29.907,39.917
		c2.246,16.51-2.449,35.305-13.218,52.923c-5.251,8.584-19.481,28.285-40.129,30.515c-4.135-6.217-8.328-12.313-12.44-18.286
		c-3.542-5.145-7.043-10.227-10.412-15.256c-7.414-11.059-15.408-23.012-22.832-35.657c30.576-55.404,41.555-120.109,30.849-182.511
		c-0.712-4.153-4.63-6.932-8.806-6.226c-4.15,0.712-6.938,4.653-6.226,8.806c9.57,55.793,0.829,113.544-24.596,163.958
		c-11.171-21.847-19.454-45.408-19.474-69.915l0.012-1.594c0.152-16.084-1.171-26.973-8.225-31.575
		c-3.432-2.24-7.567-2.464-11.639-0.623c-5.964,2.693-12.59,10.108-16.486,44.668c-1.157,10.27-1.099,20.967,0.117,31.903
		c-42.569-20.272-74.74-62.066-82.858-108.543c-0.721-4.144-4.668-6.923-8.827-6.199c-4.147,0.724-6.923,4.677-6.199,8.827
		c9.441,54.038,48.342,102.388,99.108,123.179c0.57,0.234,1.154,0.371,1.739,0.461c2.607,11.802,6.487,23.762,11.649,35.67
		c11.413,26.317,27.39,50.284,42.842,73.461l0.349,0.524c2.11,3.165,4.722,7.27,7.553,12.128c-1.468,1.557-2.912,2.998-4.349,4.377
		c-1.154,1.107-2.306,2.161-3.455,3.149c-8.54,7.342-17.149,11.369-28.551,11.465c-4.013,0.034-8.359-0.397-13.188-1.364
		c-2.636-0.528-5.686-1.792-8.795-3.503c-0.51-0.381-1.05-0.709-1.628-0.949c-2.112-1.258-4.211-2.692-6.211-4.226
		c-6.386-4.901-11.652-10.748-12.195-14.659c-0.334-2.398-1.784-4.495-3.914-5.651c-2.127-1.162-4.68-1.236-6.87-0.209
		c-13.302,6.214-29.868,6.363-45.437,0.402c-13.787-5.276-27.074-15.396-38.415-29.264c-14.886-18.202-24.947-46.456-11.857-65.468
		c1.385-2.014,1.722-4.567,0.906-6.87c-0.813-2.303-2.681-4.075-5.026-4.77c-17.469-5.169-32.806-18.622-42.077-36.917
		c-8.243-16.26-11.773-36.318-10.206-58.009c1.51-20.9,7.533-39.375,17.389-53.511c0.116-0.166,0.217-0.349,0.334-0.515
		c9.843-13.882,23.971-23.698,38.754-27.205c2.228-0.528,4.47-0.922,6.716-1.156c2.58-0.268,4.844-1.829,6.015-4.141
		c1.171-2.315,1.087-5.064-0.226-7.302c-18.974-32.362-20.72-74.415-4.445-107.14C480.669,136.185,516.245,112.802,552.599,111.367z
		 M666.415,652.273c-12.972,2.575-25.503,6.453-37.375,11.564c-4.271-4.083-8.136-8.453-11.728-13.047
		c-7.748-9.906-14.263-20.828-20.96-32.089c-0.399-0.67-0.819-1.363-1.221-2.037c3.124,0.383,6.122,0.592,8.979,0.592
		c2.209,0,4.326-0.139,6.393-0.356c11.242-1.183,20.521-5.502,29.132-12.169c2.975-2.303,5.876-4.882,8.749-7.711
		c5.255,10.549,10.451,22.969,14.11,36.334C664.174,639.492,665.53,645.826,666.415,652.273z M548.842,647.241
		c-17.633,18.265-43.116,26.871-64.944,21.953c-1.793-0.405-3.542-0.942-5.266-1.539c-20.627-7.139-35.84-27.381-34.738-47.473
		c0.22-4.031-2.738-7.537-6.751-7.996c-25.328-2.884-49.456-15.563-66.204-34.784c-11.895-13.653-19.01-34.06-9.596-46.649
		c1.513-2.023,1.927-4.662,1.102-7.051c-0.822-2.389-2.774-4.212-5.21-4.877c-35.472-9.628-67.578-32.645-88.086-63.148
		c-9.375-13.945-19.948-35.246-17.085-57.535c2.255-17.574,16.024-36.959,35.162-38.984c2.982-0.316,5.502-2.348,6.441-5.196
		c0.938-2.848,0.125-5.979-2.085-8.008c-14.073-12.92-22.459-33.979-24.923-62.596c-2.8-32.454,1.927-60.303,14.052-82.768
		c5.865-10.868,13.597-20.22,22.458-27.612c12.314-10.273,26.825-16.734,41.679-17.989c16.251-1.361,34.075,3.162,53.023,13.33
		c1.331,0.714,2.652,1.38,3.993,2.15c13.582,7.801,26.115,17.471,37.336,28.735c-3.725,25.436,0.038,52.334,11.178,75.786
		c-2.028,0.55-4.038,1.216-6.032,1.947c-12.32,4.521-23.822,12.462-33.163,22.879c-9.648-12.625-17.773-24.547-23.903-38.506
		c-1.409-3.21-2.751-6.491-3.941-9.956c-1.364-3.98-5.699-6.11-9.688-4.737c-3.983,1.367-6.104,5.705-4.737,9.688
		c5.064,14.754,11.805,26.896,19.892,38.711c3.972,5.803,8.3,11.552,12.885,17.466c-1.942,3.121-3.74,6.381-5.376,9.79
		c-6.617,13.78-10.735,29.772-11.99,47.152c-1.767,24.452,2.318,47.275,11.812,66.005c9.611,18.962,24.825,33.661,42.58,41.436
		c-2.397,5.575-3.638,11.448-4,17.431c-43.107-22.98-79.823-45.824-97.807-83.147c-1.826-3.795-6.384-5.398-10.18-3.56
		c-3.795,1.826-5.389,6.387-3.56,10.18c22.626,46.959,73.759,73.89,111.096,93.555c0.603,0.318,1.228,0.534,1.862,0.679
		c3.089,14.566,10.528,28.8,19.862,40.212c13.022,15.92,28.504,27.625,44.77,33.851c8.258,3.16,16.787,4.916,25.174,5.283
		c4.383,16.323,10.745,30.733,18.596,43.595c2.216,3.631,4.576,7.111,7.006,10.515C550.552,645.846,549.626,646.429,548.842,647.241
		z M833.803,935.491c-7.871,11.225-18.265,21.831-32.713,33.381c-4.382,3.503-9.05,6.78-13.993,10.251
		c-8.535,5.991-17.362,12.187-24.822,19.781c-28.069,28.569-38.892,71.558-42.243,88.714l-5.562,28.483
		c-1.341-8.767-1.114-18.298-0.882-28.117c0.167-7.001,0.34-14.24-0.128-21.154c-1.639-24.367-13.961-41.336-29.755-54.27
		c-6.159-5.044-12.831-9.477-19.628-13.481c-2.661-1.568-5.335-3.09-8.003-4.54c-3.819-2.076-7.68-4.096-11.541-6.116
		c-12.959-6.78-25.203-13.185-36.095-21.715c-40.504-31.715-66.291-76.059-70.744-121.657c-0.495-5.067-0.681-10.154-0.681-15.24
		c13.317,12.431,30.931,20.115,49.318,20.892c0.11,0.003,0.217,0.006,0.328,0.006c1.159,0,2.249-0.285,3.238-0.753
		c2.478-1.173,4.253-3.622,4.376-6.552c0.176-4.209-3.089-7.763-7.299-7.942c-2.298-0.097-4.589-0.352-6.864-0.725
		c-16.638-2.73-32.278-12.637-41.679-26.601c1.956-14.491,5.86-28.758,11.517-42.378c3.647,6.892,9.404,13.263,16.896,18.398
		c0.239,0.164,0.487,0.305,0.728,0.466c20.868,13.951,46.147,15.715,72.388,16.354c0.063,0.003,0.125,0.003,0.188,0.003
		c4.126,0,7.519-3.292,7.62-7.442c0.104-4.209-3.226-7.707-7.436-7.808c-24.163-0.59-47.302-2.118-64.867-14.157
		c-1.952-1.338-3.926-2.95-5.774-4.767c-5.1-5.017-9.202-11.642-8.957-18.723c0.037-1.059-0.144-2.074-0.503-3.004
		c7.24-12.441,16.021-24.075,26.296-34.446c4.895-4.938,10.208-9.553,15.816-13.802c0.005,0.004,0.01,0.008,0.015,0.012
		c4.791,3.826,9.626,7.549,14.457,11.208c1.379,1.043,2.997,1.546,4.6,1.546c2.306,0,4.585-1.043,6.086-3.021
		c2.541-3.357,1.883-8.142-1.475-10.686c-5.596-4.238-11.186-8.582-16.706-13.058c-20.548-16.662-39.93-35.433-53.774-59.476
		c-5.764-10.011-10.55-20.948-14.059-33.028c3.073-0.529,6.106-1.196,9.038-2.131c3.784,6.594,10.31,12.745,17.24,17.577
		c1.538,1.072,3.092,2.071,4.644,3.002c3.768,5.889,7.364,11.895,10.832,17.726c8.947,15.039,18.104,30.428,30.746,43.827
		c5.804,6.151,12.34,11.885,19.932,16.97c1.305,0.873,2.78,1.29,4.239,1.29c2.458,0,4.871-1.186,6.342-3.381
		c2.289-3.417,1.431-7.995-1.863-10.393c8.034-3.001,16.359-5.414,24.91-7.208c0.029,3.311-0.072,6.631-0.357,9.951
		c-0.36,4.198,2.75,7.892,6.944,8.255c0.223,0.018,0.444,0.027,0.664,0.027c3.914,0,7.248-2.997,7.591-6.971
		c1.148-13.333-0.09-26.595-2.734-39.227c-3.734-17.837-10.284-34.403-16.99-48.095c-6.14-12.536-12.4-22.668-16.719-29.146
		l-0.349-0.524c-15.08-22.617-30.673-46.006-41.537-71.066c-11.583-26.716-16.272-53.525-13.567-77.522
		c1.701-15.077,3.81-23.329,5.44-27.774c0.337,2.911,0.56,7.183,0.5,13.448l-0.012,1.752c0.039,50.037,29.776,94.389,53.671,130.025
		c3.402,5.079,6.935,10.212,10.513,15.411c9.791,14.225,19.693,28.626,28.075,43.388c5.268,9.279,9.93,18.701,13.58,28.314
		c6.677,17.583,9.972,35.802,7.357,54.948c-0.572,4.171,2.35,8.017,6.524,8.586c4.162,0.602,8.017-2.351,8.586-6.524
		c0.462-3.38,0.755-6.73,0.906-10.053c3.18,0.384,6.283,0.885,9.633,1.525c-0.649,3.957-1.157,7.719-1.513,11.075
		c-0.444,4.189,2.592,7.945,6.78,8.389c4.201,0.42,7.945-2.592,8.389-6.78c0.547-5.176,1.434-11.039,2.608-16.93
		c0.01-0.042,0.029-0.079,0.038-0.122c0.013-0.058,0.008-0.116,0.019-0.174c1.979-9.851,4.767-19.741,8.14-26.626
		c0.055-0.113,0.108-0.237,0.164-0.349c8.984-17.972,15.338-37.067,18.995-56.673c3.292-17.645,4.405-35.703,3.196-53.744
		c-0.286-4.263-0.697-8.544-1.111-12.828c-1.242-12.843-2.419-25.027-0.17-36.61c14.285,35.249,19.99,69.085,16.96,100.601
		c-0.583,6.063-1.719,11.939-3.198,17.743c-2.66,10.438-6.466,20.635-10.431,31.203c-3.483,9.288-7.025,18.733-9.785,28.546
		c-1.511,5.371-2.752,10.865-3.656,16.49c-0.092,0.391-0.135,0.782-0.164,1.174c-0.648,4.295-1.13,8.654-1.276,13.133
		c-0.137,4.209,3.167,7.734,7.376,7.871c0.083,0.003,0.167,0.003,0.253,0.003c4.096,0,7.483-3.253,7.617-7.379
		c0.016-0.505,0.08-0.997,0.105-1.5c11.369,5.869,21.853,12.964,31.241,21.207c9.412,8.263,17.583,17.872,24.539,28.445
		c-0.833,4.213-5.436,8.051-9.519,10.217c-11.997,6.372-27.214,6.959-40.638,7.474c-4.209,0.161-7.489,3.706-7.328,7.912
		c0.158,4.111,3.539,7.334,7.615,7.334c0.098,0,0.2-0.003,0.298-0.006c15.062-0.578,32.129-1.236,47.207-9.244
		c4.49-2.381,8.213-5.31,11.09-8.583c12.292,24.347,18.629,52.638,18.141,82.142c-1.277,0.162-2.533,0.617-3.634,1.448
		c-20.684,15.628-47.353,23.168-73.151,20.723c-4.236-0.414-7.918,2.672-8.315,6.867c-0.402,4.195,2.675,7.915,6.867,8.315
		c3.676,0.352,7.364,0.524,11.052,0.524c23.271,0,46.537-6.898,66.044-19.59c-0.468,4.201-1.041,8.411-1.788,12.628
		c-3.1,17.511-8.55,34.381-16.007,49.912C844.102,919.35,839.262,927.71,833.803,935.491z"/>
</g>
</svg>
