<?xml version="1.0" encoding="utf-8"?>
<!-- Generator: Adobe Illustrator 23.0.3, SVG Export Plug-In . SVG Version: 6.00 Build 0)  -->
<svg version="1.1" id="Capa_1" xmlns="http://www.w3.org/2000/svg" xmlns:xlink="http://www.w3.org/1999/xlink" x="0px" y="0px"
	 viewBox="0 0 1200 1200" enable-background="new 0 0 1200 1200" xml:space="preserve">
<g>
	<path fill="#88D87C" d="M813.281,751.43c-48.896,66.048-97.79,132.096-146.685,198.143c-5.843-11.961-7.217-29.014-7.004-43.804
		c0.23-16.074,0.467-32.24,0.744-48.462c1.433,0.22,2.89,0.361,4.371,0.361c2.083,0,4.203-0.226,6.311-0.694
		c9.331-2.066,16.52-7.817,22.902-13.726c32.229-29.841,55.006-67.67,77.034-104.249c4.675-7.77,9.386-15.52,14.156-23.22
		c3.373,0.675,6.773,1.155,10.187,1.522C797.458,729.936,804.832,741.368,813.281,751.43z M422.026,1012.499
		c39.905,35.294,77.463,74.856,136.522,51.49c32.038-12.675,54.2-41.68,74.699-69.37c6.549-8.847,13.099-17.695,19.649-26.542
		c-8.787-11.885-15.17-31.261-14.72-62.616c0.638-44.411,1.288-89.479,2.873-134.733c-9.943,6.119-20.797,10.669-32.99,12.963
		c-18.161-21.485-14.414-53.493-7.572-80.78c10.67-42.559,26.499-83.801,46.874-122.659c-2.763-1.182-5.512-2.446-8.231-3.868
		c-6.436-3.364-62.753-48.018-51.515-57.012c-23.553,18.85-52.183,30.412-81.961,34.728c0.046,14.655,0.112,29.304-0.226,43.857
		c4.502,0.904,8.122,3.3,10.64,4.976c1.522,1.012,2.961,1.966,4.408,2.622c7.16,3.241,14.964,4.571,22.585,3.852
		c11.932-1.142,23.442-7.474,30.786-16.947c3.63-4.667,10.351-5.521,15.023-1.899c4.672,3.626,5.521,10.351,1.899,15.023
		c-10.899,14.048-27.971,23.446-45.671,25.136c-11.33,1.1-22.894-0.874-33.454-5.659c-0.57-0.258-1.02-0.547-1.551-0.819
		c-14.564,124.99-8.903,241.099,17.778,364.062c1.058,4.885-1.401,9.854-5.931,11.97c-4.525,2.125-9.925,0.816-12.986-3.128
		c-38.143-49.075-85.374-104.211-146.452-141.032c-1.861-1.125-3.731-2.225-5.609-3.308c-19.596-11.292-35.115-20.222-49.921-26.414
		c8.095,18.597,14.42,38.132,22.266,56.88c0.227,0.542,0.475,1.074,0.704,1.614c27.954,21.219,53.062,63.973,63.731,99.566
		C402.598,994.315,412.064,1003.687,422.026,1012.499z M666.379,836.071c4.12-0.916,8.172-4.074,12.994-8.536
		c20.045-18.561,36.053-40.333,51.116-63.73c-15.631-6.674-27.445-21.487-30.69-38.139c-3.308-0.449-6.616-1.344-9.855-2.514
		c-8.525,10.915-17.299,21.27-26.807,30.308c-1.114,27.212-1.841,54.393-2.387,81.441
		C661.439,835.713,663.851,836.636,666.379,836.071z M372.654,520.987c-9.021,13.028-21.47,27.051-35.918,39.572
		c0.698,1.63,1.386,3.255,2.077,4.881c15.039,1.025,30.309-1.51,43.992-7.9c3.685-1.723,8.013-1.209,11.196,1.317
		c3.179,2.526,4.655,6.633,3.81,10.602c-2.112,9.95,2.597,21.978,11.719,29.937c5.061,4.417,10.985,7.434,16.909,9.535
		c-3.691-21.124-6.637-42.469-10.764-64.155C400.276,539.039,385.717,531.123,372.654,520.987z M343.645,768.281
		c-12.638-11.637-26.4-21.914-41.885-29.237c-24.933-11.792-55.093-15.06-79.987-3.162c-26.485,12.671,17.243,17.839,25.172,21.304
		c18.093,7.908,33.237,22.553,44.006,38.885c0.654,0.991,1.212,2.032,1.841,3.035c19.791,5.114,39.018,14.821,63.535,28.706
		C352.947,809.871,348.829,789.424,343.645,768.281z M707.177,704.37c3.266-0.782,6.729,0.025,9.318,2.175
		c2.593,2.154,4.019,5.395,3.856,8.762c-0.643,13.182,9.065,26.41,21.775,29.928c3.488-5.705,6.97-11.454,10.479-17.281
		c3.827-6.356,7.704-12.672,11.579-18.99c-14.883-7.157-28.948-19.856-35.326-36.428c-8.599,10.297-16.72,21.196-24.797,32.017
		C705.193,704.612,706.263,704.587,707.177,704.37z M364.149,670.484c-0.813,23.649,4.899,46.68,9.548,69.679
		c1.628,8.049,14.691,57.834,3.277,57.764c-1.863-0.011-3.559-0.646-5.13-1.603c3.22,15.391,6.156,30.798,8.927,45.946
		c46.682,29.659,85.135,68.878,117.645,107.623c-12.952-71.998-18.709-142.254-17.429-213.917c-0.302,0.008-0.628,0.033-0.919,0.033
		c-1.882,0-3.488-0.159-4.613-0.448c-16.629-4.249-25.102-19.481-31.192-33.822l-2.744-6.458
		c-10.772-25.309-16.503-38.781-23.905-66.797c-8.473-3.211-15.968-7.541-22.167-12.952c-10.109-8.825-16.721-20.694-18.825-32.873
		c-9.431,2.732-19.23,4.126-29.062,4.315C357.784,613.657,365.176,640.584,364.149,670.484z"/>
	<path fill="#3FAD80" d="M835.724,739.955c-5.228,6.525-9.759,12.607-14.987,19.848c-1.555-1.648-3.086-3.316-4.581-5.006
		c-0.971-1.099-1.924-2.234-2.875-3.367c-8.448-10.062-15.823-21.493-17.984-34.128c10.726,1.155,21.596,0.97,32.302,0.146
		C828.669,725.329,831.511,732.981,835.724,739.955z M852.626,353.151c-0.093-4.337-0.518-8.645-1.184-12.901
		c23.87-7.887,53.457,1.158,72.94,22.675c17.574,19.406,27.812,48.578,28.82,82.149c0.163,5.458,4.412,9.92,9.858,10.351
		c30.033,2.376,58.335,18.477,75.717,43.078c17.382,24.605,23.107,56.662,15.312,85.763l-0.268,0.987
		c-1.397,5.157-3.312,12.221-0.87,19.615c1.769,5.353,5.178,9.025,7.921,11.978l1.351,1.476
		c15.813,17.75,12.731,45.813,4.575,66.156c-9.711,24.228-26.733,43.425-46.696,52.668c-21.92,10.138-47.821,7.829-64.483-5.747
		c-4.036-3.292-9.87-3.191-13.797,0.23c-17.829,15.537-40.681,22.396-59.632,17.917c-20.288-4.801-35.612-24.303-33.463-42.584
		c0.376-3.237-0.736-6.47-3.028-8.787c-2.296-2.317-5.487-3.459-8.758-3.107c-23.199,2.497-42.145,2.861-59.138-3.509
		c-14.423-5.41-29.966-18.959-31.033-36.207c11.796-9.096,23.723-21.85,35.696-38.25l0.527-0.724
		c1.635-2.254,3.183-4.379,4.617-5.37c1.987-1.368,5.613-1.878,9.456-2.422l1.2-0.172c38.896-5.629,69.853-24.743,84.93-52.442
		c13.229-24.291,13.973-55.361,1.995-83.124c-9.368-21.71-25.872-40.899-47.975-55.888c1.179-3.718,2.497-7.591,3.856-11.593
		C846.662,388.926,852.99,370.29,852.626,353.151z M1003.382,619.368c-3.605,4.684-2.727,11.409,1.961,15.01
		c2.12,1.635,3.028,5.332,1.907,7.758c-1.129,2.426-4.563,4.128-7.148,3.559c-5.809-1.263-11.476,2.422-12.731,8.197
		c-1.25,5.78,2.422,11.48,8.197,12.731c1.849,0.402,3.718,0.594,5.579,0.594c10.623,0,20.987-6.282,25.529-16.077
		c5.328-11.506,1.769-26.01-8.285-33.735C1013.708,613.802,1006.983,614.684,1003.382,619.368z M917.866,482.33
		c0.46,5.897,5.617,10.385,11.506,9.841c5.094-0.406,10.498,1.966,13.68,6.035c3.17,4.061,4.166,9.841,2.526,14.726
		c-1.313,3.927-0.247,8.26,2.739,11.125c2.995,2.869,7.365,3.756,11.23,2.279c7.562-2.89,14.103-3.781,19.456-2.672
		c5.194,1.083,9.603,4.571,10.719,8.486c1.343,4.705,5.629,7.775,10.293,7.775c0.97,0,1.957-0.134,2.94-0.414
		c5.684-1.623,8.979-7.545,7.361-13.233c-3.308-11.606-13.889-20.861-26.951-23.576c-5.031-1.05-10.393-1.184-16.039-0.422
		c-0.962-6.232-3.467-12.221-7.398-17.252c-7.583-9.72-19.9-15.186-32.221-14.203C921.81,471.285,917.406,476.437,917.866,482.33z
		 M889.614,593.668c-14.362,1.029-27.068,12.505-29.548,26.692c-1.016,5.826,2.877,11.372,8.703,12.392
		c0.623,0.109,1.246,0.159,1.857,0.159c5.102,0,9.624-3.66,10.535-8.862c0.795-4.559,5.37-8.691,9.992-9.025
		c4.663-0.243,9.732,3.107,11.171,7.507c1.844,5.617,7.875,8.67,13.509,6.842c5.617-1.84,8.682-7.888,6.842-13.509
		C918.192,602.179,904.047,592.572,889.614,593.668z M101.579,497.016c9.926-24.922,28.357-46.669,51.935-58.801
		c3.162-1.623,5.307-4.713,5.734-8.239c0.422-3.53-0.933-7.039-3.614-9.368c-21.736-18.854-26.742-56.231-11.163-83.32
		c14.893-25.893,46.123-42.856,79.564-43.212c5.416-0.059,9.933-4.149,10.531-9.532c4.693-42.492,43.538-74.157,90.652-74.157
		c0.481,0,0.966,0.004,1.447,0.013c17.976,0.246,40.727,4.442,57.637,20.594c-26.425,0.912-52.043,11.066-70.305,29.635
		c-29.289,29.782-34.157,79.104-13.475,113.073c-32.714,14.462-58.072,45.182-65.119,80.367c-8.047,40.2,8.21,84.224,40.451,109.543
		c9.812,7.706,20.97,13.519,32.773,17.45c-33.273,19.865-71.358,27.222-102.503,0.94c-12.157-10.259-20.951-23.941-26.398-38.94
		c4.922-0.821,10.325-0.257,14.657,0.592c4.479,0.866,9.034-1.179,11.326-5.136c2.292-3.952,1.823-8.921-1.167-12.375
		c-3.534-4.086-4.446-10.606-2.166-15.504c2.254-4.847,7.737-8.323,13.082-8.323c0.117,0.004,0.226,0.008,0.335,0.004
		c5.839,0,10.619-4.693,10.703-10.552c0.084-5.914-4.642-10.774-10.552-10.861c-0.163,0-0.326-0.004-0.489-0.004
		c-13.689,0-26.704,8.268-32.492,20.698c-2.89,6.211-3.823,13.132-2.936,19.812c-1.906,0.163-3.747,0.435-5.532,0.802
		c-0.312-2.041-0.656-4.079-0.853-6.128C147.105,519.261,122.088,511.397,101.579,497.016z M178.641,371.733
		c0.732,5.374,5.324,9.268,10.598,9.268c0.477,0,0.962-0.029,1.451-0.096c5.859-0.795,9.966-6.19,9.172-12.049
		c-0.632-4.638,2.321-10,6.579-11.953c4.249-1.953,10.238-0.694,13.346,2.815c3.906,4.429,10.682,4.843,15.111,0.916
		c4.429-3.919,4.839-10.686,0.92-15.111c-9.373-10.581-25.487-13.977-38.306-8.084C184.68,343.322,176.742,357.743,178.641,371.733z
		 M964.527,760.273c-5.372-1.84-10.511-4.208-15.264-7.163c-16.855,12.522-36.219,19.234-54.91,19.239
		c-5.792,0-11.518-0.648-17.089-1.966c-10.28-2.431-19.59-7.355-27.343-13.882c-4.15,5.298-7.95,10.453-12.519,16.793
		c-0.292,0.405-0.56,0.825-0.851,1.23c7.677,6.154,16.006,11.394,25.121,15.083c8.409,3.404,17.347,5.22,26.366,5.615
		c1.894-1.15,4.12-2.234,6.862-2.77c3.685-0.728,6.905-0.188,9.255,0.205c1.933,0.318,3.88,0.517,5.826,0.727
		c8.227-1.73,16.216-4.582,23.599-8.507C946.77,777.865,954.474,767.54,964.527,760.273z M1146.897,574.114
		c-7.883-36.353-33.887-71.371-70.447-78.231c22.255-33.683,25.923-78.861,9.392-115.692
		c-16.532-36.831-52.724-64.119-92.683-69.877c-2.473-49.312-28.559-96.914-68.792-125.534
		c-40.234-28.62-93.759-37.648-141.153-23.809c-15.709-49.141-67.808-81.193-119.384-82.388
		c-45.974-1.065-105.62,19.759-132.967,58.693c-25.849-29.791-65.881-46.692-105.258-44.44
		c-39.378,2.252-77.221,23.609-99.505,56.152c-3.746,5.471-7.448,11.56-13.547,14.161c-15.059,6.422-41.858-12.896-58.259-14.966
		c-26.275-3.316-52.33,0.444-76.166,12.226c-48.371,23.911-79.782,78.467-76.176,132.305c0.598,8.921,1.914,18.554-2.662,26.235
		c-3.175,5.329-8.669,8.747-13.552,12.572c-53.108,41.602-41.456,109.764-1.371,150.79c10.314-22.502,26.622-42.266,47.293-56.045
		c-20.916-26.943-23.952-68.009-5.751-99.652c17.21-29.929,51.405-50.297,88.803-53.513c10.138-49.289,56.842-84.989,112.245-84.115
		c39.078,0.54,69.707,16.475,86.778,44.919c6.433,1.502,12.782,3.514,18.922,6.193l0.632-0.619
		c23.559-23.166,45.813-45.044,78.243-60.037c33.613-15.533,70.401-22.957,106.507-21.43c30.544,1.284,63.596,12.89,88.418,31.05
		c13.915,10.171,25.554,23.003,33.672,37.106c2.271,3.94,8.578,21.267,12.137,35.684c31.978-2.355,64.424,12.459,83.237,38.712
		c4.164,5.811,7.602,12.224,10.303,19.007c31.535-9.841,69.677,1.627,94.447,28.981c23.998,26.495,31.861,60.251,33.864,86.641
		c32.752,5.203,62.961,23.793,82.149,50.957c21.008,29.736,27.93,68.486,18.507,103.655l-0.284,1.054
		c-0.686,2.534-1.631,6.01-1.205,7.294c0.305,0.924,1.953,2.702,3.283,4.132c0.552,0.598,1.104,1.192,1.644,1.798
		c22.317,25.048,19.004,62.07,8.461,88.368c-7.333,18.29-17.924,33.946-30.874,46.013c22.396-8.236,42.904-20.911,58.992-40.214
		C1144.011,664.913,1156.289,617.439,1146.897,574.114z M336.736,560.56c-1.614,1.399-3.254,2.777-4.916,4.135
		c-15.485-2.222-30.417-8.24-42.741-17.919c-26.047-20.46-39.18-56.022-32.681-88.498c6.504-32.48,32.321-60.246,64.24-69.096
		c3.605-1,6.428-3.81,7.445-7.411c1.016-3.601,0.075-7.474-2.476-10.209c-23.099-24.764-21.355-70.48,3.655-95.917
		c24.446-24.851,67.666-30.514,100.543-13.174c4.107,2.171,9.155,1.43,12.48-1.815l6.014-5.905
		c23.162-22.773,43.166-42.438,72.216-55.867c30.539-14.12,63.964-20.87,96.62-19.473c26.478,1.112,55.144,11.184,76.683,26.934
		c11.518,8.423,21.112,18.971,27.674,30.368c1.74,3.379,9.941,26.252,11.677,38.54c0.41,2.907,1.995,5.516,4.387,7.219
		c2.388,1.706,5.362,2.363,8.252,1.794c26.721-5.161,56.44,6.658,72.287,28.77c8.143,11.368,12.806,25.776,13.124,40.573
		c0.28,13.367-5.161,29.381-10.422,44.868c-2.409,7.093-4.684,13.793-6.466,20.339c-1.255,4.605,0.694,9.486,4.776,11.961
		c15.207,9.235,35.608,25.5,46.424,50.56c9.251,21.443,8.816,46.118-1.138,64.399c-11.648,21.393-37.515,36.905-69.192,41.484
		l-1.138,0.163c-5.554,0.786-12.463,1.765-18.599,5.993c-4.458,3.07-7.419,7.143-9.795,10.414l-0.502,0.69
		c-14.782,20.248-29.699,34.466-43.155,41.377c-3.278-17.926-1.491-36.924,3.409-54.618c-17.723,0.644-35.23,0.247-52.179-3.098
		c-1.681-2.174-4.194-3.706-7.137-4.075c-2.051-0.274-4.028,0.093-5.779,0.899c-4.371-1.313-8.692-2.887-12.965-4.714
		c-2.763-1.182-5.512-2.446-8.231-3.868c-6.436-3.364-62.753-48.018-51.515-57.012c-23.553,18.85-52.183,30.412-81.961,34.728
		c-30.171,4.373-61.516,1.287-89.982-9.321c-15.398-5.738-29.958-13.654-43.02-23.79
		C363.633,534.016,351.184,548.039,336.736,560.56z M675.81,426.128c3.936,4.421,10.707,4.797,15.115,0.853
		c5.813-5.182,16.976-4.023,22.965,2.401c6.24,6.683,7.775,18.243,3.739,28.109c-1.552,3.793-0.799,8.143,1.936,11.196
		c2.735,3.053,6.98,4.279,10.916,3.153c11.715-3.342,25.709,2.091,31.196,12.112c5.45,9.946,1.769,24.337-7.57,29.615
		c-0.054,0.029-0.109,0.059-0.159,0.088c-5.153-0.046-9.887,3.647-10.765,8.963c-0.962,5.834,2.986,11.342,8.82,12.309
		c0.895,0.146,1.769,0.213,2.61,0.213c4.835,0,8.632-2.146,10.021-2.928c19.49-11.008,26.88-38.369,15.822-58.548
		c-7.733-14.12-23.078-23.066-39.297-24.145c0.857-12.94-3.204-25.742-11.614-34.751c-13.823-14.81-38.532-16.562-52.881-3.756
		C672.251,414.949,671.87,421.72,675.81,426.128z M442.323,353.168c0.661,0.121,1.317,0.18,1.97,0.18
		c5.056,0,9.557-3.597,10.514-8.749c2.459-13.216,13.191-25.081,26.098-28.854c12.915-3.777,28.339,0.448,37.524,10.263
		c2.451,2.614,6.031,3.856,9.573,3.241c3.53-0.586,6.533-2.898,8.005-6.165c5.721-12.702,15.404-21.736,25.901-24.17
		c9.398-2.171,22.049,2.468,24.885,11.966c1.685,5.667,7.649,8.883,13.321,7.198c5.667-1.69,8.887-7.654,7.198-13.321
		c-5.805-19.448-28.808-31.66-50.238-26.704c-13.124,3.045-25.173,11.836-33.868,24.345c-14.136-8.996-32.179-11.928-48.306-7.206
		c-20.673,6.039-37.206,24.32-41.146,45.491C432.675,346.497,436.51,352.084,442.323,353.168z M407.664,519.695
		c1.087,5.015,5.525,8.44,10.456,8.44c0.749,0,1.514-0.084,2.279-0.247c5.776-1.255,9.444-6.955,8.193-12.735
		c-0.866-3.99,3.48-9.373,8.168-12.94c4.613-3.505,11.895-7.796,20.385-8.323c6.859-0.439,13.501,1.974,17.457,6.244
		c3.032,3.283,7.788,4.316,11.924,2.631c4.136-1.698,6.78-5.788,6.633-10.255c-0.243-7.29,4.358-14.868,10.937-18.026
		c6.575-3.153,15.362-1.999,20.903,2.748c4.488,3.844,11.242,3.329,15.098-1.163c3.848-4.492,3.325-11.25-1.163-15.098
		c-12.062-10.335-29.786-12.66-44.107-5.793c-8.779,4.216-15.663,11.593-19.557,20.326c-6.018-2.342-12.672-3.388-19.448-2.986
		c-10.953,0.678-22.024,5.052-32.02,12.647C411.102,494.819,405.071,507.729,407.664,519.695z"/>
	<path d="M1086.673,692.45c10.544-26.298,13.856-63.32-8.461-88.368c-0.54-0.606-1.092-1.2-1.644-1.798
		c-1.33-1.43-2.978-3.208-3.283-4.132c-0.427-1.284,0.519-4.759,1.205-7.294l0.284-1.054c9.423-35.169,2.501-73.918-18.507-103.655
		c-19.188-27.164-49.397-45.755-82.149-50.957c-2.003-26.39-9.866-60.146-33.864-86.641c-24.77-27.354-62.913-38.822-94.447-28.981
		c-2.701-6.783-6.14-13.195-10.303-19.007c-18.812-26.252-51.259-41.066-83.237-38.712c-3.559-14.416-9.866-31.744-12.137-35.684
		c-8.118-14.103-19.757-26.934-33.672-37.106c-24.822-18.16-57.875-29.766-88.418-31.05c-36.106-1.527-72.894,5.897-106.507,21.43
		c-32.43,14.994-54.684,36.871-78.243,60.037l-0.632,0.619c-6.14-2.679-12.488-4.691-18.922-6.193
		c-17.071-28.444-47.7-44.379-86.778-44.919c-55.403-0.874-102.107,34.826-112.245,84.115
		c-37.398,3.216-71.593,23.584-88.803,53.513c-18.201,31.643-15.165,72.71,5.751,99.652c-20.671,13.779-36.98,33.543-47.293,56.045
		c-9.64,21.031-14.048,44.451-11.703,67.693c1.928,19.084,7.859,34.897,17.628,46.993c8.599,10.648,20.217,17.909,32.421,20.69
		c-3.538,17.578,1.865,37.649,15.203,53.007c12.501,14.387,31.112,24.902,56.9,32.141c14.985,4.207,31.865,6.851,48.933,6.851
		c26.238,0,52.889-6.291,73.748-22.732c10.964,25.591,19.449,54.012,26.146,81.327c5.184,21.144,9.303,41.591,12.683,59.532
		c-24.517-13.885-43.744-23.592-63.535-28.706c-26.993-6.976-55.053-5.407-99.096,5.86c-38.774,9.925-75.098,14.81-82.693,11.138
		c-4.793-2.321-10.59-0.757-13.563,3.685c-2.969,4.442-2.212,10.393,1.777,13.948c26.897,23.952,64.37,28.536,97.431,32.584
		l4.726,0.581c36.871,4.559,75.591,11.414,108.912,30.523c31.677,18.164,63.952,78.728,67.147,113.412l0.749,12.003
		c0.991,16.972,1.744,34.149,2.229,51.058c0.151,5.178,0.435,14.818,7.486,21.489c4.709,4.458,10.481,5.742,14.304,6.591
		c58.523,12.974,117.9,19.477,177.448,19.477c32.714,0,65.478-1.966,98.176-5.893c9.778-1.179,20.008-2.936,28.151-10.209
		c10.39-9.276,12.265-23.186,13.584-33.459c4.18-24.588,11.015-43.55,21.522-59.661c7.424-11.393,16.813-22.007,25.889-32.271
		l49.899-56.436c2.882-3.262,3.505-7.938,1.577-11.84c-1.928-3.898-5.947-6.278-10.368-5.931
		c-17.252,1.238-34.146,5.816-49.516,13.233c12.962-33.458,28.598-65.642,46.719-96.335c12.286,6.475,25.697,9.748,39.221,9.748
		c18.147,0,36.457-5.801,52.367-17.315l0.473-0.343c0.519-0.381,1.246-0.908,1.719-1.2c0.456,0.05,1.15,0.167,1.861,0.284
		c51.794,8.528,106.21-14.985,135.511-58.477c0.726-1.077,1.192-2.244,1.484-3.436c6.35-3.77,12.331-8.283,17.88-13.453
		C1068.748,726.396,1079.34,710.74,1086.673,692.45z M924.382,362.925c17.574,19.406,27.812,48.578,28.82,82.149
		c0.163,5.458,4.412,9.92,9.858,10.351c30.033,2.376,58.335,18.477,75.717,43.078c17.382,24.605,23.107,56.662,15.312,85.763
		l-0.268,0.987c-1.397,5.157-3.312,12.221-0.87,19.615c1.769,5.353,5.178,9.025,7.921,11.978l1.351,1.476
		c15.813,17.75,12.731,45.813,4.575,66.156c-9.711,24.228-26.733,43.425-46.696,52.668c-21.92,10.138-47.821,7.829-64.483-5.747
		c-4.036-3.292-9.87-3.191-13.797,0.23c-17.829,15.537-40.681,22.396-59.632,17.917c-20.288-4.801-35.612-24.303-33.463-42.584
		c0.376-3.237-0.736-6.47-3.028-8.787c-2.296-2.317-5.487-3.459-8.758-3.107c-23.199,2.497-42.145,2.861-59.138-3.509
		c-14.423-5.41-29.966-18.959-31.033-36.207c11.796-9.096,23.723-21.85,35.696-38.25l0.527-0.724
		c1.635-2.254,3.183-4.379,4.617-5.37c1.987-1.368,5.613-1.878,9.456-2.422l1.2-0.172c38.896-5.629,69.853-24.743,84.93-52.442
		c13.229-24.291,13.973-55.361,1.995-83.124c-9.368-21.71-25.872-40.899-47.975-55.888c1.179-3.718,2.497-7.591,3.856-11.593
		c5.588-16.441,11.915-35.077,11.552-52.216c-0.093-4.337-0.518-8.645-1.184-12.901
		C875.312,332.363,904.899,341.408,924.382,362.925z M820.737,759.803c-0.243,0.337-0.461,0.632-0.708,0.973
		c-39.121,54.309-69.907,114.279-91.558,178.248c-2.203,1.944-4.393,3.927-6.53,5.899c-15.742,14.525-26.298,23.032-40.217,18.85
		c-6.913-2.082-11.759-7.301-15.128-14.201c-5.843-11.961-7.217-29.014-7.004-43.804c0.23-16.074,0.467-32.24,0.744-48.462
		c1.433,0.22,2.89,0.361,4.371,0.361c2.083,0,4.203-0.226,6.311-0.694c9.331-2.066,16.52-7.817,22.902-13.726
		c32.229-29.841,55.006-67.67,77.034-104.249c4.675-7.77,9.386-15.52,14.156-23.22c3.373,0.675,6.773,1.155,10.187,1.522
		c10.726,1.155,21.596,0.97,32.302,0.146c1.071,7.881,3.913,15.534,8.125,22.508C830.496,746.48,825.964,752.562,820.737,759.803z
		 M728.858,672.536c6.378,16.572,20.443,29.271,35.326,36.428c-3.875,6.317-7.752,12.634-11.579,18.99
		c-3.509,5.827-6.991,11.576-10.479,17.281c-12.71-3.518-22.418-16.747-21.775-29.928c0.163-3.367-1.263-6.608-3.856-8.762
		c-2.589-2.15-6.052-2.957-9.318-2.175c-0.914,0.217-1.984,0.243-3.116,0.183c-6.025-0.317-14.633-4.323-20.907-10.07
		c-7.842-7.189-8.352-12.978-9.126-21.744c-0.029-0.331-0.073-0.662-0.102-0.993c6.188,0.887,12.381,1.353,18.509,1.353
		c7.223,0,14.358-0.619,21.284-1.861c4.434-0.796,8.902-2.177,13.396-4.09C727.608,668.984,728.183,670.784,728.858,672.536z
		 M665.458,707.046c1.001,1.073,2.054,2.148,3.229,3.225c5.69,5.214,13.236,9.984,21.258,12.882c3.238,1.17,6.546,2.065,9.855,2.514
		c3.244,16.652,15.058,31.465,30.69,38.139c-15.064,23.397-31.071,45.17-51.116,63.73c-4.822,4.463-8.875,7.62-12.994,8.536
		c-2.527,0.565-4.939-0.358-5.627-1.169c0.546-27.048,1.273-54.229,2.387-81.441C663.771,737.99,664.539,722.513,665.458,707.046z
		 M200.606,682.216c-21.936-6.156-36.717-14.278-46.52-25.567c-9.653-11.112-15.232-29.519-7.21-43.195
		c2.049-3.488,1.953-7.838-0.247-11.234c-2.2-3.4-6.165-5.249-10.146-4.826c-10.251,1.108-21.836-4.32-29.531-13.852
		c-7.11-8.804-11.48-20.811-12.982-35.688c-1.729-17.135,1.163-34.651,7.609-50.838c9.926-24.922,28.357-46.669,51.935-58.801
		c3.162-1.623,5.307-4.713,5.734-8.239c0.422-3.53-0.933-7.039-3.614-9.368c-21.736-18.854-26.742-56.231-11.163-83.32
		c14.893-25.893,46.123-42.856,79.564-43.212c5.416-0.059,9.933-4.149,10.531-9.532c4.693-42.492,43.538-74.157,90.652-74.157
		c0.481,0,0.966,0.004,1.447,0.013c17.976,0.246,40.727,4.442,57.637,20.594c-26.425,0.912-52.043,11.066-70.305,29.635
		c-29.289,29.782-34.157,79.104-13.475,113.073c-32.714,14.462-58.072,45.182-65.119,80.367c-8.047,40.2,8.21,84.224,40.451,109.543
		c9.812,7.706,20.97,13.519,32.773,17.45c12.51,4.166,25.745,6.165,38.934,5.912c9.832-0.189,19.631-1.583,29.062-4.315
		c2.104,12.179,8.716,24.048,18.825,32.873c6.199,5.41,13.694,9.741,22.167,12.952c7.402,28.016,13.134,41.488,23.905,66.797
		l2.744,6.458c6.089,14.341,14.563,29.573,31.192,33.822c1.125,0.289,2.731,0.448,4.613,0.448c0.291,0,0.617-0.025,0.919-0.033
		c-1.28,71.663,4.477,141.92,17.429,213.917c-32.509-38.745-70.962-77.964-117.645-107.623c-2.771-15.148-5.707-30.555-8.927-45.946
		c-15.86-75.806-38.654-151.062-82.988-191.318c-1.982-1.8-4.457-2.67-6.942-2.729c-8.529-3.152-19.098-2.204-30.181,2.946
		c-12.179,5.663-23.086,14.174-31.539,24.613c-3.722,4.596-3.015,11.338,1.581,15.056c1.982,1.606,4.366,2.388,6.729,2.388
		c3.12,0,6.215-1.355,8.327-3.969c6.416-7.917,14.688-14.375,23.927-18.67c6.462-2.999,12.522-3.626,15.081-1.552
		c0.75,0.607,1.568,1.053,2.409,1.427c11.374,11.356,21.229,25.907,29.795,42.365C280.075,692.42,234.82,691.824,200.606,682.216z
		 M481.579,714.552c-0.51,0.061-0.987,0.104-1.363,0.11c-7.294-2.271-12.296-12.007-16.244-21.292l-2.748-6.47
		c-1.322-3.106-2.552-6-3.72-8.765c3.616,0.72,7.195,1.111,10.797,1.111c4.988,0,10.045-0.737,15.314-2.105
		C482.733,689.671,482.041,702.141,481.579,714.552z M485.456,654.04c-14.294,5.545-24.2,4.871-38.437-2.363
		c-1.927-5.44-3.752-11.095-5.623-17.541c0.433,0.05,0.847,0.13,1.283,0.176c16.328,1.714,31.334-0.615,45.483-7.113
		C487.154,636.188,486.257,645.133,485.456,654.04z M750.928,965.777c-9.586,10.845-19.502,22.058-27.783,34.763
		c-12.179,18.674-20.033,40.247-24.718,67.883c-0.013,0.074-0.004,0.146-0.015,0.22c-0.01,0.071-0.039,0.135-0.048,0.207
		c-0.991,7.725-2.116,16.483-6.65,20.531c-3.517,3.137-9.787,4.12-16.449,4.918c-89.803,10.807-180.12,6.349-268.426-13.225
		c-1.079-0.243-3.618-0.803-4.141-1.15c-0.477-0.698-0.774-2.94-0.882-6.65c-0.494-17.11-1.251-34.5-2.258-51.727l-0.778-12.363
		c-0.691-7.507-2.458-15.902-5.107-24.735c-10.669-35.594-35.778-78.348-63.731-99.566c-2.975-2.258-5.978-4.302-9.004-6.036
		c-36.708-21.045-79.711-28.594-116.938-33.199l-4.751-0.581c-17.106-2.095-34.529-4.228-50.389-8.887
		c17.766-2.635,36.47-6.968,50.142-10.468c51.3-13.118,78.187-11.78,107.97,0.679c14.806,6.193,30.325,15.122,49.921,26.414
		c1.878,1.083,3.747,2.183,5.609,3.308c61.079,36.821,108.31,91.957,146.452,141.032c3.061,3.944,8.461,5.253,12.986,3.128
		c4.529-2.116,6.989-7.085,5.931-11.97c-26.681-122.963-32.342-239.072-17.778-364.062c0.53,0.272,0.981,0.561,1.551,0.819
		c10.56,4.785,22.125,6.759,33.454,5.659c17.7-1.69,34.772-11.087,45.671-25.136c3.622-4.672,2.773-11.397-1.899-15.023
		c-4.672-3.622-11.393-2.769-15.023,1.899c-7.344,9.473-18.854,15.805-30.786,16.947c-7.62,0.719-15.424-0.611-22.585-3.852
		c-1.447-0.657-2.886-1.61-4.408-2.622c-2.518-1.676-6.138-4.072-10.64-4.976c-4.373-0.878-9.579-0.348-15.433,3.646
		c-13.998,9.552-28.306,13.195-45.073,11.414c-5.39-0.567-11.938-1.761-18.486-4.083c-5.924-2.101-11.849-5.119-16.909-9.535
		c-9.122-7.959-13.831-19.987-11.719-29.937c0.845-3.969-0.632-8.076-3.81-10.602c-3.183-2.526-7.511-3.041-11.196-1.317
		c-13.682,6.39-28.953,8.925-43.992,7.9c-2.34-0.159-4.672-0.414-6.993-0.747c-15.485-2.222-30.417-8.24-42.741-17.919
		c-26.047-20.46-39.18-56.022-32.681-88.498c6.504-32.48,32.321-60.246,64.24-69.096c3.605-1,6.428-3.81,7.445-7.411
		c1.016-3.601,0.075-7.474-2.476-10.209c-23.099-24.764-21.355-70.48,3.655-95.917c24.446-24.851,67.666-30.514,100.543-13.174
		c4.107,2.171,9.155,1.43,12.48-1.815l6.014-5.905c23.162-22.773,43.166-42.438,72.216-55.867
		c30.539-14.12,63.964-20.87,96.62-19.473c26.478,1.112,55.144,11.184,76.683,26.934c11.518,8.423,21.112,18.971,27.674,30.368
		c1.74,3.379,9.941,26.252,11.677,38.54c0.41,2.907,1.995,5.516,4.387,7.219c2.388,1.706,5.362,2.363,8.252,1.794
		c26.721-5.161,56.44,6.658,72.287,28.77c8.143,11.368,12.806,25.776,13.124,40.573c0.28,13.367-5.161,29.381-10.422,44.868
		c-2.409,7.093-4.684,13.793-6.466,20.339c-1.255,4.605,0.694,9.486,4.776,11.961c15.207,9.235,35.608,25.5,46.424,50.56
		c9.251,21.443,8.816,46.118-1.138,64.399c-11.648,21.393-37.515,36.905-69.192,41.484l-1.138,0.163
		c-5.554,0.786-12.463,1.765-18.599,5.993c-4.458,3.07-7.419,7.143-9.795,10.414l-0.502,0.69
		c-14.782,20.248-29.699,34.466-43.155,41.377c-4.182,2.148-8.229,3.611-12.081,4.303c-12.826,2.317-26.59,1.974-40.202-0.891
		c1.598-17.811,3.455-35.574,5.668-53.249c0.367-2.924-0.485-5.718-2.156-7.878c-1.681-2.174-4.194-3.706-7.137-4.075
		c-2.051-0.274-4.028,0.093-5.779,0.899c-3.253,1.497-5.698,4.58-6.174,8.394c-7.357,58.747-11.031,118.217-13.103,177.368
		c-1.585,45.255-2.235,90.322-2.873,134.733c-0.451,31.355,5.933,50.731,14.72,62.616c6.795,9.19,15.027,13.904,22.654,16.2
		c26.616,8.022,45.638-9.519,60.911-23.613c3.275-3.024,6.37-5.876,9.385-8.365c9.916-8.172,21.405-14.575,33.73-18.917
		L750.928,965.777z M909.982,793.385c-1.946-0.21-3.893-0.409-5.826-0.727c-2.35-0.393-5.571-0.933-9.255-0.205
		c-2.743,0.536-4.969,1.62-6.862,2.77c-1.239,0.752-2.363,1.528-3.301,2.211l-0.422,0.305
		c-20.993,15.187-46.313,17.469-67.821,6.629c6.431-10.113,13.068-20.096,20.056-29.844c0.291-0.405,0.559-0.826,0.851-1.23
		c4.569-6.34,8.369-11.495,12.519-16.793c7.753,6.527,17.063,11.451,27.343,13.882c5.571,1.317,11.296,1.966,17.089,1.966
		c18.691-0.004,38.055-6.717,54.91-19.239c4.753,2.955,9.892,5.323,15.264,7.163c11.129,3.811,23.311,5.204,35.495,4.074
		C975.711,785.618,942.165,796.85,909.982,793.385z M433.754,340.683c3.94-21.171,20.472-39.452,41.146-45.491
		c16.127-4.722,34.17-1.79,48.306,7.206c8.695-12.509,20.744-21.301,33.868-24.345c21.43-4.956,44.433,7.256,50.238,26.704
		c1.69,5.667-1.531,11.631-7.198,13.321c-5.671,1.685-11.635-1.531-13.321-7.198c-2.836-9.498-15.487-14.136-24.885-11.966
		c-10.498,2.434-20.18,11.468-25.901,24.17c-1.472,3.266-4.475,5.579-8.005,6.165c-3.542,0.615-7.122-0.627-9.573-3.241
		c-9.184-9.816-24.609-14.04-37.524-10.263c-12.907,3.772-23.638,15.638-26.098,28.854c-0.958,5.153-5.458,8.749-10.514,8.749
		c-0.652,0-1.309-0.059-1.97-0.18C436.51,352.084,432.675,346.497,433.754,340.683z M675.81,426.128
		c-3.94-4.408-3.559-11.179,0.853-15.115c14.35-12.806,39.059-11.054,52.881,3.756c8.411,9.009,12.472,21.811,11.614,34.751
		c16.219,1.079,31.564,10.025,39.297,24.145c11.058,20.18,3.668,47.54-15.822,58.548c-1.388,0.782-5.186,2.928-10.021,2.928
		c-0.841,0-1.715-0.067-2.61-0.213c-5.834-0.966-9.782-6.474-8.82-12.309c0.878-5.316,5.613-9.009,10.765-8.963
		c0.05-0.029,0.105-0.059,0.159-0.088c9.339-5.278,13.02-19.669,7.57-29.615c-5.487-10.021-19.481-15.454-31.196-12.112
		c-3.936,1.125-8.181-0.1-10.916-3.153c-2.735-3.053-3.488-7.403-1.936-11.196c4.036-9.866,2.501-21.426-3.739-28.109
		c-5.989-6.424-17.152-7.583-22.965-2.401C686.516,430.925,679.745,430.549,675.81,426.128z M423.804,485.166
		c9.996-7.595,21.066-11.97,32.02-12.647c6.775-0.401,13.429,0.644,19.448,2.986c3.894-8.733,10.778-16.11,19.557-20.326
		c14.32-6.867,32.045-4.542,44.107,5.793c4.488,3.848,5.01,10.606,1.163,15.098c-3.856,4.492-10.611,5.006-15.098,1.163
		c-5.542-4.747-14.329-5.901-20.903-2.748c-6.579,3.158-11.179,10.736-10.937,18.026c0.146,4.467-2.497,8.557-6.633,10.255
		c-4.136,1.685-8.892,0.652-11.924-2.631c-3.956-4.27-10.598-6.683-17.457-6.244c-8.49,0.527-15.772,4.818-20.385,8.323
		c-4.688,3.568-9.034,8.95-8.168,12.94c1.251,5.78-2.417,11.48-8.193,12.735c-0.765,0.163-1.531,0.247-2.279,0.247
		c-4.931,0-9.368-3.425-10.456-8.44C405.071,507.729,411.102,494.819,423.804,485.166z M179.726,543.063
		c-2.643,0.441-5.155,1.263-7.271,2.696c-2.246,1.518-3.998,4.437-4.362,7.26c-0.142,1.112-0.125,2.647,0.761,3.66
		c3.898,4.446,3.455,11.213-0.991,15.111c-2.033,1.782-4.55,2.656-7.056,2.656c-2.978,0-5.939-1.234-8.055-3.647
		c-4.801-5.475-6.897-12.76-5.897-20.514c1.154-8.959,6.24-17.281,13.601-22.258c4.139-2.803,8.83-4.738,14.037-5.81
		c1.785-0.367,3.627-0.639,5.532-0.802c-0.887-6.679,0.046-13.601,2.936-19.812c5.788-12.43,18.804-20.698,32.492-20.698
		c0.163,0,0.326,0.004,0.489,0.004c5.91,0.088,10.636,4.948,10.552,10.861c-0.084,5.859-4.864,10.552-10.703,10.552
		c-0.109,0.004-0.217,0-0.335-0.004c-5.345,0-10.828,3.475-13.082,8.323c-2.279,4.898-1.368,11.418,2.166,15.504
		c2.99,3.455,3.459,8.423,1.167,12.375c-2.292,3.956-6.846,6.002-11.326,5.136C190.051,542.807,184.647,542.242,179.726,543.063z
		 M178.641,371.733c-1.899-13.99,6.039-28.411,18.871-34.295c12.819-5.893,28.933-2.497,38.306,8.084
		c3.919,4.425,3.509,11.192-0.92,15.111c-4.429,3.927-11.204,3.513-15.111-0.916c-3.107-3.509-9.097-4.768-13.346-2.815
		c-4.258,1.953-7.21,7.315-6.579,11.953c0.795,5.859-3.312,11.255-9.172,12.049c-0.489,0.067-0.974,0.096-1.451,0.096
		C183.965,381.001,179.372,377.107,178.641,371.733z M917.866,482.33c-0.46-5.893,3.944-11.046,9.841-11.506
		c12.321-0.983,24.638,4.483,32.221,14.203c3.931,5.031,6.437,11.02,7.398,17.252c5.646-0.761,11.008-0.627,16.039,0.422
		c13.061,2.714,23.643,11.97,26.951,23.576c1.619,5.688-1.677,11.61-7.361,13.233c-0.983,0.28-1.97,0.414-2.94,0.414
		c-4.663,0-8.95-3.07-10.293-7.775c-1.117-3.915-5.525-7.403-10.719-8.486c-5.353-1.108-11.895-0.217-19.456,2.672
		c-3.864,1.476-8.235,0.59-11.23-2.279c-2.986-2.865-4.053-7.198-2.739-11.125c1.639-4.885,0.644-10.665-2.526-14.726
		c-3.183-4.069-8.586-6.441-13.68-6.035C923.483,492.715,918.326,488.227,917.866,482.33z M1018.392,617.407
		c10.054,7.725,13.613,22.229,8.285,33.735c-4.542,9.795-14.906,16.077-25.529,16.077c-1.861,0-3.731-0.192-5.579-0.594
		c-5.776-1.25-9.448-6.951-8.197-12.731c1.255-5.776,6.922-9.46,12.731-8.197c2.585,0.569,6.018-1.133,7.148-3.559
		c1.121-2.426,0.213-6.123-1.907-7.758c-4.688-3.601-5.567-10.326-1.961-15.01C1006.983,614.684,1013.708,613.802,1018.392,617.407z
		 M922.675,615.863c1.84,5.621-1.225,11.669-6.842,13.509c-5.634,1.828-11.664-1.225-13.509-6.842
		c-1.439-4.4-6.508-7.75-11.171-7.507c-4.621,0.335-9.197,4.467-9.992,9.025c-0.912,5.203-5.433,8.862-10.535,8.862
		c-0.611,0-1.234-0.05-1.857-0.159c-5.826-1.02-9.72-6.566-8.703-12.392c2.48-14.186,15.186-25.663,29.548-26.692
		C904.047,592.572,918.192,602.179,922.675,615.863z"/>
</g>
</svg>
