<?xml version="1.0" encoding="utf-8"?>
<!-- Generator: Adobe Illustrator 23.0.3, SVG Export Plug-In . SVG Version: 6.00 Build 0)  -->
<svg version="1.1" id="Capa_1" xmlns="http://www.w3.org/2000/svg" xmlns:xlink="http://www.w3.org/1999/xlink" x="0px" y="0px"
	 viewBox="0 0 1200 1200" enable-background="new 0 0 1200 1200" xml:space="preserve">
<g>
	<path fill="#FFD18D" d="M86.817,683.111C9.667,552.558,58.264,388.242,190.607,316.293
		c63.412-34.474,136.973-47.014,209.146-46.185c39.997,0.46,81.405,5.332,115.697,25.923c19.682,11.818,35.726,28.053,49.251,46.57
		c-46.631-27.711-100.507-41.854-153.268-39.97c-69.57,2.503-136.958,28.057-194.881,73.9
		c-16.667,13.191-32.129,27.83-46.199,43.581c-4.819,4.694-9.213,9.842-13.092,15.457c-0.06,0.087-0.094,0.184-0.15,0.273
		c-25.559,32.019-45.557,67.892-58.282,105.414C82.262,590.105,78.497,638.11,86.817,683.111z M602.636,411.97
		c-4.724-11.003-9.826-22.015-15.437-32.754c-45.445-37.041-105.121-59.912-166.359-59.912c-2.934,0-5.861,0.051-8.801,0.158
		c-20.398,0.734-40.576,3.616-60.277,8.435c33.426,0.089,64.873,8.982,91.997,26.69c18.813,12.28,36.37,29.953,53.677,54.029
		c25.03,34.808,43.504,73.414,54.91,114.746c4.042,14.653,7.21,29.746,10.268,44.343c6.641,31.672,12.913,61.585,27.516,88.562
		c0.716,1.324,1.004,2.752,0.978,4.156c23.366-35.279,39.676-75.361,41.647-117.388C634.873,497.863,620.476,453.523,602.636,411.97
		z M101.726,657.065c3.563,9.378,8.482,18.565,13.122,27.448c9.28,17.768,20.307,34.869,34.977,48.69
		c8.392,7.907,17.838,14.621,27.579,20.789c20.707,13.113,42.217,23.427,64.398,30.992c42.724,14.572,87.936,18.948,134.684,13.494
		c22.479-2.622,45.093-6.198,67.549-10.662c22.837-11.071,44.523-24.497,64.669-39.934c-24.19,3.028-48.305,10.042-73.331,17.343
		c-28.026,8.177-57.005,16.633-86.676,19.103c-5.795,0.483-11.617,0.72-17.429,0.72c-63.038,0.003-125.999-27.96-167.661-75.332
		c-32.773-37.259-52.96-83.791-57.918-130.267c-5.332,24.556-7.191,48.735-5.683,72.221
		C100.492,653.44,101.03,655.234,101.726,657.065z M573.336,684.753c4.358-5.436,8.555-11.033,12.587-16.756
		c-1.041,0.43-2.114,0.7-3.19,0.7c-2.99,0-5.887-1.597-7.41-4.412c-15.774-29.136-22.596-61.666-29.19-93.126
		c-3.006-14.342-6.118-29.174-10.022-43.318c-10.874-39.404-28.486-76.21-52.348-109.396c-16.073-22.359-32.17-38.635-49.207-49.758
		c-48.582-31.71-113.103-31.923-177.045-0.579c-0.27,0.132-0.55,0.206-0.826,0.307c-10.894,6.826-21.419,14.284-31.518,22.331
		c23.542-5.597,49.958-5.145,76.838,2.114c50.138,13.539,93.648,53.407,116.392,106.647c3.477,8.135,6.509,16.585,9.443,24.755
		c7.555,21.055,14.692,40.942,28.815,55.945c3.187,3.386,3.026,8.714-0.359,11.901c-1.628,1.531-3.7,2.289-5.772,2.289
		c-2.24,0-4.473-0.888-6.131-2.649c-16.524-17.555-24.599-40.046-32.404-61.798c-2.852-7.94-5.799-16.149-9.078-23.829
		c-20.734-48.535-60.097-84.798-105.295-97.003c-52.019-14.054-101.68,0.087-126.503,36.023c-0.637,0.923-1.432,1.67-2.317,2.248
		c-6.039,7.68-11.72,15.661-17.099,23.862c4.705,40.895,24.267,80.677,53.832,109.309c29.855,28.909,70.744,47.283,112.185,50.413
		c19.188,1.451,38.179-0.122,58.275-1.784c14.597-1.205,29.743-2.429,44.741-2.408c4.651,0.015,8.407,3.796,8.394,8.446
		c-0.013,4.641-3.782,8.394-8.42,8.394c-0.276-0.016-0.523-0.002-0.786-0.002c-14.087,0-28.545,1.196-42.54,2.353
		c-14.35,1.186-29.055,2.401-43.846,2.401c-5.69,0-11.387-0.179-17.086-0.61c-45.3-3.419-89.998-23.505-122.631-55.106
		c-27.436-26.571-46.966-61.933-55.399-99.36c-4.795,8.691-9.225,17.609-13.245,26.75c-0.007,0.033-0.004,0.066-0.011,0.099
		c-12.791,59.698,6.789,128.076,51.092,178.451c42.054,47.813,107.584,74.207,171.052,68.951
		c27.976-2.332,56.131-10.545,83.354-18.488c32.441-9.464,65.827-19.177,100.181-19.54
		C546.192,715.786,560.449,700.827,573.336,684.753z"/>
	<path fill="#F9977D" d="M687.989,482.831c-3.218,4.828-5.449,9.198-7.051,13.456c7.551,36.953,2.959,75.101-1.532,112.103
		c-5.572,45.903-10.834,89.259,5.69,129.247c3.796,9.183,8.808,17.771,14.116,26.858c3.394,5.812,6.904,11.824,10.071,18.014
		c10.564,20.648,14.241,38.646,11.242,55.019c-1.042,5.688-3.221,11.471-6.338,16.81c-0.015,1.093-0.243,2.202-0.71,3.266
		c-8.147,18.57-28.48,31.414-54.384,34.36c-11.933,1.349-25.174-2.986-37.965-7.187c-10.163-3.342-20.629-6.825-28.493-6.47
		c-11.762,0.488-22.735,3.765-33.482,8.477c48.078,21.292,104.819,35.332,165.345,40.76c45.01,4.036,88.823,0.684,130.226-9.956
		c114.652-29.47,190.553-109.722,208.238-220.174c13.025-81.343-13.692-168.443-71.471-232.993
		c-25.381-28.358-58.716-46.941-90.951-64.912c-12.83-7.152-25.78-14.393-38.384-22.29c-15.136,10.756-31.43,19.115-48.16,26.665
		c0.373,0.502,0.748,1.009,1.121,1.509c13.445,18.086,27.348,36.788,39.136,57.038c27.766,47.704,45.925,97.416,53.97,147.751
		c15.225,95.267-7.098,190.06-61.245,260.073c-1.658,2.144-4.147,3.269-6.667,3.269c-1.799,0-3.611-0.572-5.144-1.76
		c-3.68-2.845-4.355-8.134-1.51-11.811c50.559-65.376,72.217-157.755,57.936-247.115c-7.716-48.278-25.174-96.033-51.894-141.938
		c-11.311-19.433-24.928-37.75-38.097-55.461c-1.145-1.54-2.297-3.092-3.446-4.642c-8.306,3.54-16.657,7.014-24.969,10.609
		C740.592,435.509,707.687,453.281,687.989,482.831z M937.132,814.342c35.071-44.507,54.726-100.227,55.338-156.895
		c0.615-56.665-17.827-112.796-51.93-158.054c-2.796-3.713-2.056-8.994,1.658-11.791c3.717-2.797,8.989-2.059,11.794,1.658
		c36.324,48.212,55.973,108.007,55.318,168.369c-0.654,60.368-21.589,119.722-58.949,167.134c-1.661,2.108-4.128,3.21-6.621,3.21
		c-1.822,0-3.661-0.589-5.203-1.806C934.882,823.288,934.254,817.993,937.132,814.342z M443.715,894.088
		c-3.111-0.356-6.21-0.816-9.316-1.216c48.83-12.75,94.239-34.377,132.596-55.234c15.347-8.334,35.531-7.617,50.233,1.783
		c5.878,3.759,11.347,8.887,17.136,14.317c8.309,7.796,17.415,16.305,28.536,20.606c-1.934,0.38-3.846,0.677-5.706,0.888
		c-8.341,0.964-19.744-2.815-30.805-6.453c-11.591-3.805-23.533-7.709-34.449-7.295c-20.811,0.865-39.026,8.814-56.307,18.197
		c-0.023,0.013-0.046,0.024-0.068,0.037c-5.164,2.805-10.249,5.733-15.29,8.644c-7.919,4.571-15.995,9.207-24.266,13.275
		C477.451,900.552,456.555,895.555,443.715,894.088z M655.276,662.448c0.931-2.597,1.763-5.221,2.565-7.853
		c-0.486,8.04-0.72,16.071-0.592,24.072c-5.096,10.358-8.554,25.851-10.785,48.565c-1.345,13.682-2.727,27.74-1.408,41.945
		c-4.414,0.316-8.805,1.099-13.015,2.335c-3.529,1.036-5.979,4.249-6.045,7.93l-0.26,14.653
		c-23.602,3.074-49.517,16.013-65.302,28.008c-0.493,0.252-0.997,0.476-1.485,0.741c-63.883,34.738-121.185,55.34-173.181,61.939
		c-35.881-7.371-71.163-17.661-105.333-30.861c-46.919-18.124-93.01-42.774-130.001-77.263
		c-5.759-5.369-11.263-11.048-16.485-16.976c-20.034-33.208-31.481-69.678-33.942-108.012c0.484,1.768,1.023,3.562,1.719,5.393
		c3.563,9.378,8.482,18.565,13.122,27.448c9.28,17.768,20.307,34.869,34.977,48.69c8.392,7.907,17.838,14.621,27.579,20.789
		c20.707,13.113,42.217,23.427,64.398,30.992c42.724,14.572,87.936,18.948,134.684,13.494c22.479-2.622,45.093-6.198,67.549-10.662
		c20.304-4.036,40.479-8.793,60.29-14.309C565.221,756.552,632.362,726.324,655.276,662.448z M1036.225,958.002
		c-53.232,38.475-119.733,54.7-185.268,59.073c-90.075,6.011-178.545-18.016-239.002-88.671c-1.8-2.104-3.608-4.235-5.5-6.269
		c36.277,10.969,75.588,18.511,116.538,22.186c12.821,1.148,25.549,1.723,38.166,1.723c33.561,0,66.313-4.062,97.757-12.146
		c121.451-31.213,201.884-116.438,220.677-233.819c13.817-86.301-14.426-178.594-75.552-246.888
		c-27.263-30.46-61.85-49.742-95.3-68.389c-11.375-6.341-22.573-12.599-33.377-19.183c17.165-18.73,26.313-45.509,28.964-70.606
		c0.37-3.501,0.711-7.27,2.995-9.948c1.837-2.154,4.622-3.214,7.304-4.121c15.002-5.077,30.721-8.027,46.542-8.736
		c2.708-0.121,5.832,0.003,7.527,2.119c1.144,1.428,1.296,3.391,1.329,5.221c0.672,37.041-13.044,63.065,8.985,97.689
		c10.537,16.563,24.627,30.499,38.042,44.831c45.648,48.771,85.007,104.315,109.189,166.585
		C1175,714.216,1150.485,875.415,1036.225,958.002z M660.968,783.379c1.796-1.964,2.556-4.664,2.052-7.275
		c-2.94-15.235-1.342-31.499,0.204-47.227c0.088-0.894,0.19-1.71,0.282-2.582c1.631,5.979,3.603,11.911,6.026,17.777
		c4.236,10.249,9.778,19.737,15.139,28.917c3.276,5.614,6.667,11.419,9.62,17.192c8.815,17.228,11.975,31.723,9.67,44.316
		c-2.276,12.423-12.975,25.835-26.289,25.842c-0.007,0-0.01,0-0.016,0c-11.643,0-20.974-8.752-31.775-18.882
		c-6.091-5.716-12.39-11.627-19.583-16.225c-6.395-4.087-13.446-6.952-20.757-8.607c9.786-3.649,19.795-6.094,28.72-6.352
		c4.496-0.132,8.094-3.769,8.177-8.269l0.28-15.643c3.703-0.556,7.496-0.661,11.189-0.286
		C656.568,786.362,659.173,785.342,660.968,783.379z"/>
	<path d="M761.159,946.044c33.561,0,66.313-4.062,97.757-12.146c121.451-31.213,201.884-116.438,220.677-233.819
		c13.817-86.301-14.426-178.594-75.552-246.888c-27.263-30.46-61.85-49.742-95.3-68.389c-11.375-6.341-22.573-12.599-33.377-19.183
		c-30.322-18.478-57.466-39.589-76.121-72.808c-9.834-17.509-9.183-38.496-8.492-60.717c0.431-13.924,0.878-28.323-1.329-42.384
		c-0.618-3.939-3.914-6.904-7.894-7.104c-30.43-1.528-61.1,0.028-91.136,4.639c-4.414,0.679-7.532,4.689-7.101,9.137
		c4.23,43.562-13.298,89.59-43.609,114.534c-17.429,14.343-37.521,24.419-58.795,35.086c-1.977,0.991-3.948,1.99-5.922,2.985
		c-3.378-2.206-6.803-4.329-10.264-6.386c-46.631-27.711-100.507-41.854-153.268-39.97c-69.57,2.503-136.958,28.057-194.881,73.9
		c-16.667,13.191-32.129,27.83-46.199,43.581c-4.819,4.694-9.213,9.842-13.092,15.457c-0.06,0.087-0.094,0.184-0.15,0.273
		c-25.559,32.019-45.557,67.892-58.282,105.414c-16.565,48.849-20.331,96.854-12.011,141.856
		c3.398,18.378,8.803,36.254,16.205,53.478c27.763,69.11,84.499,149.25,152.765,178.927c38.942,16.925,82.199,25.48,125.924,25.48
		c33.282,0,66.833-4.957,98.957-14.949c17.356-5.397,32.949-14.399,48.026-23.102c3.804-2.196,7.568-4.367,11.32-6.461
		c20.594,9.94,42.868,18.524,66.441,25.651c36.277,10.969,75.588,18.511,116.538,22.186
		C735.814,945.469,748.542,946.044,761.159,946.044z M650.384,323.92c33.111-27.246,52.345-74.1,50.237-121.137
		c13.285-1.795,26.685-2.95,40.117-3.508c-13.515,51.574-6.328,109.216,19.779,155.648c11.142,19.823,24.49,38.16,37.641,55.878
		c1.149,1.549,2.301,3.102,3.446,4.642c13.169,17.711,26.786,36.028,38.097,55.461c26.72,45.905,44.178,93.66,51.894,141.938
		c14.281,89.36-7.377,181.739-57.936,247.115c-2.845,3.677-2.171,8.966,1.51,11.811c1.533,1.187,3.345,1.76,5.144,1.76
		c2.519,0,5.009-1.125,6.667-3.269c54.147-70.014,76.47-164.807,61.245-260.073c-8.045-50.335-26.204-100.047-53.97-147.751
		c-11.788-20.251-25.691-38.952-39.136-57.038c-0.372-0.501-0.748-1.007-1.121-1.509c-13.579-18.265-27.518-37.144-38.801-57.214
		c-24.791-44.096-31.046-99.194-16.905-147.774c5.112-0.007,10.225,0.056,15.333,0.229c0.974,10.548,0.628,21.648,0.293,32.446
		c-0.73,23.543-1.483,47.89,10.643,69.484c19.468,34.669,47.528,57.323,77.597,76.163c12.604,7.897,25.554,15.139,38.384,22.29
		c32.236,17.971,65.57,36.554,90.951,64.912c57.778,64.55,84.495,151.65,71.471,232.993
		c-17.685,110.452-93.586,190.704-208.238,220.174c-41.402,10.64-85.215,13.992-130.226,9.956
		c-60.526-5.428-117.267-19.468-165.345-40.76c10.747-4.712,21.719-7.989,33.482-8.477c7.864-0.355,18.33,3.128,28.493,6.47
		c12.791,4.2,26.033,8.535,37.965,7.187c25.904-2.947,46.237-15.791,54.384-34.36c0.467-1.064,0.696-2.173,0.71-3.266
		c3.117-5.339,5.296-11.122,6.338-16.81c3-16.373-0.678-34.37-11.242-55.019c-3.167-6.19-6.677-12.202-10.071-18.014
		c-5.308-9.088-10.321-17.675-14.116-26.858c-16.524-39.988-11.262-83.344-5.69-129.247c4.491-37.003,9.083-75.151,1.532-112.103
		c-0.728-3.561-1.527-7.115-2.492-10.651c-5.575-20.434-14.302-40.068-25.769-58.429c2.076-4.987,4.841-9.648,8.268-13.841
		c1.855-2.269,3.924-4.443,6.118-6.746c1.076-1.133,2.154-2.264,3.213-3.416c12.784-13.886,22.99-30.591,29.509-48.306
		c1.608-4.365-0.628-9.204-4.993-10.811c-4.351-1.612-9.203,0.627-10.808,4.993c-5.769,15.667-14.791,30.438-26.095,42.716
		c-0.997,1.082-2.01,2.146-3.026,3.212c-2.309,2.427-4.697,4.937-6.956,7.7c-2.236,2.735-4.247,5.629-6.053,8.643
		c-14.136-19.013-31.407-36.323-51.291-51.366C611.067,349.697,632.123,338.946,650.384,323.92z M663.021,776.104
		c-2.94-15.235-1.342-31.499,0.204-47.227c0.088-0.894,0.19-1.71,0.282-2.582c1.631,5.979,3.603,11.911,6.026,17.777
		c4.236,10.249,9.778,19.737,15.139,28.917c3.276,5.614,6.667,11.419,9.62,17.192c8.815,17.228,11.975,31.723,9.67,44.316
		c-2.276,12.423-12.975,25.835-26.289,25.842c-0.007,0-0.01,0-0.016,0c-11.643,0-20.974-8.752-31.775-18.882
		c-6.091-5.716-12.39-11.627-19.583-16.225c-6.395-4.087-13.446-6.952-20.757-8.607c9.786-3.649,19.795-6.094,28.72-6.352
		c4.496-0.132,8.094-3.769,8.177-8.269l0.28-15.643c3.703-0.556,7.496-0.661,11.189-0.286c2.661,0.286,5.266-0.733,7.062-2.697
		C662.764,781.415,663.524,778.715,663.021,776.104z M105.69,579.451c4.958,46.475,25.145,93.007,57.918,130.267
		c41.662,47.372,104.624,75.335,167.661,75.332c5.812,0,11.633-0.237,17.429-0.72c29.67-2.47,58.65-10.926,86.676-19.103
		c25.025-7.301,49.141-14.315,73.331-17.343c12.488-1.563,24.997-2.083,37.661-0.99c4.693,0.375,8.709-3.039,9.111-7.67
		c0.395-4.634-3.039-8.713-7.67-9.111c-5.683-0.487-11.337-0.651-16.968-0.592c-34.354,0.363-67.74,10.076-100.181,19.54
		c-27.223,7.943-55.377,16.156-83.354,18.488c-63.468,5.256-128.999-21.139-171.052-68.951
		c-44.303-50.375-63.883-118.754-51.092-178.451c0.007-0.033,0.004-0.066,0.011-0.099c4.02-9.141,8.45-18.059,13.245-26.75
		c8.432,37.427,27.962,72.789,55.399,99.36c32.634,31.601,77.332,51.687,122.631,55.106c5.7,0.431,11.396,0.61,17.086,0.61
		c14.791,0,29.496-1.215,43.846-2.401c13.995-1.158,28.453-2.353,42.54-2.353c0.263,0,0.51-0.015,0.786,0.002
		c4.638,0,8.407-3.753,8.42-8.394c0.013-4.651-3.743-8.431-8.394-8.446c-14.998-0.021-30.144,1.202-44.741,2.408
		c-20.096,1.663-39.087,3.235-58.275,1.784c-41.442-3.13-82.331-21.504-112.185-50.413c-29.565-28.632-49.127-68.413-53.832-109.309
		c5.379-8.202,11.06-16.183,17.099-23.862c0.885-0.578,1.679-1.325,2.317-2.248c24.822-35.936,74.483-50.077,126.503-36.023
		c45.198,12.206,84.561,48.469,105.295,97.003c3.279,7.68,6.226,15.889,9.078,23.829c7.805,21.752,15.879,44.242,32.404,61.798
		c1.658,1.761,3.891,2.649,6.131,2.649c2.072,0,4.144-0.758,5.772-2.289c3.384-3.187,3.546-8.515,0.359-11.901
		c-14.123-15.003-21.26-34.89-28.815-55.945c-2.934-8.17-5.966-16.619-9.443-24.755c-22.744-53.24-66.254-93.107-116.392-106.647
		c-26.88-7.26-53.296-7.711-76.838-2.114c10.1-8.046,20.624-15.504,31.518-22.331c0.275-0.101,0.556-0.174,0.826-0.307
		c63.942-31.344,128.463-31.131,177.045,0.579c17.037,11.123,33.134,27.399,49.207,49.758
		c23.862,33.186,41.475,69.992,52.348,109.396c3.904,14.144,7.015,28.976,10.022,43.318c6.594,31.46,13.416,63.99,29.19,93.126
		c1.523,2.815,4.42,4.412,7.41,4.412c1.076,0,2.149-0.271,3.19-0.7c0.27-0.112,0.55-0.174,0.813-0.316
		c2.765-1.498,4.317-4.323,4.372-7.258c0.026-1.405-0.261-2.833-0.978-4.156c-14.603-26.977-20.875-56.89-27.516-88.562
		c-3.059-14.597-6.226-29.69-10.268-44.343c-11.406-41.332-29.881-79.938-54.91-114.746c-17.307-24.076-34.864-41.749-53.677-54.029
		c-27.124-17.708-58.57-26.602-91.997-26.69c19.701-4.819,39.879-7.701,60.277-8.435c2.94-0.107,5.868-0.158,8.801-0.158
		c61.238,0,120.914,22.872,166.359,59.912c36.124,29.443,63.264,67.832,75,110.852c10.11,37.051,5.22,77.337,0.493,116.293
		c-1.938,15.96-3.875,32.108-4.851,48.233c-0.486,8.04-0.72,16.071-0.592,24.072c-5.096,10.358-8.554,25.851-10.785,48.565
		c-1.345,13.682-2.727,27.74-1.408,41.945c-4.414,0.316-8.805,1.099-13.015,2.335c-3.529,1.036-5.979,4.249-6.045,7.93l-0.26,14.653
		c-23.602,3.074-49.517,16.013-65.302,28.008c-0.493,0.252-0.997,0.476-1.485,0.741c-63.883,34.738-121.185,55.34-173.181,61.939
		c-72.616,9.216-134.865-8.931-190.066-54.48c-25.619-21.138-46.24-44.906-61.753-70.619
		c-20.034-33.208-31.481-69.678-33.942-108.012C98.499,628.186,100.358,604.007,105.69,579.451z M475.668,909.967
		c-70.536,21.935-148.23,18.333-213.165-9.897c-23.507-10.218-45.601-26.998-65.469-47.383
		c50.427,37.498,102.953,51.563,154.082,51.557c28.4-0.001,56.359-4.342,83.283-11.372c48.83-12.75,94.239-34.377,132.596-55.234
		c15.347-8.334,35.531-7.617,50.233,1.783c5.878,3.759,11.347,8.887,17.136,14.317c8.309,7.796,17.415,16.305,28.536,20.606
		c-1.934,0.38-3.846,0.677-5.706,0.888c-8.341,0.964-19.744-2.815-30.805-6.453c-11.591-3.805-23.533-7.709-34.449-7.295
		c-20.811,0.865-39.026,8.814-56.307,18.197c-0.023,0.013-0.046,0.024-0.068,0.037c-5.164,2.805-10.249,5.733-15.29,8.644
		c-7.919,4.571-15.995,9.207-24.266,13.275C489.365,904.904,482.599,907.812,475.668,909.967z M937.132,814.342
		c35.071-44.507,54.726-100.227,55.338-156.895c0.615-56.665-17.827-112.796-51.93-158.054c-2.796-3.713-2.056-8.994,1.658-11.791
		c3.717-2.797,8.989-2.059,11.794,1.658c36.324,48.212,55.973,108.007,55.318,168.369c-0.654,60.368-21.589,119.722-58.949,167.134
		c-1.661,2.108-4.128,3.21-6.621,3.21c-1.822,0-3.661-0.589-5.203-1.806C934.882,823.288,934.254,817.993,937.132,814.342z"/>
</g>
</svg>
