<?xml version="1.0" encoding="utf-8"?>
<!-- Generator: Adobe Illustrator 23.0.3, SVG Export Plug-In . SVG Version: 6.00 Build 0)  -->
<svg version="1.1" id="Capa_1" xmlns="http://www.w3.org/2000/svg" xmlns:xlink="http://www.w3.org/1999/xlink" x="0px" y="0px"
	 viewBox="0 0 1200 1200" enable-background="new 0 0 1200 1200" xml:space="preserve">
<g>
	<path fill="#E28520" d="M773.836,911.93c19.13,62.912,36.923,126.152,48.132,191.31c-7.5-12.551-14.174-25.663-18.098-33.41
		c-2.733-5.392-5.091-10.049-6.912-13.28l-33.375-59.207l23.174-13.984c3.22-1.941,4.254-6.125,2.313-9.342
		c-1.943-3.222-6.133-4.256-9.342-2.313l-22.832,13.775l-65.688-116.531c18.5-2.675,36.095-10.657,50.257-22.936
		c2.839-2.462,3.145-6.761,0.683-9.6c-2.462-2.839-6.761-3.148-9.6-0.683c-13.551,11.746-30.758,18.879-48.627,20.293l-6.569-11.654
		c0.508,0.019,1.016,0.052,1.524,0.052c8.135,0,16.244-2.459,22.97-7.149c3.081-2.151,3.839-6.394,1.688-9.478
		c-2.151-3.084-6.391-3.836-9.478-1.688c-6.311,4.405-14.843,5.838-22.25,3.73c-0.925-0.261-1.859-0.313-2.756-0.192L608.825,722.8
		c-1.506-2.672-3.025-5.367-4.55-8.083c4.738,0.684,9.514,1.021,14.286,1.021c23.172,0,46.235-7.962,64.271-22.89
		c2.895-2.395,3.302-6.686,0.904-9.582c-2.398-2.898-6.689-3.299-9.582-0.904c-21.296,17.623-51.99,24.046-78.62,16.587
		c-2.09-3.833-4.161-7.712-6.211-11.622c1.176,0.061,2.354,0.099,3.531,0.099c14.965,0,29.864-4.894,41.82-14.069
		c2.983-2.286,3.547-6.559,1.258-9.542c-2.289-2.983-6.567-3.549-9.542-1.258c-12.337,9.462-29.28,13.278-44.517,10.111
		c-14.333-29.32-26.05-60.55-28.61-93.133c-2.207-28.087,4.369-59.532,20.043-84.132c3.875,0.887,7.712,1.914,11.443,3.224
		c39.989,14.036,70.419,47.985,89.679,85.737c19.26,37.751,28.829,79.553,38.929,120.713c2.962,12.07,6.091,24.086,9.332,36.066
		c-2.532,1.934-3.431,5.442-1.969,8.407c1.051,2.138,3.087,3.415,5.285,3.688c13.926,50.157,29.781,99.682,44.985,149.356
		c-1.156,2.087-1.206,4.708,0.142,6.878C771.813,910.57,772.763,911.386,773.836,911.93z M785.1,1063.234l-35.632-63.213
		c-0.433-0.411-0.82-0.884-1.144-1.42c-0.379-0.628-0.611-1.296-0.769-1.974L596.967,729.483
		c-24.823-44.032-52.956-93.936-57.274-148.878c-2.273-28.919,4.06-61.104,19.236-87.513c-33.759-3.152-69.144,8.901-88.575,36.314
		c-16.321,23.025-19.636,53.39-14.444,81.132c11.725,62.653,54.68,126.635,86.255,180.98
		c35.488,61.08,74.21,120.282,115.956,177.269c44.317,60.496,94.198,120.236,160.533,154.7
		c-9.239-13.352-18.223-30.318-26.93-47.505C789.066,1070.734,786.772,1066.201,785.1,1063.234z"/>
	<path fill="#3FAD80" d="M599.687,473.527c-1.339-1.004-2.637-2.062-3.964-3.082c6.937-5.398,14.715-9.811,23.371-12.918
		c9.563-3.432,19.267-4.972,28.875-4.972c5.182,0,10.327,0.495,15.414,1.336c-7.762,18.507-19.305,34.386-34.46,33.35
		C618.027,486.496,608.425,480.079,599.687,473.527z M496.893,320.051c21.434,24.003,41.199,47.333,60.116,70.919
		c3.118,11.837,1.468,22.768-4.45,29.28c-1.782,1.958-4.346,3.412-7.145,4.224c-8.966-9.708-17.483-19.83-25.45-30.372
		c-13.355,8.445-30.055,11.176-45.506,8.027c-5.629-1.147-11.093-3.075-16.169-5.792c-19.007-10.173-31.83-31.005-32.351-52.557
		c-12.764,3.909-26.429,4.579-39.576,2.289c2.557-7.622,7.813-14.26,14.852-17.771c2.786-1.388,4.275-4.488,3.616-7.529
		c-0.657-3.041-3.294-5.251-6.405-5.362c-7.457-0.274-14.984-5.743-18.727-13.609c-6.726-14.133-1.457-37.505,7.476-49.641
		c13.92-18.908,47.472-25.288,69.046-13.12c2.153,1.215,4.807,1.164,6.918-0.138c2.108-1.3,3.342-3.648,3.222-6.123
		c-0.548-11.201,4.863-22.835,13.785-29.641c8.912-6.801,21.553-8.946,32.217-5.461c0.005,0,0.008,0.003,0.013,0.003
		c3.576,1.183,7.415-0.784,8.582-4.352c0.657-2.013,0.327-4.108-0.723-5.764c-0.694-2.863-1.577-11.451-1.88-14.412
		c-0.191-1.85-0.34-3.249-0.425-3.802c-0.915-5.913-0.691-9.664,0.88-14.864c3.517-11.623,10.722-22.058,20.288-29.385
		c4.538-3.477,11.025-4.934,16.935-3.781c2.573,0.5,7.277,1.997,9.874,6.391c1.763,2.994,5.503,4.177,8.667,2.741
		c3.164-1.433,4.743-5.019,3.658-8.321c-2.932-8.941,1.17-16.874,3.874-20.806c5.607-8.154,14.665-13.492,23.638-13.931
		c19.035-0.915,35.606,14.59,42.16,30.401c1.031,2.488,3.435,4.137,6.128,4.198c2.592,0.077,5.171-1.47,6.319-3.908
		c4.036-8.585,11.847-15.287,21.997-18.871c11.171-3.937,23.731-3.427,33.607,1.372c19.24,9.356,31.079,33.028,28.146,56.288
		c-0.324,2.568,0.837,5.099,2.996,6.527c2.164,1.43,4.942,1.51,7.181,0.207c10.18-5.926,24.502-4.496,33.309,3.318
		c8.811,7.816,11.932,21.864,7.263,32.679c-1.141,2.64-0.5,5.708,1.6,7.67c2.098,1.962,5.2,2.401,7.763,1.079
		c6.439-3.313,14.519-3.398,22.167-0.229c6.115,2.536,10.919,6.753,13.74,11.861c-16.138,16.245-43.995,17.184-64.443,6.345
		c-0.036,5.304-0.859,10.574-2.365,15.646c1.413-4.358,1.704-9.081,0.681-13.628c-2.066-9.164-9.249-16.707-18.307-19.219
		c-11.19-3.105-22.396,1.893-29.811,5.2c-3.432,1.529-4.977,5.554-3.446,8.986c1.529,3.435,5.554,4.977,8.986,3.446
		c7.465-3.323,14.662-6.163,20.636-4.514c4.153,1.151,7.715,4.892,8.662,9.092c0.946,4.206-0.667,9.111-3.924,11.932
		c-2.842,2.459-3.15,6.758-0.689,9.6c1.345,1.553,3.241,2.35,5.147,2.35c1.579,0,3.166-0.545,4.453-1.662
		c3.518-3.045,6.084-7.013,7.535-11.354c-4.535,15.05-15.093,28.34-29.079,35.597c-18.765,9.737-42.864,8.192-60.232-3.862
		c-0.048,0.719-0.096,1.438-0.144,2.158c-15.163-8.631-26.248,0.138-35.144,10.091c-1.079,1.204-1.694,2.757-1.731,4.373
		c-0.165,6.961-0.426,13.931-0.732,20.903c-1.05,4.482-5.383,9.05-11.74,12.297c-8.741,4.466-19.232,5.519-25.52,2.568
		c-3.172-1.489-6.947-0.33-8.741,2.677c-1.789,3.01-1.008,6.883,1.81,8.962c3.371,2.483,3.935,7.104,3.337,10.6
		c-0.596,3.496-2.659,7.67-6.665,8.896c-1.44,0.441-2.611,1.329-3.446,2.452c-23.148-27.465-49.129-52.593-77.191-74.447
		c-1.866-1.452-4.352-1.832-6.559-1.008c-16.297,6.072-16.297,19.347-16.297,31.058C495.162,317.19,495.779,318.804,496.893,320.051
		z M565.104,223.015c-0.21,8.813,3.73,16.497,10.547,20.554c1.09,0.649,2.289,0.957,3.475,0.957c2.318,0,4.581-1.186,5.854-3.326
		c1.922-3.23,0.861-7.407-2.369-9.329c-3.65-2.172-3.943-6.686-3.898-8.529c0.114-4.796,2.55-9.27,6.056-11.137
		c8.196-4.36,19.384,0.923,23.909,8.558c1.569,2.651,4.727,3.913,7.691,3.084c2.967-0.832,5.003-3.552,4.969-6.633
		c-0.053-4.565,1.999-9.292,5.634-12.969c3.632-3.677,8.335-5.788,12.899-5.79c0.003,0,0.005,0,0.008,0
		c4.562,0,9.263,2.106,12.899,5.774c3.637,3.674,5.695,8.398,5.647,12.963c-0.037,3.757,2.978,6.835,6.737,6.875
		c0.024,0,0.048,0,0.072,0c3.725,0,6.763-3.002,6.803-6.737c0.085-8.175-3.411-16.441-9.587-22.68
		c-6.176-6.234-14.402-9.808-22.571-9.808c-0.005,0-0.011,0-0.019,0c-8.175,0.005-16.401,3.589-22.571,9.837
		c-2.616,2.645-4.748,5.655-6.33,8.866c-9.664-6.968-22.494-8.731-32.581-3.358C570.549,204.352,565.338,213.311,565.104,223.015z
		 M475.148,331.363c-10.254-3.134-21.907,1.981-26.517,11.671s-1.244,21.963,7.667,27.939c1.164,0.782,2.48,1.154,3.786,1.154
		c2.191,0,4.344-1.058,5.657-3.015c2.095-3.121,1.26-7.348-1.861-9.443c-3.267-2.191-4.65-7.231-2.956-10.789
		c1.688-3.549,6.46-5.652,10.236-4.501c3.586,1.087,7.399-0.917,8.502-4.514C480.763,336.271,478.743,332.466,475.148,331.363z
		 M663.941,440.363c7.729-41.462,11.599-91.626,11.793-153.218c-4.323-2.14-8.085-1.316-15.284,6.296
		c-1.247,47.78-5.777,95.901-13.471,143.066c-0.158,0.969-0.531,1.861-1.05,2.646C651.888,439.062,657.911,439.472,663.941,440.363z
		 M634.379,438.841c-31.092-53.326-73.021-101.667-121.431-140.044c-3.172,2.132-4.033,5.554-4.158,14.144
		c39.294,44.121,73.142,86.054,106.25,131.595c6.491-2.285,13.223-3.826,20.099-4.659
		C634.86,439.557,634.598,439.218,634.379,438.841z M603.597,370.104c11.773,14.706,22.741,30.024,32.776,45.834
		c3.961-27.358,6.825-54.98,8.616-82.611c-1.383,0.903-2.821,1.769-4.362,2.556c-7.019,3.586-14.686,5.514-21.859,5.697
		c0.508,2.959,0.516,6.093-0.029,9.276C617.173,360.039,611.4,367.289,603.597,370.104z M654.821,101.802
		c5.844-6.83,13.713-12.15,22.994-15.428c12.111-4.277,25.098-4.491,36.715-0.874c-13.29-25.831-45.57-39.685-74.375-34.378
		c-17.028,3.137-32.406,12.066-44.65,24.359c3.139-0.949,6.354-1.53,9.572-1.687C624.104,72.853,643.312,83.992,654.821,101.802z
		 M758.107,147.559c13.304-3.241,28.184,0.016,38.512,9.18c9.97,8.845,14.989,22.558,13.849,35.726
		c6.899-0.811,14.178,0.202,21.125,3.084c6.678,2.768,12.321,6.997,16.567,12.17c7.067-18.24-1.453-40.997-19.893-48.888
		c17.917-39.187,10.926-80.016-36.379-93.669c-25.886-7.471-55.654,1.517-73.359,21.756c1.133,0.455,2.276,0.89,3.374,1.424
		C743.134,98.662,757.272,122.475,758.107,147.559z M571.613,409.464c-1.153,7.753-4.179,14.658-8.984,19.942
		c-2.033,2.234-4.486,4.083-7.172,5.565c9.346,9.417,19.167,18.354,29.395,26.804c5.328-4.441,11.129-8.357,17.407-11.648
		C592.172,436.304,581.99,422.798,571.613,409.464z M367.404,307.646c-9.209-19.36-2.6-48.065,8.808-63.561
		c15.954-21.662,50.465-30.428,77.216-21.157c2.103-12.009,8.702-23.172,18.459-30.614c9.592-7.316,21.835-10.743,33.793-9.765
		c-0.274-2.297-0.553-4.945-0.867-8.008c-0.157-1.507-0.269-2.653-0.338-3.121c-1.22-7.888-0.853-13.742,1.305-20.878
		c4.336-14.332,13.226-27.205,25.036-36.25c7.659-5.862,18.057-8.234,27.811-6.338c1.949,0.38,3.812,0.92,5.575,1.611
		c0.301-1.687,0.763-3.363,1.302-5.03c-23.645-13.096-51.575-24.476-78.076-15.691c-29.857,9.899-53.001,43.774-42.117,73.281
		c-29.26-7.972-63.14,11.268-71.282,40.481c-15.457-5.585-33.55,2.77-42.722,16.407c-25.089,37.303-15.578,87.839,21.151,113.313
		c6.399,4.438,13.428,7.913,20.795,10.413c2.089-6.631,5.593-12.798,10.25-17.822C376.743,321.204,370.985,315.172,367.404,307.646z
		"/>
	<path d="M859.918,988.829c-4.605-14.229-8.954-27.665-11.756-39.057c-14.846-60.377-21.237-123.584-27.418-184.711
		c-4.676-46.251-9.512-94.079-17.975-140.65c-8.069-44.382-20.745-95.079-53.597-134.57c-19.562-23.516-45.319-39.682-71.896-46.727
		c6.574-35.171,10.418-76.367,11.644-125.174c6.447,3.038,14.272,3.335,21.61,0.659c4.852-1.771,9.039-4.666,12.184-8.295
		c5.495,4.137,12.578,6.5,20.306,6.383c9.047-0.053,17.182-3.307,22.882-8.949c12.798,6.92,29.112,6.91,41.758-0.524
		c12.777-7.508,20.761-21.976,20.779-36.681c8.627-2.882,16.271-9.01,21.545-17.443c6.519-10.419,8.292-22.542,4.865-33.267
		c-1.411-4.415-3.719-8.485-6.691-12.106c-4.246-5.173-9.889-9.402-16.567-12.17c-6.947-2.882-14.226-3.895-21.125-3.084
		c1.141-13.168-3.879-26.881-13.849-35.726c-10.329-9.164-25.209-12.421-38.512-9.18c-0.835-25.084-14.973-48.897-36.205-59.217
		c-1.097-0.534-2.241-0.968-3.374-1.424c-1.313-0.527-2.645-0.996-3.999-1.418c-11.617-3.617-24.604-3.403-36.715,0.874
		c-9.281,3.278-17.151,8.598-22.994,15.428c-11.509-17.81-30.717-28.949-49.745-28.008c-3.218,0.158-6.432,0.738-9.572,1.687
		c-9.666,2.922-18.605,9.385-24.615,18.124c-2.395,3.481-4.169,7.169-5.384,10.929c-0.539,1.667-1.001,3.343-1.302,5.03
		c-1.763-0.691-3.626-1.231-5.575-1.611c-9.754-1.896-20.152,0.476-27.811,6.338c-11.809,9.045-20.7,21.917-25.036,36.25
		c-2.159,7.136-2.526,12.99-1.305,20.878c0.069,0.468,0.181,1.614,0.338,3.121c0.314,3.063,0.593,5.711,0.867,8.008
		c-11.958-0.978-24.201,2.449-33.793,9.765c-9.757,7.441-16.356,18.605-18.459,30.614c-26.751-9.27-61.262-0.505-77.216,21.157
		c-11.408,15.497-18.017,44.202-8.808,63.561c3.581,7.526,9.34,13.559,16.098,17.273c-4.656,5.024-8.16,11.191-10.25,17.822
		c-2.469,7.836-2.956,16.324-0.932,24.375c5.078,20.197,22.377,33.815,42.458,34.827c-4.371,16.417-2.457,34.849,11.429,45.635
		c8.321,6.466,19.894,8.741,30.965,6.099c5.921-1.417,11.171-4.126,15.353-7.822c6.274,8.364,16.518,13.745,27.025,13.745
		c1.76,0,3.528-0.152,5.285-0.465c11.775-2.103,21.455-11.201,25.291-22.298c2.284,0.936,4.767,1.555,7.388,1.826
		c6.268,0.651,12.602-0.743,17.944-3.692c2.686-1.483,5.139-3.331,7.172-5.565c4.805-5.284,7.831-12.189,8.984-19.942
		c10.377,13.334,20.559,26.84,30.646,40.663c-6.278,3.291-12.079,7.207-17.407,11.648c-10.456,8.716-19.088,19.424-25.923,31.316
		c-15.177,26.409-21.509,58.594-19.236,87.513c4.318,54.942,32.451,104.847,57.274,148.878l150.587,267.145
		c0.158,0.677,0.391,1.346,0.769,1.974c0.324,0.536,0.711,1.009,1.144,1.42l35.632,63.213c1.672,2.967,3.967,7.5,6.625,12.748
		c8.707,17.186,17.691,34.153,26.93,47.505c10.923,15.785,22.203,26.513,33.808,26.513c0.439,0,0.877-0.016,1.316-0.045
		c10.499-0.739,18.472-9.523,24.371-26.849C891.087,1085.13,873.803,1031.733,859.918,988.829z M615.04,444.536
		c-33.108-45.541-66.956-87.474-106.25-131.595c0.125-8.59,0.986-12.012,4.158-14.144c48.41,38.377,90.339,86.718,121.431,140.044
		c0.219,0.376,0.481,0.715,0.76,1.035C628.263,440.71,621.531,442.251,615.04,444.536z M618.768,341.58
		c7.173-0.183,14.84-2.111,21.859-5.697c1.541-0.787,2.979-1.653,4.362-2.556c-1.791,27.631-4.655,55.254-8.616,82.611
		c-10.034-15.81-21.003-31.127-32.776-45.834c7.803-2.815,13.576-10.065,15.141-19.249
		C619.284,347.673,619.276,344.539,618.768,341.58z M646.978,436.507c7.694-47.166,12.224-95.286,13.471-143.066
		c7.199-7.612,10.961-8.436,15.284-6.296c-0.194,61.592-4.064,111.756-11.793,153.218c-6.03-0.891-12.053-1.301-18.013-1.21
		C646.447,438.368,646.82,437.477,646.978,436.507z M552.558,420.25c-1.782,1.958-4.346,3.412-7.145,4.224
		c-2.108,0.611-4.344,0.87-6.504,0.649c-2.143-0.221-6.04-1.111-8.085-4.581c-1.627-2.762-4.972-4.017-8.005-3.007
		c-3.044,1.008-4.972,4.004-4.626,7.191c1.008,9.342-6.5,19.357-15.749,21.008c-9.265,1.667-19.761-5.152-22.048-14.266
		c-0.699-2.789-3.076-4.839-5.939-5.118c-2.879-0.276-5.591,1.271-6.817,3.871c-2.35,4.982-7.322,8.704-13.639,10.217
		c-6.979,1.667-14.425,0.284-19.448-3.613c-12.594-9.781-8.274-29.428-3.735-39.496c1.037-2.302,0.715-4.987-0.837-6.979
		c-1.55-1.991-4.073-2.959-6.564-2.518c-17.392,3.095-33.671-7.231-37.895-24.036c-1.477-5.875-1.059-12.072,0.839-17.729
		c2.557-7.622,7.813-14.26,14.852-17.771c2.786-1.388,4.275-4.488,3.616-7.529c-0.657-3.041-3.294-5.251-6.405-5.362
		c-7.457-0.274-14.984-5.743-18.727-13.609c-6.726-14.133-1.457-37.505,7.476-49.641c13.92-18.908,47.472-25.288,69.046-13.12
		c2.153,1.215,4.807,1.164,6.918-0.138c2.108-1.3,3.342-3.648,3.222-6.123c-0.548-11.201,4.863-22.835,13.785-29.641
		c8.912-6.801,21.553-8.946,32.217-5.461c0.005,0,0.008,0.003,0.013,0.003c3.576,1.183,7.415-0.784,8.582-4.352
		c0.657-2.013,0.327-4.108-0.723-5.764c-0.694-2.863-1.577-11.451-1.88-14.412c-0.191-1.85-0.34-3.249-0.425-3.802
		c-0.915-5.913-0.691-9.664,0.88-14.864c3.517-11.623,10.722-22.058,20.288-29.385c4.538-3.477,11.025-4.934,16.935-3.781
		c2.573,0.5,7.277,1.997,9.874,6.391c1.763,2.994,5.503,4.177,8.667,2.741c3.164-1.433,4.743-5.019,3.658-8.321
		c-2.932-8.941,1.17-16.874,3.874-20.806c5.607-8.154,14.665-13.492,23.638-13.931c19.035-0.915,35.606,14.59,42.16,30.401
		c1.031,2.488,3.435,4.137,6.128,4.198c2.592,0.077,5.171-1.47,6.319-3.908c4.036-8.585,11.847-15.287,21.997-18.871
		c11.171-3.937,23.731-3.427,33.607,1.372c19.24,9.356,31.079,33.028,28.146,56.288c-0.324,2.568,0.837,5.099,2.996,6.527
		c2.164,1.43,4.942,1.51,7.181,0.207c10.18-5.926,24.502-4.496,33.309,3.318c8.811,7.816,11.932,21.864,7.263,32.679
		c-1.141,2.64-0.5,5.708,1.6,7.67c2.098,1.962,5.2,2.401,7.763,1.079c6.439-3.313,14.519-3.398,22.167-0.229
		c6.115,2.536,10.919,6.753,13.74,11.861c0.707,1.281,1.323,2.604,1.765,3.987c2.207,6.902,0.952,14.885-3.438,21.904
		c-4.392,7.019-11.023,11.637-18.193,12.671c-1.802,0.261-3.427,1.234-4.506,2.701c-1.082,1.468-1.529,3.307-1.242,5.104
		c1.776,11.155-4.004,23.406-13.742,29.13c-9.738,5.721-23.255,4.807-32.134-2.169c-1.542-1.21-3.531-1.691-5.463-1.337
		c-1.927,0.362-3.605,1.539-4.602,3.228c-2.845,4.817-8.834,7.835-15.627,7.877c-0.045,0-0.09,0-0.138,0
		c-6.737,0-12.703-2.94-15.585-7.694c-1.401-2.308-4.041-3.576-6.716-3.217c-2.677,0.356-4.892,2.262-5.642,4.857
		c-1.117,3.855-4.477,7.138-8.991,8.784c-4.514,1.651-9.201,1.295-12.535-0.936c-1.269-0.851-2.72-1.194-4.139-1.119
		c0.096-6.681,0.157-13.47,0.162-20.429c0.003-2.252-1.111-4.36-2.972-5.628c-0.882-0.601-1.744-1.115-2.6-1.602
		c-15.163-8.631-26.248,0.138-35.144,10.091c-1.079,1.204-1.694,2.757-1.731,4.373c-0.165,6.961-0.426,13.931-0.732,20.903
		c-1.05,4.482-5.383,9.05-11.74,12.297c-8.741,4.466-19.232,5.519-25.52,2.568c-3.172-1.489-6.947-0.33-8.741,2.677
		c-1.789,3.01-1.008,6.883,1.81,8.962c3.371,2.483,3.935,7.104,3.337,10.6c-0.596,3.496-2.659,7.67-6.665,8.896
		c-1.44,0.441-2.611,1.329-3.446,2.452c-23.148-27.465-49.129-52.593-77.191-74.447c-1.866-1.452-4.352-1.832-6.559-1.008
		c-16.297,6.072-16.297,19.347-16.297,31.058c0,1.672,0.617,3.286,1.731,4.533c21.434,24.003,41.199,47.333,60.116,70.919
		C560.127,402.807,558.477,413.738,552.558,420.25z M865.267,1118.719c-3.722,10.927-8.258,17.36-12.442,17.656
		c-8.476,0.575-20.461-15.739-30.857-33.135c-7.5-12.551-14.174-25.663-18.098-33.41c-2.733-5.392-5.091-10.049-6.912-13.28
		l-33.375-59.207l23.174-13.984c3.22-1.941,4.254-6.125,2.313-9.342c-1.943-3.222-6.133-4.256-9.342-2.313l-22.832,13.775
		l-65.688-116.531c18.5-2.675,36.095-10.657,50.257-22.936c2.839-2.462,3.145-6.761,0.683-9.6c-2.462-2.839-6.761-3.148-9.6-0.683
		c-13.551,11.746-30.758,18.879-48.627,20.293l-6.569-11.654c0.508,0.019,1.016,0.052,1.524,0.052c8.135,0,16.244-2.459,22.97-7.149
		c3.081-2.151,3.839-6.394,1.688-9.478c-2.151-3.084-6.391-3.836-9.478-1.688c-6.311,4.405-14.843,5.838-22.25,3.73
		c-0.925-0.261-1.859-0.313-2.756-0.192L608.825,722.8c-1.506-2.672-3.025-5.367-4.55-8.083c4.738,0.684,9.514,1.021,14.286,1.021
		c23.172,0,46.235-7.962,64.271-22.89c2.895-2.395,3.302-6.686,0.904-9.582c-2.398-2.898-6.689-3.299-9.582-0.904
		c-21.296,17.623-51.99,24.046-78.62,16.587c-2.09-3.833-4.161-7.712-6.211-11.622c1.176,0.061,2.354,0.099,3.531,0.099
		c14.965,0,29.864-4.894,41.82-14.069c2.983-2.286,3.547-6.559,1.258-9.542c-2.289-2.983-6.567-3.549-9.542-1.258
		c-12.337,9.462-29.28,13.278-44.517,10.111c-14.333-29.32-26.05-60.55-28.61-93.133c-2.207-28.087,4.369-59.532,20.043-84.132
		c6.089-9.557,13.56-18.069,22.417-24.96c6.937-5.398,14.715-9.811,23.371-12.918c9.563-3.432,19.267-4.972,28.875-4.972
		c5.182,0,10.327,0.495,15.414,1.336c24.085,3.981,46.648,16.735,63.663,32.45c-13.845,24.096-40.31,40.299-68.11,41.447
		c-3.754,0.154-6.673,3.326-6.519,7.083c0.152,3.658,3.166,6.524,6.795,6.524c0.096,0,0.191-0.003,0.287-0.005
		c31.087-1.283,60.781-18.708,77.379-44.933c0.607,0.697,1.243,1.387,1.828,2.089c17.128,20.591,28.457,44.739,36.484,69.446
		c-15.37,14.869-35.332,25.318-56.315,29.414c-3.687,0.721-6.096,4.296-5.376,7.986c0.635,3.249,3.483,5.501,6.673,5.501
		c0.433,0,0.872-0.04,1.313-0.125c21.258-4.153,41.585-14.114,58.025-28.29c4.134,15.02,7.256,30.031,9.862,44.37
		c3.563,19.609,6.458,39.495,8.993,59.415c-1.313,0.27-2.561,0.922-3.554,1.967c-20.468,21.516-44.356,39.084-70.998,52.212
		c-0.407,0.2-0.781,0.439-1.128,0.704c-2.532,1.934-3.431,5.442-1.969,8.407c1.051,2.138,3.087,3.415,5.285,3.688
		c0.276,0.034,0.544,0.114,0.824,0.114c1.01,0,2.036-0.226,3.002-0.705c26.229-12.922,49.882-29.973,70.474-50.64
		c1.249,10.582,2.423,21.155,3.534,31.687c-1.428,0.272-2.784,0.974-3.821,2.146c-11.445,12.926-26.001,23.074-42.088,29.351
		c-3.504,1.367-5.235,5.312-3.868,8.813c1.05,2.69,3.618,4.336,6.343,4.336c0.822,0,1.659-0.152,2.47-0.468
		c15.967-6.229,30.579-15.857,42.643-28.021c0.567,5.544,1.127,11.074,1.683,16.578c3.43,33.911,6.932,68.458,11.895,102.893
		c-1.775-0.2-3.623,0.283-5.105,1.512c-12.83,10.634-26.514,20.482-40.666,29.266c-1.023,0.634-1.791,1.51-2.335,2.494
		c-1.156,2.087-1.206,4.708,0.142,6.878c0.682,1.097,1.632,1.914,2.704,2.458c0.957,0.486,2.011,0.759,3.083,0.759
		c1.226,0,2.467-0.33,3.584-1.024c14.1-8.749,27.727-18.538,40.577-29.071c3.689,23.655,8.155,47.211,13.863,70.425
		c2.212,8.993,5.288,19.022,8.685,29.645c-0.465,0.247-0.914,0.535-1.326,0.9l-23.435,20.793c-2.813,2.496-3.068,6.798-0.574,9.608
		c1.345,1.515,3.214,2.289,5.094,2.289c1.606,0,3.22-0.566,4.514-1.715l20.223-17.942
		C861.165,1036.943,876.412,1085.995,865.267,1118.719z M565.104,223.015c0.234-9.704,5.445-18.663,13.274-22.827
		c10.087-5.373,22.917-3.61,32.581,3.358c1.582-3.212,3.714-6.221,6.33-8.866c6.171-6.248,14.396-9.831,22.571-9.837
		c0.008,0,0.013,0,0.019,0c8.17,0,16.395,3.573,22.571,9.808c6.176,6.24,9.672,14.505,9.587,22.68
		c-0.04,3.735-3.079,6.737-6.803,6.737c-0.024,0-0.048,0-0.072,0c-3.759-0.04-6.774-3.119-6.737-6.875
		c0.048-4.565-2.01-9.289-5.647-12.963c-3.637-3.669-8.337-5.774-12.899-5.774c-0.003,0-0.005,0-0.008,0
		c-4.565,0.003-9.268,2.114-12.899,5.79c-3.634,3.677-5.687,8.404-5.634,12.969c0.035,3.081-2.002,5.801-4.969,6.633
		c-2.964,0.829-6.123-0.433-7.691-3.084c-4.525-7.635-15.712-12.918-23.909-8.558c-3.507,1.866-5.942,6.341-6.056,11.137
		c-0.045,1.842,0.247,6.357,3.898,8.529c3.23,1.922,4.291,6.099,2.369,9.329c-1.273,2.14-3.536,3.326-5.854,3.326
		c-1.186,0-2.385-0.308-3.475-0.957C568.834,239.511,564.894,231.828,565.104,223.015z M773.311,241.973
		c-0.025,0.077-0.05,0.152-0.076,0.229c-1.451,4.341-4.017,8.309-7.535,11.354c-1.287,1.117-2.874,1.662-4.453,1.662
		c-1.906,0-3.802-0.798-5.147-2.35c-2.462-2.842-2.154-7.141,0.689-9.6c3.257-2.821,4.871-7.726,3.924-11.932
		c-0.946-4.201-4.509-7.941-8.662-9.092c-5.974-1.648-13.171,1.191-20.636,4.514c-3.432,1.531-7.457-0.011-8.986-3.446
		c-1.531-3.432,0.013-7.457,3.446-8.986c7.415-3.307,18.621-8.305,29.811-5.2c9.058,2.512,16.241,10.055,18.307,19.219
		C775.015,232.892,774.724,237.615,773.311,241.973z M479.663,339.865c-1.103,3.597-4.916,5.602-8.502,4.514
		c-3.775-1.151-8.547,0.952-10.236,4.501c-1.694,3.557-0.311,8.598,2.956,10.789c3.121,2.095,3.956,6.322,1.861,9.443
		c-1.313,1.957-3.467,3.015-5.657,3.015c-1.305,0-2.621-0.372-3.786-1.154c-8.912-5.977-12.277-18.249-7.667-27.939
		s16.263-14.806,26.517-11.671C478.743,332.466,480.763,336.271,479.663,339.865z"/>
</g>
</svg>
