<?xml version="1.0" encoding="utf-8"?>
<!-- Generator: Adobe Illustrator 23.0.3, SVG Export Plug-In . SVG Version: 6.00 Build 0)  -->
<svg version="1.1" id="Capa_1" xmlns="http://www.w3.org/2000/svg" xmlns:xlink="http://www.w3.org/1999/xlink" x="0px" y="0px"
	 viewBox="0 0 1200 1200" enable-background="new 0 0 1200 1200" xml:space="preserve">
<g>
	<path fill="#3FAD80" d="M947.613,467.507c2.187-2.347,4.124-4.913,5.809-7.636c-0.691,2.894-1.7,5.736-3.016,8.49
		C949.477,468.07,948.557,467.753,947.613,467.507z M1058.449,437.583c3.546-16.119,5.286-32.514,5.609-48.978
		c-12.158,7.012-25.722,10.574-38.937,13.984c-6.257,1.611-12.729,3.282-18.774,5.28c-23.88,7.892-37.786,15.501-38.016,30.711
		c0.197,0.803,0.424,1.597,0.581,2.412c2.152,11.193,0.445,23.054-4.588,33.727c5.873,3.607,11.187,8.133,15.71,13.362
		c0.441,0.315,0.895,0.608,1.327,0.937c14.73,11.237,22.703,29.812,21.733,48.045
		C1031.402,511.269,1050.169,475.223,1058.449,437.583z M959.26,418.616c10.05-14.56,29.997-21.159,42.304-25.227
		c6.528-2.156,13.25-3.889,19.751-5.566c15.233-3.931,29.621-7.642,41.093-16.288c0.497-0.375,0.962-0.787,1.445-1.178
		c-0.995-23.554-4.667-47.101-10.071-70.051c-3.75-15.928-12.476-35.022-28.839-34.908c-14.697,0.103-23.538,15.825-29.611,29.208
		c-9.891,21.796-20.992,43.602-38.003,60.44c-7.626,7.549-16.272,13.918-25.004,20.193c-1.245,3.341-2.63,6.622-4.169,9.799
		C942.982,390.575,954.818,403.446,959.26,418.616z M333.856,354.065c4.832-1.063,9.792-1.539,14.811-1.27
		c3.098-22.755,18.096-43.552,38.711-53.674c9.324-4.578,19.672-6.889,30.053-7.012c-20.82-30.492-52.113-56.515-89.592-73.154
		c-5.721-2.54-11.577-4.88-17.562-7.052c2.962,8.184,5.507,16.519,7.493,24.994C326.771,275.305,325.52,315.573,333.856,354.065z
		 M437.305,294.614c5.659,1.537,11.125,3.764,16.214,6.696c-4.231-23.714,2.936-48.886,17.882-67.708
		c-30.997-31.567-67.481-57.738-107.352-76.913c-24.3-11.686-51.868-20.922-77.909-13.93c-3.221,0.865-6.814,2.407-7.719,5.617
		c-0.87,3.082,1.164,6.155,3.036,8.754c8.162,11.33,15.21,23.452,21.12,36.104c10.876,3.391,21.35,7.299,31.452,11.785
		C379.292,225.114,415.413,256.94,437.305,294.614z M264.567,602.388c0.02-7.055,1.45-14.032,4.352-20.198
		c-2.464-5.032-4.271-10.373-5.327-15.874c-0.059-0.031-0.118-0.064-0.176-0.095c-32.439,2.016-64.515,7.63-94.256,20.389
		c-55.131,23.652-99.025,72.16-117.067,129.374c-3.449,10.94-3.653,26.618,7.357,29.836c5.625,1.644,11.466-1.174,16.798-3.606
		c6.666-3.04,13.564-5.544,20.607-7.543c3.434-15.549,8.405-30.457,15.607-44.282C138.602,640.21,202.24,609.973,264.567,602.388z
		 M435.734,735.755c4.214-4.595,7.645-9.987,10.354-15.933c-5.344-0.996-10.586-2.492-15.643-4.568
		c-19.626-8.055-35.939-25.55-39.386-46.482c-22.085,10.615-48.588,6.451-71.349-2.626c-5.822-2.322-11.584-5.041-17.085-8.178
		c-1.333,3.175-2.388,6.48-3.057,9.812c-4.476,22.321-0.721,41.694,10.861,56.028c10.427,12.904,26.61,20.442,44.402,20.683
		c2.207,0.03,4.292,1.016,5.718,2.701c1.427,1.686,2.049,3.907,1.712,6.09c-1.611,10.405,1.23,21.907,7.437,31.82
		C394.93,774.46,417.334,755.819,435.734,735.755z M279.756,568.269c0.027,0.087,0.062,0.171,0.089,0.258
		c0.525-0.4,1.019-0.828,1.571-1.201C280.877,567.69,280.323,568.004,279.756,568.269z M355.065,790.226
		c-5.426-9.736-8.444-20.535-8.484-31.005c-15.308-1.773-29.31-8.05-40.295-17.85c-30.385,0.89-61.419,4.889-85.997,11.084
		c30.699,16.657,59.855,37.158,94.186,41.17C328.548,795.271,342.12,793.863,355.065,790.226z M185.574,736.686
		c5.05,1.712,10.001,3.704,14.885,5.88c4.519-1.638,9.187-3.113,14.029-4.374c22.707-5.916,50.934-9.993,79.285-11.552
		c-10.565-16.927-13.828-38.557-9.155-61.857c1.07-5.336,2.847-10.542,5.142-15.436c-8.125-6.419-15.039-14.12-19.721-23.365
		c-1.35-2.667-2.431-5.485-3.286-8.381c-58.135,7.149-117.516,35.202-140.769,79.835c-5.456,10.475-9.513,21.753-12.557,33.557
		C137.471,727.036,162.487,728.858,185.574,736.686z M623.719,946.157c11.504-23.384,34.329-38.023,50.75-47.066
		c5.426-2.984,11.001-5.84,16.389-8.598c14.849-7.603,28.873-14.787,40.926-24.892c3.213-2.692,6.355-5.114,9.125-7.246
		c10.397-8.012,16.088-12.425,16.429-21.628c-1.243-0.089-2.468-0.203-3.632-0.372c-6.805-0.992-12.598-3.166-16.928-6.23
		c-7.71,8.053-18.792,12.91-29.948,12.913c-1.915,0-3.827-0.143-5.727-0.438c-13.72-2.126-25.288-11.496-31.357-25.011
		c-1.797,0.049-3.595-0.062-5.389-0.288c-4.12,6.318-8.689,12.313-13.673,17.955c-8.603,35.284-17.206,70.568-25.809,105.852
		C624.473,942.759,624.083,944.448,623.719,946.157z M885.124,774.345c-10.773,0.836-21.557-1.766-31.666-5.585
		c-13.776,16.42-34.583,26.103-55.862,28.677c-21.279,2.573-42.985-1.541-62.99-9.238c-4.346-1.672-8.666-3.523-12.691-5.879
		c-2.176-1.275-7.589-6.922-9.921-6.807c-4.668,0.231-11.649,12.227-15.271,15.527c-5.299,4.829-11.368,8.926-17.92,11.773
		c1.509,0.948,2.705,2.403,3.256,4.238c2.612,8.705,9.599,18.658,21.374,20.481c10.144,1.567,21.374-4.104,26.125-13.196
		c1.427-2.722,4.384-4.292,7.407-4.065c3.065,0.262,5.67,2.341,6.609,5.265c0.536,1.665,4.825,4.637,12.333,5.733
		c9.235,1.346,20.868-0.691,26.053-8.264c1.224-1.787,3.154-2.972,5.301-3.252c2.147-0.283,4.315,0.363,5.959,1.775
		c1.564,1.343,3.02,2.624,4.405,3.836c10.826,9.506,14.876,13.05,28.126,11.451c16.267-1.983,30.461-14.227,33.016-28.477
		c0.736-4.101,4.631-6.823,8.729-6.18c11.077,1.806,22.787-3.542,29.733-12.352c0.033-0.042,0.053-0.09,0.087-0.132
		c0.032-0.04,0.074-0.068,0.106-0.107c2.064-2.67,3.682-5.647,4.721-8.842c-0.24-0.365-0.507-0.711-0.752-1.073
		C896.259,772.218,890.767,773.907,885.124,774.345z M899.386,798.576c4.27,25.872,3.623,60.781-19.781,89.344
		c-18.009,21.982-44.116,33.257-69.362,44.163c-7.323,3.163-14.894,6.436-22.021,9.879c-6.082,2.939-12.031,6.186-17.918,9.566
		c38.523-6.274,77.253-11.361,107.623-34.692c27.593-21.198,43.924-56.283,42.377-91.044c-0.389-8.745-1.912-17.408-4.433-25.777
		c-3.959-1.229-7.821-3.045-11.596-5.436C902.735,796.017,901.098,797.345,899.386,798.576z M827.597,841.949
		c-19.305,2.362-27.798-4.411-38.785-14.03c-4.725,3.945-10.415,6.342-16.218,7.662c0.102,17.511-10.851,25.97-22.379,34.851
		c-2.785,2.144-5.662,4.363-8.634,6.856c-13.369,11.21-28.826,19.123-43.773,26.777c-5.289,2.71-10.76,5.51-15.987,8.387
		c-23.903,13.161-38.305,26.586-45.322,42.248c-1.269,2.829-4.047,4.509-6.96,4.509c-1.042,0-2.103-0.214-3.115-0.67
		c-2.029-0.909-3.443-2.604-4.093-4.56c-1.492,10.9-0.824,21.873,6.546,29.474c7.897,8.143,20.973,8.986,31.834,5.713
		c10.861-3.273,20.33-9.914,30.354-15.224c12.108-6.414,25.033-10.88,38.37-14.319c16.585-11.627,33.803-22.52,52.152-31.39
		c7.419-3.586,15.141-6.921,22.61-10.147c24.659-10.653,47.951-20.713,63.614-39.83c18.5-22.579,20.119-50.497,17.217-72.543
		c-4.219,1.288-8.602,2.023-13.032,2.041C865.727,825.53,848.084,839.45,827.597,841.949z"/>
	<path fill="#FFD18D" d="M929.603,736.819c-2.177,7.033-6.127,13.837-11.275,19.682c-1.809-13.955-9.973-27.068-21.879-34.602
		c3.173-4.94,5.27-10.634,6.188-16.774c9.579,3.673,21.52,6.982,31.687,8.431C933.496,721.44,931.948,729.246,929.603,736.819z
		 M291.902,461.958c4.881-12.979,14.003-29.794,29.743-36.179c5.522-2.24,11.282-2.901,17.219-2.107
		c-5.312-21.632-13.651-42.367-24.558-61.634c-11.056,6.734-20.466,16.588-26.809,27.895c-7.817,13.933-11.534,29.691-12.648,45.534
		c-0.388,5.516,2.397,18.276-0.187,22.888c-2.646,4.723-9.479,3.828-13.629,6.862c-1.387,1.015-2.744,2.107-4.084,3.235
		c9.976,6.146,20.691,11.133,31.845,14.802C288.272,476.198,289.26,468.977,291.902,461.958z M964.324,474.719
		c-0.788,1.672-1.673,3.307-2.622,4.913c6.536,1.657,12.773,4.48,18.332,8.449C975.511,482.853,970.197,478.326,964.324,474.719z
		 M453.519,301.31c-5.089-2.931-10.555-5.158-16.214-6.696c7.583,13.05,13.465,26.796,17.416,41.007
		c6.614-4.325,14.195-7.442,22.295-9.009c0.759-0.149,1.531-0.283,2.308-0.417c2.814-0.491,5.73-0.998,6.9-2.12
		c1.242-1.188,1.882-4.387,2.445-7.213c5.283-26.378,15.481-46.233,30.359-59.26c15.326-13.423,40.289-20.779,61.07-11.168
		c10.736-11.058,26.541-17.628,43.547-17.854c0.304-0.003,0.608-0.006,0.908-0.006c16.624,0,32.194,6.087,43.023,16.612
		c22.247-12.213,50.674-12.169,72.742,0.599c24.713,14.301,44.595,50.23,42.546,76.884c-0.022,0.283-0.095,0.548-0.146,0.821
		c13.816,1.678,27.733,9.003,34.884,20.955c18.253-14.024,44.44-17.428,65.377-7.389c21.91,10.504,35.946,34.705,35.154,58.804
		c15.981,1.492,31.1,10.414,40.809,23.242c0.108-0.161,0.207-0.328,0.318-0.487c-4.442-15.169-16.278-28.041-31.103-33.577
		c1.539-3.177,2.923-6.458,4.169-9.799c7.101-19.05,9.044-40.313,1.1-58.808c-9.338-21.739-35.092-37.047-57.461-29.339
		c7.244-18.388,2.348-40.92-11.872-54.645c-14.221-13.726-36.911-17.82-55.032-9.93c7.923-17.96-0.558-40.351-16.38-51.971
		s-37.111-13.725-56.337-9.763c-7.785,1.604-15.567,4.317-22.482,8.277c-7.779,4.455-14.461,10.489-18.814,18.299
		c-3.009-13.398-15.083-23.553-28.388-26.95c-13.304-3.397-27.529-0.896-40.314,4.113c-26.297,10.304-49.927,37.987-41.108,64.818
		c-26.329-23.297-65.101-33.119-95.308-12.943c-7.049,4.708-13.262,10.57-18.529,17.204
		C456.456,252.424,449.288,277.596,453.519,301.31z M387.378,299.121c-20.614,10.122-35.613,30.919-38.711,53.674
		c-5.019-0.269-9.979,0.207-14.811,1.27c-1.916,0.421-3.805,0.953-5.674,1.562c7.434,13.271,13.715,27.195,18.73,41.599
		c5.548-11.173,14.174-20.415,24.93-25.676c12.211-5.971,27.45-6.174,40.768-0.524c7.548,3.2,13.889,8.095,18.472,14.082
		c-1.784-12.032,0.857-23.767,7.807-34.068c0.92-1.364,1.933-2.666,2.98-3.942c-4.297-19.168-12.695-37.789-24.439-54.989
		C407.05,292.231,396.701,294.542,387.378,299.121z M264.567,602.388c5.992-0.729,11.971-1.26,17.905-1.568
		c-5.524-5.35-10.153-11.685-13.553-18.63C266.017,588.356,264.587,595.333,264.567,602.388z M262.537,557.391
		c-0.786-21.669,10.516-41.736,31.25-55.987c-0.145-0.289-0.249-0.591-0.388-0.882c-16.754-4.402-32.776-11.562-47.31-20.931
		c-10.525,13.103-17.256,29.795-15.444,46.513c1.036,9.553,17.261,31.81,32.77,40.117c0.059,0.031,0.118,0.064,0.176,0.095
		C263.027,563.376,262.646,560.397,262.537,557.391z M319.71,666.146c-5.822-2.322-11.584-5.041-17.085-8.178
		c4.459-10.624,12.166-19.736,20.09-22.99c4.676-1.912,8.848-1.572,12.753,1.063c2.761,1.861,6.409,1.721,9.015-0.357
		c2.606-2.076,3.562-5.602,2.362-8.708c-5.277-13.673-2.034-31.616,8.077-44.646c5.872-7.57,13.038-12.057,20.228-12.964
		c-0.136,3.73,0.058,7.471,0.702,11.168c0.646,3.705,3.866,6.317,7.502,6.317c0.435,0,0.876-0.036,1.316-0.113
		c4.149-0.721,6.927-4.67,6.204-8.818c-3.35-19.242,8.157-40.184,26.196-47.677c18.033-7.493,40.997-0.864,52.264,15.093
		c1.87,2.648,5.215,3.815,8.318,2.933c3.115-0.89,5.328-3.648,5.522-6.883c0.789-13.366,6.978-25.722,16.55-33.058
		c10.001-7.66,23.745-9.444,34.21-4.449c10.656,5.09,17.16,17.518,14.805,28.299c-0.899,4.113,1.706,8.175,5.822,9.075
		c4.11,0.885,8.178-1.707,9.075-5.822c3.863-17.687-6.081-37.168-23.131-45.31c-15.498-7.404-35.613-4.953-50.051,6.102
		c-9.143,7.005-16.014,17.235-19.662,28.832c-16.496-12.901-40.14-16.967-59.569-8.893c-16.026,6.655-28.187,21.188-33.373,37.743
		c-12.837-0.045-25.394,6.734-34.976,19.077c-6.948,8.959-11.316,19.512-12.988,30.204c-5.709-0.933-11.581-1.605-17.565-2.054
		c-14.978-4.061-27.65-17.274-32.473-32.605c0.525-0.4,1.019-0.828,1.571-1.201c-0.539,0.364-1.093,0.678-1.66,0.943
		c-1.148-3.723-1.842-7.565-1.982-11.43c-0.926-25.609,20.82-40.959,30.214-46.37c1.87-1.075,3.196-2.895,3.648-5.006
		c0.453-2.112-0.009-4.312-1.275-6.064c-6.79-9.405-8.318-21.094-4.187-32.072c5.385-14.319,12.916-24.058,21.205-27.42
		c5.316-2.153,11.07-1.721,17.565,1.34c2.528,1.197,5.516,0.902,7.767-0.756c1.796-1.322,2.858-3.347,3.039-5.516
		c0.478-1.281,0.64-2.699,0.353-4.139c-0.247-1.241-0.534-2.472-0.8-3.708c-0.273-17.874,8.888-34.86,23.24-41.879
		c8.3-4.065,18.816-4.131,28.117-0.188c8.053,3.416,13.765,9.232,16.085,16.377c0.944,2.913,3.541,4.979,6.594,5.242
		c3.026,0.295,5.962-1.319,7.398-4.026c4.667-8.821,16.705-13.676,28.004-11.272c10.507,2.222,20.648,10.063,27.825,21.508
		c2.237,3.565,6.939,4.643,10.51,2.409c3.568-2.237,4.646-6.942,2.409-10.51c-9.36-14.927-23.06-25.252-37.585-28.325
		c-7.541-1.598-15.183-1.059-22.129,1.123c0.086-6.346,2.021-12.478,5.758-18.018c6.165-9.134,16.511-15.692,28.382-17.988
		c0.667-0.128,1.346-0.244,2.025-0.363c4.592-0.798,10.304-1.793,14.834-6.126c4.706-4.509,5.897-10.456,6.9-15.478
		c4.56-22.771,13.104-39.773,25.401-50.54c12.184-10.659,33.358-16.6,48.595-6.594c3.377,2.219,7.889,1.418,10.301-1.823
		c7.696-10.34,21.112-16.633,35.881-16.83c14.688-0.271,28.352,5.733,36.325,15.871c2.478,3.151,6.978,3.845,10.287,1.584
		c17.899-12.196,43.484-13.14,62.223-2.299c19.578,11.329,36.578,41.712,34.982,62.518c-0.064,0.826,0.041,1.62,0.227,2.383
		c-17.246,2.738-32.451,12.207-46.615,21.814c-3.484,2.365-4.393,7.106-2.031,10.59c2.371,3.487,7.109,4.387,10.59,2.031
		c13.944-9.459,28.879-18.786,44.661-19.882c13.875-0.974,30.294,7.085,32.513,20.621c0.479,2.934,2.621,5.319,5.486,6.114
		c2.856,0.792,5.93-0.149,7.85-2.415c13.125-15.475,37.736-20.728,56.04-11.954c18.301,8.774,29.621,31.256,25.77,51.18
		c-0.453,2.35,0.223,4.78,1.829,6.555c1.608,1.778,3.928,2.716,6.341,2.484c19.483-1.793,39.907,13.595,43.612,32.852
		c1.005,5.226,0.755,10.676-0.515,15.996c-1.685,2.723-3.621,5.289-5.809,7.636c0.944,0.246,1.864,0.562,2.793,0.853
		c-1.616,3.383-3.656,6.62-6.156,9.591c-7.032,0.382-13.996,2.006-20.428,4.937c-5.974-13.435-19.412-23.569-34.207-24.647
		c-18.497-1.379-36.831,11.543-41.864,29.335c-1.147,4.053,1.209,8.264,5.259,9.411c4.071,1.156,8.264-1.209,9.411-5.259
		c3.085-10.903,14.76-19.141,26.086-18.28c11.299,0.825,21.687,10.632,23.161,21.866c0.348,2.66,2.07,4.944,4.536,6.007
		c2.463,1.063,5.304,0.756,7.484-0.816c13.938-10.069,34.758-9.789,48.422,0.64c13.67,10.424,19.438,30.428,13.426,46.528
		c-0.765,2.046-0.613,4.321,0.411,6.248c0.817,1.536,2.139,2.712,3.713,3.393c-0.545,1.235-1.104,2.45-1.694,3.606
		c-6.699,13.12-15.381,17.941-28.039,23.88c-0.824,0.387-1.725,0.875-1.988,1.746c-0.246,0.815,0.156,1.669,0.533,2.431
		c7.78,15.751,9.37,37.924,3.716,54.605c-4.924,14.935-15.438,27.953-29.003,35.909c1.095,6.177,1.653,12.441,1.78,18.713
		c-10.467-1.701-23.931-5.655-32.719-9.774c-0.926-4.994-2.582-9.758-4.818-14.17c17.412-7.912,27.718-26.362,26.879-49.742
		c-0.75-20.94-11.805-45.128-34.806-51.954c-8.303-2.466-17.485-2.865-27.369-1.2c-7.859-17.527-24.671-28.9-44.521-29.561
		c-17.55-0.533-31.414,11.091-32.182,27.164c-0.203,4.205,3.044,7.776,7.252,7.979c4.217,0.208,7.776-3.047,7.979-7.252
		c0.414-8.649,8.592-12.91,16.445-12.648c15.579,0.518,28.477,10.444,32.861,25.291c1.161,3.931,5.23,6.233,9.185,5.233
		c9.771-2.478,18.524-2.606,26.014-0.387c15.656,4.649,23.367,22.896,23.906,37.885c0.522,14.56-4.796,31.164-20.801,36.459
		c-2.504-2.481-5.243-4.679-8.224-6.457c-26.833-16.002-59.45-3.282-76.494,16.818c-2.725,3.21-2.329,8.023,0.882,10.745
		c3.211,2.728,8.023,2.329,10.745-0.882c13-15.335,37.412-25.306,57.059-13.583c8.607,5.131,14.563,15.32,15.543,26.586
		c0.855,9.813-2.266,18.557-8.565,23.989c-2.091,1.805-3.044,4.601-2.49,7.305c0.557,2.707,2.531,4.902,5.164,5.736
		c14.688,4.658,24.436,21.89,20.865,36.879c-0.029,0.121-0.075,0.236-0.106,0.356c-0.414,0.222-0.837,0.423-1.256,0.632
		c-5.133,2.568-10.626,4.257-16.268,4.694c-10.773,0.836-21.557-1.766-31.666-5.585c-13.776,16.42-34.583,26.103-55.862,28.677
		c-21.279,2.573-42.985-1.541-62.99-9.238c-4.346-1.672-8.666-3.523-12.691-5.879c-2.176-1.275-7.589-6.922-9.921-6.807
		c-4.668,0.231-11.649,12.227-15.271,15.527c-5.299,4.829-11.368,8.926-17.92,11.773c-1.712-1.075-3.831-1.491-5.941-0.956
		c-10.468,2.683-24.195-5.873-32.343-15.719c-7.002-8.467-9.804-19.382-7.311-28.486c4.982-18.22,28.596-25.317,49.429-31.578
		l1.245-0.375c2.919-0.876,5.033-3.41,5.379-6.439c0.342-3.029-1.15-5.971-3.797-7.481c-4.044-2.308-10.159-16.222-7.18-25.654
		c0.718-2.278,2.636-8.315,16.014-7.088c6.498,0.602,12.753,4.962,15.567,10.849c1.817,3.794,6.37,5.408,10.167,3.592
		c3.8-1.817,5.405-6.367,3.592-10.167c-3.656-7.645-10.297-13.667-18.082-16.923c2.466-15.306-2.401-23.167-8.135-30.397
		c-11.091-13.997-31.158-16.365-46.105-12.508c-10.421,2.686-18.977,8.089-25.725,14.033c-5.206-17.39-18.95-31.86-35.97-36.045
		c-11.919-2.928-25.499-0.244-36.325,7.168c-10.147,6.951-16.788,17.315-18.226,28.436c-0.539,4.175,2.409,7.999,6.585,8.538
		c4.169,0.524,7.999-2.409,8.538-6.585c0.882-6.817,5.152-13.309,11.722-17.809c7.299-5,16.285-6.85,24.067-4.941
		c15.415,3.791,27.34,20.829,26.58,37.984c-0.149,3.336,1.894,6.382,5.036,7.511c3.151,1.132,6.656,0.083,8.669-2.588
		c8.136-10.802,18.387-18.235,28.856-20.937c9.852-2.537,23.548-1.37,30.351,7.213c4.023,5.077,6.569,8.938,5.105,18.205
		c-19.063,0.208-25.072,12.316-26.822,17.87c-3.324,10.528-0.587,23.605,4.67,32.953c-21.115,6.737-43.684,16.374-49.908,39.139
		c-3.782,13.816,0.152,29.996,10.269,42.227c0.632,0.764,1.291,1.52,1.971,2.269c-14.043-8.513-26.008-22.083-31.232-36.156
		c-21.453,8.28-45.483,12.754-67.417,5.848c-21.934-6.906-40.577-27.678-39.178-50.631c-15.19,4.154-31.436,5.505-46.828,2.636
		c-5.344-0.996-10.586-2.492-15.643-4.568c-19.626-8.055-35.939-25.55-39.386-46.482C368.973,679.387,342.47,675.224,319.71,666.146
		z M589.171,412.926c3.747,1.909,8.345,0.429,10.26-3.321c9.822-19.221,29.347-31.384,47.549-29.496
		c9.581,0.974,19.12,7.043,24.895,15.838c4.86,7.404,6.284,15.439,4.006,22.625c-1.111,3.496,0.429,7.288,3.66,9.024
		c3.228,1.724,7.24,0.923,9.542-1.936c7.856-9.748,23.248-12.919,34.317-7.061c10.727,5.676,16.731,19.483,13.771,31.235
		c-0.137,0.462-0.268,0.929-0.39,1.397c-1.048,4.018,1.307,8.133,5.304,9.265c0.694,0.194,1.391,0.289,2.076,0.289
		c3.273,0,6.293-2.126,7.291-5.408c0.149-0.488,0.286-0.977,0.417-1.468c3.702-12.172,14.81-21.803,27.426-23.62
		c13.021-1.876,26.842,4.685,33.63,15.954c2.174,3.61,6.865,4.777,10.462,2.6c3.607-2.171,4.771-6.856,2.6-10.462
		c-9.855-16.374-29.934-25.901-48.866-23.185c-10.019,1.444-19.385,6.278-26.696,13.256c-3.598-9.81-10.564-18.396-19.894-23.331
		c-12.017-6.361-26.839-6.07-38.969-0.262c-1.024-5.938-3.359-11.826-6.939-17.279c-8.357-12.726-21.851-21.19-36.098-22.64
		c-24.26-2.49-50.051,13.041-62.673,37.727C583.935,406.416,585.422,411.008,589.171,412.926z M289.759,649.348
		c6.162-13.143,16.178-23.965,27.165-28.474c4.122-1.691,8.302-2.451,12.352-2.327c-19.382-3.376-40.862-3.608-62.525-0.944
		c0.855,2.896,1.936,5.714,3.286,8.381C274.721,635.228,281.634,642.929,289.759,649.348z"/>
	<path d="M585.85,402.666c12.622-24.686,38.412-40.217,62.673-37.727c14.248,1.45,27.742,9.914,36.098,22.64
		c3.58,5.453,5.915,11.341,6.939,17.279c12.13-5.807,26.952-6.099,38.969,0.262c9.331,4.935,16.297,13.521,19.894,23.331
		c7.311-6.978,16.678-11.811,26.696-13.256c18.932-2.716,39.011,6.811,48.866,23.185c2.171,3.607,1.007,8.291-2.6,10.462
		c-3.598,2.177-8.288,1.01-10.462-2.6c-6.787-11.269-20.609-17.83-33.63-15.954c-12.615,1.817-23.724,11.448-27.426,23.62
		c-0.131,0.491-0.268,0.98-0.417,1.468c-0.998,3.282-4.018,5.408-7.291,5.408c-0.685,0-1.382-0.095-2.076-0.289
		c-3.997-1.132-6.352-5.248-5.304-9.265c0.122-0.468,0.253-0.935,0.39-1.397c2.96-11.752-3.044-25.559-13.771-31.235
		c-11.07-5.858-26.461-2.686-34.317,7.061c-2.302,2.859-6.314,3.66-9.542,1.936c-3.231-1.736-4.771-5.527-3.66-9.024
		c2.278-7.186,0.855-15.221-4.006-22.625c-5.775-8.795-15.314-14.864-24.895-15.838c-18.203-1.888-37.727,10.275-47.549,29.496
		c-1.915,3.75-6.513,5.23-10.26,3.321C585.422,411.008,583.935,406.416,585.85,402.666z M1131.922,619.131
		c-18.649,41.14-55.816,71.894-102.022,84.468c-7.152,16.679-21.989,29.678-39.462,34.558c0.316,22.039-11.826,43.815-31.155,54.703
		c-10.814,6.09-20.948,9.14-30.517,9.14c-4.417,0-8.707-0.686-12.894-1.985c-3.959-1.229-7.821-3.045-11.596-5.436
		c-1.54,1.438-3.178,2.766-4.89,3.998c4.27,25.872,3.623,60.781-19.781,89.344c-18.009,21.982-44.116,33.257-69.362,44.163
		c-7.323,3.163-14.894,6.436-22.021,9.879c-6.082,2.939-12.031,6.186-17.918,9.566c-24.762,14.216-47.943,31.796-70.474,48.967
		c-25.124,19.144-51.102,38.943-79.526,54.292c-4.58,2.472-9.536,4.875-15.4,4.875c-0.25,0-0.5-0.006-0.751-0.015
		c-12.824-0.441-20.686-12.41-23.268-16.344c-31.634-48.175-28.954-116.193,6.373-161.73c4.88-6.291,9.971-12.68,15.282-18.925
		c-3.744,0.628-7.385,0.981-10.913,0.981c-16.788,0.003-31.324-7.151-45.536-21.779c-13.985,8.491-29.68,11.296-45.807,8.122
		c-14.324-2.823-28.291-10.441-40.135-21.477c-8.538,19.667-22.575,36.373-40.195,47.631
		c-17.011,10.876-37.364,16.431-57.666,16.431c-15.212,0-30.398-3.118-44.139-9.45c-5.584-2.573-10.969-5.134-16.213-7.63
		c-37.549-17.866-67.205-31.971-112.188-21.395c-7.392,1.739-14.93,3.907-22.22,6.004c-15.272,4.39-31.065,8.932-47.52,10.233
		c-5.128,0.411-11.109,0.447-16.579-2.38c-13.205-6.811-13.482-23.998-13.589-30.467c-0.551-34.498-0.211-70.082,7.015-102.801
		c3.434-15.549,8.405-30.457,15.607-44.282c26.14-50.18,89.778-80.417,152.106-88.002c5.992-0.729,11.971-1.26,17.905-1.568
		c-5.524-5.35-10.153-11.685-13.553-18.63c-2.464-5.032-4.271-10.373-5.327-15.874c-0.565-2.941-0.946-5.919-1.054-8.926
		c-0.786-21.669,10.516-41.736,31.25-55.987c-0.145-0.289-0.249-0.591-0.388-0.882c-16.754-4.402-32.776-11.562-47.31-20.931
		c-17.575-11.33-32.975-25.87-44.774-42.727c-19.948-28.501-29.731-61.678-39.19-93.762l-37.838-128.326
		c-1.736-5.879-6.349-21.502,4.152-30.967c5.879-5.295,13.825-5.7,18.572-5.944c61.622-3.139,111.975,1.776,155.565,15.367
		c10.876,3.391,21.35,7.299,31.452,11.785c45.264,20.097,81.384,51.923,103.277,89.597c7.583,13.05,13.465,26.796,17.416,41.007
		c6.614-4.325,14.195-7.442,22.295-9.009c0.759-0.149,1.531-0.283,2.308-0.417c2.814-0.491,5.73-0.998,6.9-2.12
		c1.242-1.188,1.882-4.387,2.445-7.213c5.283-26.378,15.481-46.233,30.359-59.26c15.326-13.423,40.289-20.779,61.07-11.168
		c10.736-11.058,26.541-17.628,43.547-17.854c0.304-0.003,0.608-0.006,0.908-0.006c16.624,0,32.194,6.087,43.023,16.612
		c22.247-12.213,50.674-12.169,72.742,0.599c24.713,14.301,44.595,50.23,42.546,76.884c-0.022,0.283-0.095,0.548-0.146,0.821
		c13.816,1.678,27.733,9.003,34.884,20.955c18.253-14.024,44.44-17.428,65.377-7.389c21.91,10.504,35.946,34.705,35.154,58.804
		c15.981,1.492,31.1,10.414,40.809,23.242c0.108-0.161,0.207-0.328,0.318-0.487c10.05-14.56,29.997-21.159,42.304-25.227
		c6.528-2.156,13.25-3.889,19.751-5.566c15.233-3.931,29.621-7.642,41.093-16.288c0.497-0.375,0.962-0.787,1.445-1.178
		c8.322-6.727,14.718-15.745,21.439-25.295c3.627-5.149,7.374-10.474,11.508-15.492c4.095-4.974,10.59-11.621,19.677-11.981
		c0.268-0.012,0.539-0.015,0.807-0.015c13.33,0,22.661,13.089,23.873,33.644l6.775,114.654
		C1150.821,514.773,1154.097,570.2,1131.922,619.131z M288.794,483.254c-0.522-7.056,0.466-14.277,3.108-21.296
		c4.881-12.979,14.003-29.794,29.743-36.179c5.522-2.24,11.282-2.901,17.219-2.107c-5.312-21.632-13.651-42.367-24.558-61.634
		c-26.398-46.631-67.782-84.646-117.503-105.788c-3.875-1.647-5.679-6.126-4.032-10.001c1.647-3.872,6.126-5.676,10.001-4.032
		c53.183,22.615,97.397,63.401,125.411,113.41c7.434,13.271,13.715,27.195,18.73,41.599c5.548-11.173,14.174-20.415,24.93-25.676
		c12.211-5.971,27.45-6.174,40.768-0.524c7.548,3.2,13.889,8.095,18.472,14.082c-1.784-12.032,0.857-23.767,7.807-34.068
		c0.92-1.364,1.933-2.666,2.98-3.942c-4.297-19.168-12.695-37.789-24.439-54.989c-20.82-30.492-52.113-56.515-89.592-73.154
		c-5.721-2.54-11.577-4.88-17.562-7.052c-44.558-16.166-96.798-22.179-162.489-18.808c-3.687,0.188-7.431,0.5-9.14,2.043
		c-2.234,2.01-2.144,7.168,0.262,15.323l37.838,128.329c9.116,30.91,18.542,62.872,37.057,89.33
		c11.258,16.083,26.134,29.854,43.144,40.332C266.925,474.599,277.64,479.585,288.794,483.254z M448.701,815.877
		c-0.754-0.984-1.502-1.975-2.225-2.992c-25.627,17.586-48.324,21.761-77.674-5.185c-5.538-5.085-10.156-11.05-13.736-17.474
		c-5.426-9.736-8.444-20.535-8.484-31.005c-15.308-1.773-29.31-8.05-40.295-17.85c-30.385,0.89-61.419,4.889-85.997,11.084
		c-0.651,0.164-1.319,0.323-1.961,0.49c-30.148,7.856-54.134,24.624-65.806,46.007c-1.385,2.534-4,3.97-6.698,3.97
		c-1.236,0-2.487-0.298-3.648-0.932c-3.696-2.016-5.054-6.65-3.038-10.346c11.942-21.878,33.441-38.969,61.319-49.078
		c4.519-1.638,9.187-3.113,14.029-4.374c22.707-5.916,50.934-9.993,79.285-11.552c-10.565-16.927-13.828-38.557-9.155-61.857
		c1.07-5.336,2.847-10.542,5.142-15.436c6.162-13.143,16.178-23.965,27.165-28.474c4.122-1.691,8.302-2.451,12.352-2.327
		c-19.382-3.376-40.862-3.608-62.525-0.944c-58.135,7.149-117.516,35.202-140.769,79.835c-5.456,10.475-9.513,21.753-12.557,33.557
		c-8.51,32.991-8.914,70.192-8.337,106.233c0.158,9.78,1.903,15.394,5.331,17.163c2.061,1.06,5.245,0.974,8.384,0.73
		c14.927-1.182,29.296-5.313,44.512-9.688c7.466-2.147,15.186-4.366,22.944-6.192c50.188-11.811,83.576,4.077,122.23,22.467
		c5.188,2.472,10.516,5.006,16.04,7.553c27.489,12.663,61.723,10.316,87.216-5.98C428.72,852.43,441.811,835.609,448.701,815.877z
		 M625.352,838.934c0.372-0.331,0.732-0.681,1.106-1.008c8.636-7.546,16.222-16.132,22.742-25.509
		c-6.984-3.583-13.373-8.69-18.458-14.292c-0.68-0.749-1.339-1.505-1.971-2.269c-10.117-12.231-14.051-28.412-10.269-42.227
		c6.224-22.765,28.793-32.402,49.908-39.139c-5.256-9.348-7.993-22.426-4.67-32.953c1.75-5.554,7.76-17.661,26.822-17.87
		c1.464-9.267-1.082-13.128-5.105-18.205c-6.802-8.583-20.499-9.751-30.351-7.213c-10.468,2.701-20.719,10.135-28.856,20.937
		c-2.013,2.671-5.519,3.72-8.669,2.588c-3.142-1.129-5.185-4.175-5.036-7.511c0.759-17.154-11.165-34.192-26.58-37.984
		c-7.782-1.909-16.767-0.06-24.067,4.941c-6.57,4.5-10.841,10.992-11.722,17.809c-0.539,4.175-4.369,7.109-8.538,6.585
		c-4.175-0.539-7.124-4.363-6.585-8.538c1.438-11.12,8.08-21.484,18.226-28.436c10.826-7.413,24.406-10.096,36.325-7.168
		c17.02,4.184,30.765,18.655,35.97,36.045c6.749-5.944,15.305-11.347,25.725-14.033c14.947-3.857,35.014-1.489,46.105,12.508
		c5.733,7.23,10.601,15.091,8.135,30.397c7.785,3.256,14.427,9.278,18.082,16.923c1.814,3.8,0.208,8.351-3.592,10.167
		c-3.797,1.817-8.351,0.203-10.167-3.592c-2.814-5.888-9.069-10.248-15.567-10.849c-13.378-1.227-15.296,4.81-16.014,7.088
		c-2.978,9.432,3.136,23.346,7.18,25.654c2.648,1.51,4.14,4.452,3.797,7.481c-0.345,3.029-2.46,5.563-5.379,6.439l-1.245,0.375
		c-20.832,6.26-44.446,13.357-49.429,31.578c-2.493,9.104,0.31,20.019,7.311,28.486c8.148,9.846,21.875,18.402,32.343,15.719
		c2.11-0.535,4.229-0.119,5.941,0.956c1.509,0.948,2.705,2.403,3.256,4.238c2.612,8.705,9.599,18.658,21.374,20.481
		c10.144,1.567,21.374-4.104,26.125-13.196c1.427-2.722,4.384-4.292,7.407-4.065c3.065,0.262,5.67,2.341,6.609,5.265
		c0.536,1.665,4.825,4.637,12.333,5.733c9.235,1.346,20.868-0.691,26.053-8.264c1.224-1.787,3.154-2.972,5.301-3.252
		c2.147-0.283,4.315,0.363,5.959,1.775c1.564,1.343,3.02,2.624,4.405,3.836c10.826,9.506,14.876,13.05,28.126,11.451
		c16.267-1.983,30.461-14.227,33.016-28.477c0.736-4.101,4.631-6.823,8.729-6.18c11.077,1.806,22.787-3.542,29.733-12.352
		c0.033-0.042,0.053-0.09,0.087-0.132c0.032-0.04,0.074-0.068,0.106-0.107c2.064-2.67,3.682-5.647,4.721-8.842
		c0.183-0.564,0.359-1.129,0.505-1.705c0.031-0.12,0.077-0.236,0.106-0.356c3.571-14.989-6.177-32.221-20.865-36.879
		c-2.633-0.834-4.607-3.029-5.164-5.736c-0.554-2.704,0.399-5.501,2.49-7.305c6.299-5.432,9.42-14.176,8.565-23.989
		c-0.98-11.266-6.936-21.455-15.543-26.586c-19.647-11.722-44.059-1.751-57.059,13.583c-2.722,3.21-7.535,3.61-10.745,0.882
		c-3.21-2.722-3.607-7.535-0.882-10.745c17.044-20.1,49.661-32.819,76.494-16.818c2.98,1.778,5.72,3.976,8.224,6.457
		c16.005-5.295,21.323-21.899,20.801-36.459c-0.539-14.989-8.25-33.236-23.906-37.885c-7.49-2.219-16.243-2.091-26.014,0.387
		c-3.955,1.001-8.023-1.301-9.185-5.233c-4.384-14.846-17.282-24.772-32.861-25.291c-7.853-0.262-16.031,4-16.445,12.648
		c-0.203,4.205-3.761,7.46-7.979,7.252c-4.208-0.203-7.454-3.773-7.252-7.979c0.768-16.073,14.632-27.697,32.182-27.164
		c19.849,0.661,36.661,12.035,44.521,29.561c9.885-1.665,19.066-1.266,27.369,1.2c23,6.826,34.055,31.015,34.806,51.954
		c0.839,23.38-9.468,41.83-26.879,49.742c2.235,4.413,3.892,9.176,4.818,14.17c8.788,4.119,22.253,8.073,32.719,9.774
		c3.409,0.554,6.513,0.881,9.008,0.881c0.068,0,0.131,0,0.2,0c11.508-0.08,22.155-5.376,27.119-13.488
		c5.042-8.241,3.282-20.141-3.693-24.966c-2.928-2.022-4.065-5.804-2.74-9.107c1.322-3.303,4.729-5.268,8.276-4.691
		c22.589,3.583,47.246-13.56,51.719-35.997c4.476-22.44-11.71-47.74-33.957-53.083c-0.43-0.103-0.836-0.267-1.236-0.44
		c-1.574-0.681-2.897-1.857-3.713-3.393c-1.024-1.927-1.176-4.202-0.411-6.248c6.013-16.1,0.244-36.104-13.426-46.528
		c-13.664-10.43-34.484-10.71-48.422-0.64c-2.18,1.572-5.021,1.879-7.484,0.816c-2.466-1.063-4.187-3.347-4.536-6.007
		c-1.474-11.234-11.862-21.041-23.161-21.866c-11.326-0.861-23,7.377-26.086,18.28c-1.147,4.05-5.34,6.415-9.411,5.259
		c-4.05-1.147-6.406-5.358-5.259-9.411c5.033-17.792,23.367-30.714,41.864-29.335c14.796,1.078,28.233,11.213,34.207,24.647
		c6.432-2.931,13.396-4.555,20.428-4.937c2.5-2.971,4.54-6.208,6.156-9.591c1.316-2.754,2.325-5.595,3.016-8.49
		c1.271-5.32,1.521-10.77,0.515-15.996c-3.705-19.257-24.129-34.645-43.612-32.852c-2.412,0.232-4.732-0.706-6.341-2.484
		c-1.605-1.775-2.281-4.205-1.829-6.555c3.851-19.924-7.469-42.406-25.77-51.18c-18.304-8.774-42.915-3.52-56.04,11.954
		c-1.921,2.266-4.994,3.207-7.85,2.415c-2.865-0.795-5.006-3.181-5.486-6.114c-2.219-13.536-18.637-21.595-32.513-20.621
		c-15.781,1.096-30.717,10.424-44.661,19.882c-3.482,2.356-8.22,1.456-10.59-2.031c-2.362-3.484-1.453-8.226,2.031-10.59
		c14.164-9.608,29.369-19.077,46.615-21.814c-0.186-0.763-0.291-1.557-0.227-2.383c1.596-20.806-15.403-51.189-34.982-62.518
		c-18.739-10.841-44.324-9.896-62.223,2.299c-3.309,2.26-7.809,1.567-10.287-1.584c-7.973-10.138-21.636-16.142-36.325-15.871
		c-14.769,0.197-28.185,6.489-35.881,16.83c-2.412,3.24-6.924,4.041-10.301,1.823c-15.236-10.007-36.411-4.065-48.595,6.594
		c-12.297,10.766-20.841,27.768-25.401,50.54c-1.004,5.021-2.195,10.969-6.9,15.478c-4.53,4.333-10.242,5.328-14.834,6.126
		c-0.679,0.119-1.358,0.235-2.025,0.363c-11.871,2.296-22.217,8.854-28.382,17.988c-3.737,5.54-5.673,11.671-5.758,18.018
		c6.947-2.182,14.588-2.721,22.129-1.123c14.525,3.073,28.224,13.399,37.585,28.325c2.237,3.568,1.159,8.273-2.409,10.51
		c-3.571,2.234-8.273,1.156-10.51-2.409c-7.177-11.445-17.318-19.287-27.825-21.508c-11.299-2.403-23.337,2.451-28.004,11.272
		c-1.435,2.707-4.372,4.321-7.398,4.026c-3.053-0.262-5.65-2.329-6.594-5.242c-2.32-7.145-8.032-12.961-16.085-16.377
		c-9.301-3.943-19.817-3.878-28.117,0.188c-14.352,7.018-23.513,24.005-23.24,41.879c0.266,1.236,0.552,2.467,0.8,3.708
		c0.287,1.44,0.125,2.858-0.353,4.139c-0.181,2.169-1.243,4.195-3.039,5.516c-2.251,1.659-5.239,1.954-7.767,0.756
		c-6.495-3.062-12.249-3.493-17.565-1.34c-8.288,3.362-15.82,13.101-21.205,27.42c-4.131,10.978-2.603,22.667,4.187,32.072
		c1.266,1.751,1.727,3.952,1.275,6.064c-0.453,2.112-1.778,3.931-3.648,5.006c-9.393,5.411-31.14,20.761-30.214,46.37
		c0.14,3.865,0.834,7.706,1.982,11.43c0.027,0.087,0.062,0.171,0.089,0.258c4.823,15.33,17.495,28.544,32.473,32.605
		c5.984,0.449,11.856,1.121,17.565,2.054c1.672-10.692,6.04-21.245,12.988-30.204c9.582-12.344,22.139-19.122,34.976-19.077
		c5.187-16.555,17.347-31.088,33.373-37.743c19.43-8.074,43.073-4.009,59.569,8.893c3.648-11.597,10.519-21.827,19.662-28.832
		c14.438-11.055,34.553-13.506,50.051-6.102c17.05,8.142,26.994,27.623,23.131,45.31c-0.896,4.116-4.965,6.707-9.075,5.822
		c-4.116-0.899-6.722-4.962-5.822-9.075c2.356-10.781-4.149-23.209-14.805-28.299c-10.465-4.994-24.21-3.21-34.21,4.449
		c-9.572,7.335-15.76,19.692-16.55,33.058c-0.194,3.234-2.406,5.992-5.522,6.883c-3.103,0.882-6.448-0.286-8.318-2.933
		c-11.266-15.957-34.231-22.586-52.264-15.093c-18.039,7.493-29.546,28.436-26.196,47.677c0.724,4.149-2.055,8.098-6.204,8.818
		c-0.441,0.077-0.882,0.113-1.316,0.113c-3.636,0-6.856-2.612-7.502-6.317c-0.644-3.697-0.838-7.438-0.702-11.168
		c-7.19,0.907-14.356,5.393-20.228,12.964c-10.111,13.029-13.354,30.973-8.077,44.646c1.2,3.106,0.244,6.632-2.362,8.708
		c-2.606,2.079-6.254,2.219-9.015,0.357c-3.904-2.636-8.077-2.975-12.753-1.063c-7.924,3.254-15.631,12.366-20.09,22.99
		c-1.333,3.175-2.388,6.48-3.057,9.812c-4.476,22.321-0.721,41.694,10.861,56.028c10.427,12.904,26.61,20.442,44.402,20.683
		c2.207,0.03,4.292,1.016,5.718,2.701c1.427,1.686,2.049,3.907,1.712,6.09c-1.611,10.405,1.23,21.907,7.437,31.82
		c2.584,4.126,5.737,7.984,9.417,11.363c24.564,22.56,40.461,17.803,64.778-0.518c1.73-1.301,3.934-1.802,6.046-1.394
		c2.123,0.414,3.97,1.709,5.081,3.562c11.671,19.453,29.695,33.245,48.214,36.897c14.018,2.761,27.661-0.438,39.476-9.253
		c3.196-2.383,7.687-1.906,10.304,1.096C571.678,848.251,588.818,856.506,625.352,838.934z M885.028,805.713
		c-4.219,1.288-8.602,2.023-13.032,2.041c-6.269,17.777-23.912,31.697-44.398,34.195c-19.305,2.362-27.798-4.411-38.785-14.03
		c-4.725,3.945-10.415,6.342-16.218,7.662c0.102,17.511-10.851,25.97-22.379,34.851c-2.785,2.144-5.662,4.363-8.634,6.856
		c-13.369,11.21-28.826,19.123-43.773,26.777c-5.289,2.71-10.76,5.51-15.987,8.387c-23.903,13.161-38.305,26.586-45.322,42.248
		c-1.269,2.829-4.047,4.509-6.96,4.509c-1.042,0-2.103-0.214-3.115-0.67c-2.029-0.909-3.443-2.604-4.093-4.56
		c-0.581-1.747-0.558-3.702,0.255-5.516c0.353-0.788,0.754-1.538,1.132-2.307c11.504-23.384,34.329-38.023,50.75-47.066
		c5.426-2.984,11.001-5.84,16.389-8.598c14.849-7.603,28.873-14.787,40.926-24.892c3.213-2.692,6.355-5.114,9.125-7.246
		c10.397-8.012,16.088-12.425,16.429-21.628c-1.243-0.089-2.468-0.203-3.632-0.372c-6.805-0.992-12.598-3.166-16.928-6.23
		c-7.71,8.053-18.792,12.91-29.948,12.913c-1.915,0-3.827-0.143-5.727-0.438c-13.72-2.126-25.288-11.496-31.357-25.011
		c-1.797,0.049-3.595-0.062-5.389-0.288c-4.12,6.318-8.689,12.313-13.673,17.955c-4.417,5-9.14,9.738-14.19,14.151
		c-13.595,11.88-25.907,26.973-37.185,41.51c-31.458,40.548-33.847,101.115-5.676,144.015c4.053,6.174,7.773,9.363,11.049,9.476
		c2.371-0.057,5.322-1.391,8.378-3.041c27.375-14.784,52.871-34.213,77.531-53.003c12.671-9.657,25.56-19.431,38.846-28.745
		c16.585-11.627,33.803-22.52,52.152-31.39c7.419-3.586,15.141-6.921,22.61-10.147c24.659-10.653,47.951-20.713,63.614-39.83
		C886.311,855.677,887.931,827.759,885.028,805.713z M1010.958,653.384c-7.327,4.437-15.485,7.479-23.922,8.642
		c3.848,9.855,3.193,21.836-2.737,31.53c-7.773,12.699-23.108,20.66-40.024,20.779c-0.101,0-0.203,0-0.304,0
		c-2.896,0-6.169-0.282-9.647-0.778c-10.167-1.45-22.108-4.758-31.687-8.431c-0.918,6.14-3.015,11.834-6.188,16.774
		c11.906,7.534,20.07,20.646,21.879,34.602c0.674,5.199,0.494,10.51-0.743,15.7c-0.859,3.602-2.209,7.024-3.927,10.237
		c11.239,6.465,23.266,5.513,38.144-2.867c15.82-8.911,25.49-28.433,22.991-46.421c-0.575-4.143,2.296-7.976,6.433-8.589
		c16.624-2.469,31.569-15.448,36.343-31.563C1022.067,677.817,1019.637,663.694,1010.958,653.384z M1132.708,466.771l-6.775-114.654
		c-0.554-9.408-3.791-19.296-8.711-19.296c-0.048,0-0.095,0-0.146,0.003c-3.309,0.131-7.222,4.878-8.506,6.439
		c-3.764,4.571-7.186,9.432-10.808,14.578c-7.478,10.62-15.21,21.601-26.175,29.868c-2.427,1.829-4.957,3.411-7.528,4.895
		c-12.158,7.012-25.722,10.574-38.937,13.984c-6.257,1.611-12.729,3.282-18.774,5.28c-23.88,7.892-37.786,15.501-38.016,30.711
		c0.197,0.803,0.424,1.597,0.581,2.412c2.152,11.193,0.445,23.054-4.588,33.727c-0.788,1.672-1.673,3.307-2.622,4.913
		c6.536,1.657,12.773,4.48,18.332,8.449c0.441,0.315,0.895,0.608,1.327,0.937c14.73,11.237,22.703,29.812,21.733,48.045
		c-0.148,2.779-0.49,5.551-1.062,8.287c7.267,2.925,13.809,7.404,19.4,12.892c13.592-11.319,24.958-26.935,32.357-44.667
		c9.277-22.223,13.235-48.58,11.761-78.335c-0.208-4.205,3.032-7.785,7.237-7.993c4.202-0.137,7.785,3.032,7.993,7.237
		c1.587,32.045-2.761,60.63-12.919,84.964c-8.498,20.365-21.176,37.724-36.867,50.675c8.123,12.92,11.822,28.615,8.815,43.694
		c-2.313,11.602-8.448,22.013-16.816,30.226c9.42,11.491,13.449,26.401,11.489,42.222c37.792-12.668,67.949-39.017,83.549-73.431
		C1138.652,567.338,1135.495,513.91,1132.708,466.771z"/>
</g>
</svg>
