<?xml version="1.0" encoding="utf-8"?>
<!-- Generator: Adobe Illustrator 23.0.3, SVG Export Plug-In . SVG Version: 6.00 Build 0)  -->
<svg version="1.1" id="Capa_1" xmlns="http://www.w3.org/2000/svg" xmlns:xlink="http://www.w3.org/1999/xlink" x="0px" y="0px"
	 viewBox="0 0 1200 1200" enable-background="new 0 0 1200 1200" xml:space="preserve">
<g>
	<path fill="#3A6854" d="M386.744,875.028c-4.304,8.175-9.772,15.573-16.056,22.292c-4.557-2.274-8.914-4.978-13.091-8.088
		c5.029-3.855,9.986-7.977,14.836-12.426c4.272-3.917,8.045-7.873,11.416-11.866C384.607,868.374,385.558,871.754,386.744,875.028z
		 M341.989,881.49c-30.355,16.989-66.728,28.818-100.53,29.673c-15.262,0.386-31.558-1.933-48.012-5.713
		c-1.82,0.178-3.45,0.293-4.828,0.33c-1.044,0.027-2.1,0.042-3.159,0.042c-27.752,0-60.403-9.538-83.865-25.792
		c13.782,18.761,36.108,31.565,65.633,36.833c27.07,4.835,57.403,3.51,95.462-4.166c15.624-3.153,35.984-7.918,54.888-16.859
		C325.854,891.922,334.008,887.106,341.989,881.49z M516.614,883.045c-0.048,0.05-0.091,0.105-0.139,0.155
		c2.668,2.505,5.373,4.538,6.902,5.454c11.649,6.976,22.576,14.188,34.452,20.008c9.48-2.052,18.876-4.533,28.101-7.433
		C562.55,897.322,538.11,892.186,516.614,883.045z M725.006,900.39c-18.148,3.778-36.786,6.018-55.796,6.771
		c-0.022,0.025-0.035,0.054-0.057,0.079c-5.908,6.565-12.129,12.095-18.589,16.868c25.933-1.252,51.562-5.819,73.935-11.322
		c34.977-8.603,88.226-28.052,86.612-71.447c-0.145-3.891-1.423-19.601-4.554-24.336c-0.49,15.044-4.906,29.845-12.971,42.668
		C776.771,886.415,750.687,895.047,725.006,900.39z M646.799,907.304c-9.251-0.206-18.577-0.757-27.972-1.66
		c-11.378,4.808-23.186,8.966-35.24,12.46c12.056,3.103,24.436,4.94,36.871,5.786C629.73,919.574,638.566,914.215,646.799,907.304z
		 M665.545,886.897c-25.843,1.144-51.857-1.269-76.997-7.395c-15.992-3.896-54.648-18.169-72.934-13.934
		c23.843,11.728,53.56,17.354,81.017,21.709c43.451,6.892,85.577,6.2,125.216-2.051c21.849-4.546,43.887-11.681,57.693-32.435
		C750.443,879.469,703.45,885.22,665.545,886.897z M409.185,957.239c-37.315-9.283-70.265-18.892-95.647-42.556
		c-0.068-0.064-0.115-0.14-0.18-0.206c-16.997,6.698-34.02,10.66-47.607,13.401c-24.226,4.886-45.578,7.31-65.1,7.31
		c-12.473,0-24.186-1.001-35.44-2.967c20.145,5.497,41.092,7.82,61.893,10.07c25.426,2.751,48.011,3.095,70.44-2.466
		c4.041-1.002,8.081-2.264,12.128-3.669c29.359,16.787,61.919,28.556,95.116,34.684c27.192,5.019,55.088,6.365,82.554,2.861
		c11.74-1.498,34.182-2.238,46.607-10.785c-16.778,2.416-33.09,3.65-49.096,3.65C459.124,966.567,434.159,963.454,409.185,957.239z
		 M410.329,928.732c-8.619-2.931-23.728-7.223-36.832-13.328c-10.311-3.994-20.116-9.39-29.125-16.844
		c-5.104,3.29-10.273,6.276-15.499,8.949c22.158,18.191,51.27,26.543,84.051,34.698c39.642,9.858,79.391,11.479,122.604,4.811
		c-14.565-5-30.917-4.081-46.55-4.402C462.256,942.069,435.632,937.337,410.329,928.732z M1137.934,379.449
		c-5.726,22.807-17.085,44.617-33.061,62.057c-24.547,26.789-54.655,48.247-85.934,69.681
		c-32.604,22.344-69.133,43.433-111.671,64.47c-50.637,25.043-102.681,46.395-146.91,63.977
		c-19.169,7.619-37.781,14.767-56.116,20.876c-4.765,5.371-9.873,10.428-15.275,15.133c2.966,0.793,5.923,1.608,8.856,2.462
		c15.028,4.375,30.168,9.703,44.322,16.614c105.366-31.459,207.186-74.789,302.886-128.948c26.091-14.765,52.088-30.617,72.59-52.49
		C1151.582,477.05,1159.64,423.83,1137.934,379.449z M1087.423,339.017c-54.703-14.961-113.529-16.435-172.562-7.945
		l-162.816,54.253c-12.023,4.008-24.367,8.173-36.269,12.988c0.085,0.158,0.176,0.311,0.26,0.47
		c6.086,2.987,11.797,6.681,16.857,11.302c13.52,12.349,21.876,28.798,26.315,47.426c28.594-9.575,57.94-18.589,86.547-27.367
		c67.956-20.853,138.224-42.417,202.945-72.664c3.888-1.812,8.484-0.136,10.296,3.737c1.812,3.876,0.139,8.487-3.737,10.296
		c-65.702,30.707-136.496,52.431-204.96,73.442c-29.236,8.97-59.244,18.192-88.345,27.979c3.106,25.502,0.09,53.842-6.569,81.008
		c76.409-24.468,113.153-40.889,234.393-98.216c3.864-1.828,8.484-0.176,10.311,3.691c1.831,3.867,0.176,8.484-3.691,10.311
		c-127.049,60.075-161.915,75.522-245.933,102.033c-7.78,25.26-18.352,48.593-29.551,66.475
		c11.066-4.077,22.288-8.455,33.717-12.998c43.945-17.467,95.626-38.671,145.767-63.469c41.875-20.708,77.786-41.433,109.783-63.363
		c30.508-20.904,59.832-41.784,83.266-67.363c17.711-19.333,29.084-44.628,32.287-70.134
		C1115.663,350.166,1101.77,342.941,1087.423,339.017z"/>
	<path fill="#BEE595" d="M382.157,839.722c0.184-2.174,0.448-4.334,0.805-6.474c0.912-0.84,1.793-1.686,2.646-2.537
		C384.755,833.741,383.604,836.741,382.157,839.722z M434.486,842.715c-1.319-0.505-2.109-0.59-2.496-0.59
		c-0.197,0-0.287,0.021-0.29,0.024c-0.405,0.563-0.85,3.985,0.454,8.057c2.251,7.026,8.236,13.464,15.249,16.593
		C449.351,857.29,443.569,846.189,434.486,842.715z M452.912,801.539c-0.24-2.892-0.29-5.773-0.248-8.642
		c-1.335,0.061-3.042,0.68-4.902,1.817c-2.039,1.247-3.265,2.893-3.528,3.679c0.36,0.3,1.492,0.959,4.747,1.952L452.912,801.539z
		 M491.501,882.857c0.623,0.629,3.374,0.569,6.72-1.198c2.287-1.204,4.45-2.667,6.438-4.34c-4.253-2.267-8.334-4.74-12.219-7.437
		c-1.014,2.871-1.615,5.887-1.68,8.929C490.69,881.873,491.365,882.718,491.501,882.857z M506.597,915.43
		c-13.978,0.674-27.776,0.387-41.08-0.983c-6.433-0.66-12.935-1.198-19.449-1.737c-10.439-0.861-20.701-1.725-30.64-3.06
		c-13.666-7.127-23.335-19.855-28.684-34.622c-1.186-3.274-2.137-6.654-2.895-10.089c17.028-20.166,22.613-41.373,17.023-64.426
		c0.016-1.071-0.023-2.135-0.119-3.193c0.547-0.536,1.075-1.089,1.646-1.602c6.101-5.492,13.678-9.094,21.429-11.796
		c6.392-2.228,13.113-3.881,19.856-4.489c-1.329,0.572-2.661,1.246-3.989,2.055c-7.455,4.548-13.715,13.628-9.842,22.813
		c3.095,7.352,10.874,9.724,14.62,10.865l11.514,3.498c3.908,14.242,11.114,27.733,21.209,38.335
		c1.646,1.729,3.37,3.377,5.144,4.972c-2.44,5.185-3.851,10.847-3.973,16.571c-0.121,5.601,1.322,9.973,4.296,13.001
		c2.66,2.705,6.266,4.07,10.317,4.07c2.841-0.002,5.904-0.712,9.01-2.061c0.789,3.088,2.674,6.025,3.98,9.016
		C507.74,906.621,508.383,911.415,506.597,915.43z M438.909,831.139c-8.393-3.213-13.34-0.191-15.54,1.894
		c-5.516,5.219-5.071,14.55-3.017,20.956c3.649,11.398,13.473,21.34,25.025,25.322c0.003,0,0.003,0,0.003,0
		c0.72,0.248,2.233,0.772,4.088,0.772c0.941,0,1.97-0.136,3.029-0.505c2.95-1.05,5.044-3.464,6.23-7.174
		C463.944,856.137,454.87,837.239,438.909,831.139z M627.801,820.011c-1.483,0.266-2.923,0.929-3.788,1.51
		c4.971,4.729,13.727,4.908,22.287,4.729c2-0.051,3.228-0.29,3.942-0.511c-0.39-0.418-0.989-0.938-1.821-1.437
		C642.572,820.798,633.704,818.958,627.801,820.011z M585.986,802.151c0.623,0.082,1.519-0.375,2.351-1.05
		c2.142-1.728,3.328-4.711,2.956-7.434c-0.502-3.655-4.257-9.246-6-9.579c-1.831,1.065-3.374,10.442-2.215,14.732
		C583.584,800.683,585.03,802.117,585.986,802.151z M507.328,748.375c0.216-3.439,0.79-6.82,1.678-10.133
		c31.122-16.168,66.674-18.489,101.394-18.489c2.269,0,4.539,0.012,6.799,0.027c36.042,0.257,88.6,3.401,128.738,27.621h0.003
		c14.75,8.898,27.24,20.281,37.122,33.83c6.188,8.484,8.43,17.473,6.659,26.713c-2.124,11.113-10.094,21.742-21.857,29.158
		c-14.305,9.019-31.688,13.246-46.804,16.19c-5.701,1.11-11.388,2.047-17.065,2.9c-50.964,2.009-102.507-10.069-146.96-35.127
		c-14.606-8.233-28.75-18.083-38.532-31.7c-8.031-11.179-10.382-23.027-11.197-36.768
		C509.301,752.298,509.32,748.697,507.328,748.375z M654.783,813.669c-8.517-5.101-20.239-7.458-29.161-5.858
		c-4.29,0.766-12.09,3.843-14.099,10.514c-0.735,2.439-1.204,7.259,3.918,12.145c7.631,7.289,18.568,8.236,26.768,8.233
		c1.579,0,3.056-0.033,4.39-0.067c11.298-0.272,15.019-5.313,16.151-9.491C664.293,823.466,661.24,817.536,654.783,813.669z
		 M671.037,802.341c5.894,5.873,18.217,8.012,29.355,8.012c8.668,0,16.62-1.298,20.248-3.141c1.443-0.729,3.089-1.731,4.348-3.622
		c1.062-1.613,2.118-4.369,1.098-8.342c0-0.003-0.003-0.006-0.003-0.006c-2.714-10.526-18.118-17.534-31.936-19.019
		c-12.366-1.322-21.582,2.079-25.246,9.364C665.788,791.782,666.565,797.887,671.037,802.341z M599.968,745.332
		c-0.012,5.101,2.085,9.513,6.063,12.753c6.308,5.138,16.762,6.569,26.462,6.569c12.051,0,22.928-2.212,23.201-2.266
		c4.251-0.887,7.038-2.92,8.29-6.057c1.84-4.629-0.49-9.649-5.936-12.789c-4.269-2.46-37.718-17.745-51.639-9.727
		C602.267,736.198,599.98,740.288,599.968,745.332z M571.115,802.051c1.921,7.113,7.855,12.248,14.417,12.487
		c0.166,0.006,0.333,0.009,0.499,0.009c3.479,0,7.044-1.34,10.088-3.8c5.482-4.414,8.408-11.779,7.452-18.762
		c-0.756-5.519-4.826-13.597-10.33-17.564c-4.012-2.893-7.694-2.968-10.084-2.517c-2.496,0.469-6.054,1.958-8.829,6.375
		C569.932,785.28,569.638,796.583,571.115,802.051z M713.175,796.804c-2.714-3.122-10.847-7.237-20.35-8.257
		c-1.38-0.148-2.654-0.215-3.818-0.215c-5.204,0-8.284,1.334-9.035,2.826c-0.868,1.728-0.554,2.039-0.191,2.402
		C684.643,798.405,705.587,798.701,713.175,796.804z M613.858,748.479c5.455,4.442,20.989,4.245,32.078,2.92
		c-11.873-5.056-30.499-9.849-33.503-6.738c0.009,0-0.073,0.206-0.073,0.702C612.358,746.724,612.778,747.598,613.858,748.479z
		 M720.083,796.789l-5.979,1.54c0,0.061,0.003,0.106,0.006,0.136L720.083,796.789z M688.966,675.643
		c5.402-4.705,10.51-9.762,15.275-15.133c-33.349,11.112-65.77,18.692-98.845,19.071c-0.052,0.003-0.103,0.01-0.155,0.013
		c-0.142,0.009-0.284,0.012-0.427,0.012c-0.036,0-0.071-0.01-0.107-0.011c-0.633,0.005-1.263,0.041-1.896,0.041
		c-7.346,0-14.717-0.36-22.148-1.12c-29.388-3.001-55.076-12.565-74.289-27.663c-2.36-1.855-4.642-3.831-6.873-5.887
		c0.96,2.521,1.982,5.021,3.148,7.473c8.484,17.839,22.377,32.182,38.951,42.285c-8.46,6.42-16.025,13.782-21.894,21.853
		c31.244-11.395,64.935-12.492,97.6-12.288c37.869,0.272,93.232,3.661,136.635,29.848h-0.003
		c16.526,9.97,30.535,22.744,41.636,37.963c6.953,9.532,10.352,20.012,10.146,30.696c0.121,0.356,0.19,0.737,0.259,1.117
		c5.976-22.86,0.508-49.921-13.781-69.504c-12.772-17.503-30.462-30.123-50.055-39.69c-14.154-6.911-29.294-12.239-44.322-16.614
		C694.889,677.251,691.933,676.436,688.966,675.643z M256.59,830.407c-1.882,0.726-2.033,1.48-2.042,2.466
		c-0.008,0.977,0.262,2.065,0.689,3.172c3.12-0.856,6.144-1.779,9.049-2.773c-0.951-0.911-2.004-1.722-3.136-2.299
		C259.428,830.095,257.894,829.908,256.59,830.407z M225.371,731.083c-76.779-17.206-195.923-24.584-172.333,50.129
		c3.632,11.503,10.935,21.303,20.825,29.502c3.385-8.586,9.298-17.877,18.955-27.692
		C124.733,750.581,174.268,734.201,225.371,731.083z M169.757,842.785c-30.534-2.459-60.446-9.898-82.687-22.908
		c2.472-8.432,8.059-17.116,16.792-25.993c32.771-33.309,86.001-48.159,139.168-48.159c12.359,0,24.689,0.881,36.783,2.441
		c0.473,0.246,0.949,0.492,1.374,0.731c12.605,7.096,25.593,16.718,28.498,30.887c0.362,1.765,0.538,3.531,0.566,5.288
		c-4.108-1.695-8.228-2.865-12.164-3.351c-6.039-0.729-14.572,0.539-18.635,6.614c-1.625,2.427-3.74,7.585,0.363,14.859
		c2.388,4.234,9.382,8.076,17.369,10.727c-1.725,1.806-3.544,3.509-5.437,5.063c-4.256,3.494-9.444,6.633-15.353,9.417
		c-2.538-3.524-5.911-6.582-9.617-8.47c-4.926-2.511-9.988-2.886-14.65-1.089c-6.284,2.427-9.918,7.504-9.973,13.927
		c-0.017,2.032,0.356,4.105,0.999,6.146c-6.044,1.23-12.351,2.235-18.855,2.997c-1.199-1.113-2.666-2.22-4.497-3.285
		c-10.366-6.021-22.175-9.234-34.147-9.295c-10.753,0.033-14.214,6.042-15.174,8.668
		C169.915,839.545,169.695,841.157,169.757,842.785z M171.258,804.783c2.605,4.605,7.519,6.929,14.638,6.929
		c1.071,0,2.194-0.051,3.365-0.157c6.472-0.584,13.349-1.365,20.015-3.903c4.814-1.833,23.512-13.219,23.164-25.158
		c-0.091-3.144-1.573-8.838-10.454-11.637c-4.091-1.289-8.196-0.986-11.31-0.584c-11.882,1.534-23.125,6.278-32.523,13.718
		C170.332,790.19,167.624,798.35,171.258,804.783z M296.571,794.024c-3.38-0.418-6.212,0.536-6.793,1.174
		c0.061,0.03,0.139,0.681,0.832,1.909c1.6,1.964,7.936,4.5,14.53,6.243c1.067-1.875,1.984-3.81,2.747-5.786
		C304.011,795.702,300.12,794.461,296.571,794.024z M185.508,841.726c-2.272,0-3.304,0.517-3.486,0.702
		c0.025,0.083,0.174,0.509,0.52,1.101c5.759,0.204,11.503,0.231,17.188,0.091c-4.601-1.221-9.353-1.871-14.14-1.894
		C185.563,841.726,185.536,841.726,185.508,841.726z M188.15,799.21c5.613-0.502,11.522-1.162,16.714-3.141
		c4.678-1.779,13.785-9.249,15.05-12.714c-0.318-0.182-0.838-0.424-1.652-0.681c-1.776-0.563-4.142-0.354-5.994-0.112
		c-9.655,1.247-18.786,5.098-26.42,11.143c-2.823,2.236-3.84,4.472-3.791,5.026h0.003
		C182.095,798.732,183.233,799.667,188.15,799.21z M538.175,469.571c6.26,5.676,14.472,12.045,22.565,11.443
		c1.582-0.13,2.302-0.517,2.433-0.644c0.163-0.215,0.393-1.313-0.076-2.584c-0.79-2.148-2.817-4.284-4.889-6.272
		c-10.448-10.022-18.725-15.582-24.717-16.637c-1.215,1.816-2.388,3.676-3.552,5.546
		C531.684,462.956,534.373,466.121,538.175,469.571z M610.945,447.638c0.1-0.133,0.378-0.841,0.306-2.227
		c-0.179-3.307-2.015-6.92-5.041-9.912c-4.439-4.384-12.336-8.911-15.349-8.911c-0.012,0-0.021,0-0.03,0
		c-0.315,2.436,3.903,10.227,11.01,17.043c0,0.003,0,0.003,0.003,0.003c1.625,1.558,4.06,3.7,6.451,4.293
		C609.589,448.244,610.739,447.871,610.945,447.638z M492.241,612.496c-1.66-18.209-0.024-37.034,2.955-55.123
		c4.875-29.607,13.722-57.779,26.494-82.416c1.97,2.205,4.059,4.256,6.076,6.088c8.06,7.313,18.829,15.513,31.736,15.513
		c0.829,0,1.667-0.036,2.511-0.106c4.95-0.408,9.119-2.163,12.054-5.071c4.696-4.641,6.094-12.081,3.567-18.947
		c-1.879-5.104-5.452-8.98-8.702-12.097c0,0,0,0,0-0.003c-5.208-4.992-14.817-14.2-25.755-18.63
		c32.395-40.228,79.802-62.982,142.357-52.31c2.467,0.421,4.931,0.924,7.388,1.477c21.376,30.076,32.315,71.948,30.018,119.132
		c-2.015,41.433-12.487,76.286-31.128,103.586c-20.554,30.104-52.263,48.49-87.036,50.506c-7.494,0.075-15.001-0.22-22.541-0.991
		c-26.465-2.702-49.388-11.149-66.289-24.432C507.069,631.694,499.198,622.998,492.241,612.496z M641.597,569.79
		c-4.611-8.726-16.922-23.612-30.326-26.402c-6.197-1.295-12.018,0.064-16.838,3.918c-6.408,5.122-8.88,12.242-6.965,20.042
		c3.652,14.883,23.658,29.458,34.846,31.642c1.731,0.339,3.422,0.505,5.053,0.505c5.422,0,10.154-1.846,13.41-5.331
		C646.251,588.295,646.56,579.185,641.597,569.79z M673.524,476.034c-3.673-8.278-11.298-13.255-20.399-13.313
		c-0.055,0-0.109,0-0.163,0c-9.833,0-18.786,5.676-22.835,14.496c-5.334,11.612-3.703,33.93,3.292,45.055
		c4.278,6.808,10.853,10.859,17.603,10.859c0.042,0,0.088,0,0.13,0c8.708-0.064,16.29-6.463,20.287-17.119
		c2.532-6.75,3.903-14.42,4.315-24.136C675.969,486.739,675.848,481.266,673.524,476.034z M604.567,462.966
		c1.576,0.39,3.171,0.581,4.738,0.581c5.622-0.003,10.932-2.427,14.084-6.681c2.427-3.277,3.579-7.519,3.328-12.272
		c-0.381-7.219-3.8-14.363-9.622-20.115c-0.148-0.151-15.204-14.795-28.447-13.24c-4.587,0.533-8.454,2.965-10.892,6.853
		c-8.911,14.205,9.567,33.082,13.361,36.722C594.022,457.602,598.579,461.481,604.567,462.966z M514.98,538.381
		c-2.965,7.44-6.357,22.756-4.23,32.002c1.703,7.398,7.667,12.832,14.502,13.219c0.287,0.015,0.575,0.024,0.859,0.024
		c6.118,0,11.537-3.734,16.118-11.11c6.469-10.42,9.785-19.885,10.142-28.94c0.2-5.138-0.641-9.401-2.572-13.028
		c-3.25-6.115-8.487-9.431-14.593-9.101C526.254,521.936,518.103,530.538,514.98,538.381z M716.037,398.783
		c10.326,19.377,17.33,41.883,20.594,66.482c7.456-2.629,14.987-5.212,22.578-7.754c-4.44-18.628-12.795-35.077-26.315-47.426
		C727.834,405.464,722.123,401.77,716.037,398.783z M728.524,578.604c-0.762,0.236-1.531,0.348-2.287,0.348
		c-0.053,0-0.104-0.011-0.157-0.013c-5.436,15.905-12.603,30.397-21.473,43.389c-8.161,11.952-17.917,22.233-28.816,30.701
		c14.836-4.12,29.83-9.156,45.125-14.792c11.199-17.882,21.772-41.215,29.551-66.475
		C743.504,573.958,736.244,576.222,728.524,578.604z M529.37,544.111c-2.502,6.284-4.617,18.036-3.522,22.798
		c0.088,0.378,0.251,0.708,0.414,0.95c0.529-0.427,1.492-1.395,2.805-3.513c5.016-8.081,7.576-15.074,7.824-21.376
		c0.088-2.287-0.169-4.021-0.772-5.153c-0.194-0.363-0.36-0.614-0.487-0.787C533.924,537.694,530.635,540.934,529.37,544.111z
		 M761.955,472.934c-7.732,2.601-15.414,5.232-22.983,7.92c-0.264,0.094-0.532,0.146-0.799,0.21
		c0.633,9.648,0.735,19.557,0.242,29.69c-0.881,18.103-3.325,35.053-7.258,50.819c8.557-2.657,16.59-5.184,24.229-7.63
		C762.046,526.776,765.061,498.436,761.955,472.934z M608.113,558.553c-0.469-0.097-0.899-0.148-1.301-0.148
		c-1.017,0-1.852,0.321-2.705,1.002c-1.864,1.492-2,2.602-1.594,4.251c2.012,8.203,16.886,18.98,22.774,20.133
		c2.563,0.493,3.994-0.006,4.163-0.197c0.339-0.36,0.372-2.926-1.552-6.566C624.424,570.449,614.99,559.984,608.113,558.553z
		 M653.028,478.213c-0.018,0-0.039,0-0.057,0c-3.122,0-7.029,1.685-8.768,5.467c-3.104,6.765-1.8,23.779,2.33,30.344
		c0,0,0,0.003,0.003,0.003c1.316,2.097,3.201,3.613,4.49,3.613c0.003,0,0.006,0,0.012,0c1.858-0.012,4.39-3.053,5.897-7.071
		c1.939-5.171,3.001-11.316,3.34-19.343c0.157-3.761,0.064-6.714-0.911-8.908C657.869,478.948,655.092,478.225,653.028,478.213z"/>
	<path d="M795.576,772.1c-11.101-15.219-25.11-27.993-41.636-37.963h0.003c-43.403-26.187-98.766-29.576-136.635-29.848
		c-32.665-0.204-66.357,0.893-97.6,12.288c-15.057,5.492-29.549,13.362-43.077,24.655c-3.56,2.97-6.664,6.284-9.298,9.858
		c-31.519,0.986-59.337,7.468-82.69,19.382c-7.369-6.248-17.199-12.17-29.54-17.733c-36.782-16.578-83.887-24.452-129.731-21.655
		c-51.103,3.118-100.638,19.497-132.553,51.939c-9.657,9.815-15.57,19.106-18.955,27.692c-2.401,6.091-3.522,11.818-3.725,17.111
		c0,0.032-0.009,0.062-0.009,0.094c0,0.017,0.001,0.034,0.001,0.051c-0.071,2.014-0.013,3.961,0.154,5.844
		c2.476,51.593,37.295,88.141,94.221,98.296c0.233,0.042,0.474,0.069,0.707,0.11c11.254,1.966,22.967,2.967,35.44,2.967
		c19.521,0,40.873-2.424,65.1-7.31c13.587-2.74,30.61-6.702,47.607-13.401c0.065,0.066,0.112,0.142,0.18,0.206
		c25.382,23.664,58.331,33.273,95.647,42.556c24.974,6.215,49.938,9.328,75.668,9.328c16.006,0,32.318-1.234,49.096-3.65
		c15.465-2.227,31.324-5.453,47.743-9.738c24.29-6.339,47.884-13.565,68.871-29.071c6.46-4.773,12.681-10.303,18.589-16.868
		c0.022-0.025,0.036-0.054,0.057-0.079c19.01-0.753,37.648-2.993,55.796-6.771c25.682-5.343,51.766-13.975,68.579-40.719
		c8.065-12.823,12.48-27.624,12.971-42.668c0.137-4.202,0.021-8.42-0.472-12.622c-0.019-0.162-0.075-0.309-0.103-0.467
		c-0.069-0.38-0.138-0.761-0.259-1.117C805.927,792.112,802.528,781.631,795.576,772.1z M486.554,753.123
		c7.146-5.964,14.666-10.837,22.451-14.881c31.122-16.168,66.674-18.489,101.394-18.489c2.269,0,4.539,0.012,6.799,0.027
		c36.042,0.257,88.6,3.401,128.738,27.621h0.003c14.75,8.898,27.24,20.281,37.122,33.83c6.188,8.484,8.43,17.473,6.659,26.713
		c-2.124,11.113-10.094,21.742-21.857,29.158c-14.305,9.019-31.688,13.246-46.804,16.19c-5.701,1.11-11.388,2.047-17.065,2.9
		c-68.379,10.279-134.58,2.008-188.04-23.826c-18.723-9.047-41.433-24.517-43.315-46.834
		C471.601,773.183,476.672,761.371,486.554,753.123z M557.829,908.662c-16.999,3.679-34.248,5.95-51.232,6.768
		c-13.978,0.674-27.776,0.387-41.08-0.983c-6.433-0.66-12.935-1.198-19.449-1.737c-10.439-0.861-20.701-1.725-30.64-3.06
		c-16.011-2.15-31.164-5.555-44.74-12.33c-4.557-2.274-8.914-4.978-13.091-8.088c5.029-3.855,9.986-7.977,14.836-12.426
		c4.272-3.917,8.045-7.873,11.416-11.866c17.028-20.166,22.613-41.373,17.023-64.426c0.016-1.071-0.023-2.135-0.119-3.193
		c-0.463-5.104-2.23-10.052-5.298-14.837c18.083-8.579,38.468-13.665,61.881-15.384c-1.261,3.344-2.276,6.804-3.025,10.356
		c-3.417-0.244-7.008,0.421-10.626,1.978c-1.329,0.572-2.661,1.246-3.989,2.055c-7.455,4.548-13.715,13.628-9.842,22.813
		c3.095,7.352,10.874,9.724,14.62,10.865l11.514,3.498c3.908,14.242,11.114,27.733,21.209,38.335
		c1.646,1.729,3.37,3.377,5.144,4.972c-2.44,5.185-3.851,10.847-3.973,16.571c-0.121,5.601,1.322,9.973,4.296,13.001
		c2.66,2.705,6.266,4.07,10.317,4.07c2.841-0.002,5.904-0.712,9.01-2.061c0.669-0.291,1.338-0.574,2.009-0.928
		c4.613-2.43,8.852-5.643,12.474-9.423c0.048-0.05,0.091-0.104,0.139-0.155c21.496,9.14,45.937,14.276,69.316,18.183
		C576.705,904.129,567.309,906.61,557.829,908.662z M447.762,794.714c1.86-1.136,3.566-1.756,4.902-1.817
		c-0.042,2.869,0.007,5.75,0.248,8.642l-3.93-1.194c-3.256-0.992-4.387-1.652-4.747-1.952
		C444.498,797.606,445.723,795.96,447.762,794.714z M504.659,877.319c-1.987,1.673-4.151,3.136-6.438,4.34
		c-3.346,1.767-6.097,1.827-6.72,1.198c-0.136-0.139-0.811-0.983-0.741-4.045c0.065-3.042,0.666-6.058,1.68-8.929
		C496.325,872.579,500.406,875.052,504.659,877.319z M103.861,793.885c32.771-33.309,86.001-48.159,139.168-48.159
		c12.359,0,24.689,0.881,36.783,2.441c24.812,3.201,48.548,9.512,68.924,18.696c18.275,8.236,39.418,21.249,36.362,36.465
		c-8.311,41.364-157.663,85.91-196.897,86.966c-36.916,0.977-87.493-19.074-99.81-47.412c-1.315-3.023-2.149-6.094-2.539-9.205
		c-0.099-1.842-0.22-3.673-0.224-5.564c0.133-2.716,0.629-5.463,1.442-8.236C89.542,811.445,95.129,802.761,103.861,793.885z
		 M262.69,912.696c-38.06,7.676-68.392,9.001-95.462,4.166c-29.524-5.267-51.851-18.071-65.633-36.833
		c23.462,16.254,56.113,25.792,83.865,25.792c1.059,0,2.115-0.015,3.159-0.042c1.378-0.037,3.008-0.152,4.828-0.33
		c34.686-3.383,145.79-31.92,189.515-72.201c0.912-0.84,1.793-1.686,2.646-2.537c-0.852,3.029-2.004,6.03-3.451,9.011
		c-4.195,8.644-10.881,17.125-20.193,25.664c-6.499,5.961-13.175,11.318-19.975,16.103c-7.981,5.616-16.135,10.432-24.411,14.347
		C298.674,904.778,278.314,909.543,262.69,912.696z M577.778,938.19c-14.507,3.787-28.548,6.715-42.248,8.829
		c-43.213,6.667-82.962,5.046-122.604-4.811c-32.781-8.155-61.893-16.508-84.051-34.698c5.226-2.673,10.396-5.659,15.499-8.949
		c9.009,7.454,18.813,12.85,29.125,16.844c22.358,8.661,47.087,10.748,71.297,12.746c6.408,0.53,12.808,1.056,19.137,1.71
		c9.337,0.959,18.892,1.431,28.586,1.431c30.014,0,61.288-4.554,91.068-13.187c12.054-3.494,23.862-7.651,35.24-12.46
		c9.396,0.903,18.721,1.454,27.972,1.66c-8.233,6.911-17.069,12.27-26.342,16.587C606.928,930.187,592.5,934.347,577.778,938.19z
		 M721.847,885.226c-39.639,8.251-81.765,8.944-125.216,2.051c-27.457-4.355-57.174-9.981-81.017-21.709
		c-10.41-5.121-19.714-11.39-27.199-19.249c-6.856-7.201-12.133-16.177-15.587-25.799c10.307,11.357,24.068,19.843,36.385,25.796
		c40.668,19.652,88.189,29.694,138.402,29.691c24.974,0,50.619-2.484,76.407-7.507c16.523-3.219,35.636-7.912,52.102-18.29
		c2.939-1.853,5.696-3.878,8.26-6.044c-1.174,2.481-2.443,4.921-3.912,7.257c-0.299,0.475-0.625,0.906-0.932,1.368
		C765.734,873.544,743.696,880.68,721.847,885.226z M609.305,463.547c5.622-0.003,10.932-2.427,14.084-6.681
		c2.427-3.277,3.579-7.519,3.328-12.272c-0.381-7.219-3.8-14.363-9.622-20.115c-0.148-0.151-15.204-14.795-28.447-13.24
		c-4.587,0.533-8.454,2.965-10.892,6.853c-8.911,14.205,9.567,33.082,13.361,36.722c2.905,2.787,7.461,6.665,13.449,8.151
		C606.143,463.357,607.737,463.547,609.305,463.547z M601.841,443.632c-7.107-6.817-11.325-14.608-11.01-17.043
		c0.009,0,0.018,0,0.03,0c3.014,0,10.91,4.526,15.349,8.911c3.026,2.992,4.862,6.605,5.041,9.912
		c0.073,1.386-0.206,2.094-0.306,2.227c-0.206,0.233-1.355,0.605-2.65,0.29c-2.39-0.593-4.826-2.735-6.451-4.293
		C601.841,443.635,601.841,443.635,601.841,443.632z M653.125,462.721c-0.055,0-0.109,0-0.163,0
		c-9.833,0-18.786,5.676-22.835,14.496c-5.334,11.612-3.703,33.93,3.292,45.055c4.278,6.808,10.853,10.859,17.603,10.859
		c0.042,0,0.088,0,0.13,0c8.708-0.064,16.29-6.463,20.287-17.119c2.532-6.75,3.903-14.42,4.315-24.136
		c0.215-5.138,0.094-10.611-2.23-15.842C669.851,467.756,662.226,462.779,653.125,462.721z M660.275,491.226
		c-0.339,8.027-1.401,14.172-3.34,19.343c-1.507,4.018-4.039,7.059-5.897,7.071c-0.006,0-0.009,0-0.012,0
		c-1.289,0-3.174-1.516-4.49-3.613c-0.003,0-0.003-0.003-0.003-0.003c-4.13-6.566-5.434-23.579-2.33-30.344
		c1.74-3.782,5.646-5.467,8.768-5.467c0.018,0,0.039,0,0.057,0c2.064,0.012,4.841,0.735,6.336,4.106
		C660.338,484.512,660.432,487.465,660.275,491.226z M611.271,543.388c-6.197-1.295-12.018,0.064-16.838,3.918
		c-6.408,5.122-8.88,12.242-6.965,20.042c3.652,14.883,23.658,29.458,34.846,31.642c1.731,0.339,3.422,0.505,5.053,0.505
		c5.422,0,10.154-1.846,13.41-5.331c5.473-5.87,5.782-14.98,0.82-24.375C636.986,561.064,624.675,546.178,611.271,543.388z
		 M629.45,583.593c-0.169,0.191-1.601,0.69-4.163,0.197c-5.888-1.153-20.762-11.93-22.774-20.133
		c-0.405-1.649-0.269-2.759,1.594-4.251c0.853-0.681,1.688-1.002,2.705-1.002c0.402,0,0.832,0.051,1.301,0.148
		c6.877,1.431,16.311,11.897,19.785,18.475C629.822,580.667,629.788,583.233,629.45,583.593z M510.75,570.383
		c1.703,7.398,7.667,12.832,14.502,13.219c0.287,0.015,0.575,0.024,0.859,0.024c6.118,0,11.537-3.734,16.118-11.11
		c6.469-10.42,9.785-19.885,10.142-28.94c0.2-5.138-0.641-9.401-2.572-13.028c-3.25-6.115-8.487-9.431-14.593-9.101
		c-8.953,0.49-17.104,9.092-20.227,16.935C512.015,545.821,508.623,561.137,510.75,570.383z M536.892,542.971
		c-0.248,6.302-2.808,13.295-7.824,21.376c-1.313,2.118-2.275,3.086-2.805,3.513c-0.163-0.242-0.327-0.572-0.414-0.95
		c-1.095-4.762,1.02-16.514,3.522-22.798c1.265-3.177,4.554-6.417,6.263-7.08c0.127,0.172,0.294,0.424,0.487,0.787
		C536.722,538.949,536.98,540.683,536.892,542.971z M523.18,440.661c-8.103,3.044-10.302,8.681-10.892,11.77
		c-1.475,7.718,3.42,15.832,9.403,22.526c1.97,2.205,4.059,4.256,6.076,6.088c8.06,7.313,18.829,15.513,31.736,15.513
		c0.829,0,1.667-0.036,2.511-0.106c4.95-0.408,9.119-2.163,12.054-5.071c4.696-4.641,6.094-12.081,3.567-18.947
		c-1.879-5.104-5.452-8.98-8.702-12.097c0,0,0,0,0-0.003c-5.208-4.992-14.817-14.2-25.755-18.63
		C536.763,439.106,529.892,438.144,523.18,440.661z M533.491,454.877c5.992,1.054,14.268,6.614,24.717,16.637
		c2.073,1.988,4.1,4.124,4.889,6.272c0.469,1.271,0.239,2.369,0.076,2.584c-0.13,0.127-0.85,0.514-2.433,0.644
		c-8.094,0.602-16.305-5.767-22.565-11.443c-3.802-3.45-6.491-6.616-8.235-9.148c-1.451-2.107-2.259-3.783-2.406-4.749
		c0.215-0.13,0.56-0.309,1.092-0.508C530.027,454.638,531.656,454.554,533.491,454.877z M700.392,810.353
		c8.668,0,16.62-1.298,20.248-3.141c1.443-0.729,3.089-1.731,4.348-3.622c1.062-1.613,2.118-4.369,1.098-8.342
		c0-0.003-0.003-0.006-0.003-0.006c-2.714-10.526-18.118-17.534-31.936-19.019c-12.366-1.322-21.582,2.079-25.246,9.364
		c-3.113,6.193-2.336,12.299,2.136,16.753C676.931,808.214,689.254,810.353,700.392,810.353z M720.083,796.789l-5.973,1.676
		c-0.003-0.03-0.006-0.076-0.006-0.136L720.083,796.789z M679.972,791.158c0.75-1.492,3.83-2.826,9.035-2.826
		c1.165,0,2.439,0.067,3.818,0.215c9.504,1.02,17.636,5.135,20.35,8.257c-7.588,1.897-28.532,1.601-33.394-3.243
		C679.418,793.198,679.103,792.886,679.972,791.158z M585.532,814.538c0.166,0.006,0.333,0.009,0.499,0.009
		c3.479,0,7.044-1.34,10.088-3.8c5.482-4.414,8.408-11.779,7.452-18.762c-0.756-5.519-4.826-13.597-10.33-17.564
		c-4.012-2.893-7.694-2.968-10.084-2.517c-2.496,0.469-6.054,1.958-8.829,6.375c-4.396,7.001-4.69,18.305-3.213,23.773
		C573.036,809.164,578.97,814.299,585.532,814.538z M585.293,784.087c1.743,0.333,5.498,5.924,6,9.579
		c0.372,2.723-0.814,5.706-2.956,7.434c-0.832,0.675-1.728,1.132-2.351,1.05c-0.956-0.033-2.402-1.467-2.908-3.331
		C581.92,794.529,583.463,785.152,585.293,784.087z M654.783,813.669c-8.517-5.101-20.239-7.458-29.161-5.858
		c-4.29,0.766-12.09,3.843-14.099,10.514c-0.735,2.439-1.204,7.259,3.918,12.145c7.631,7.289,18.568,8.236,26.768,8.233
		c1.579,0,3.056-0.033,4.39-0.067c11.298-0.272,15.019-5.313,16.151-9.491C664.293,823.466,661.24,817.536,654.783,813.669z
		 M646.299,826.25c-8.56,0.179-17.316,0-22.287-4.729c0.865-0.581,2.306-1.244,3.788-1.51c5.903-1.053,14.771,0.787,20.62,4.29
		c0.832,0.499,1.431,1.02,1.821,1.437C649.528,825.959,648.299,826.198,646.299,826.25z M279.452,788.335
		c-1.625,2.427-3.74,7.585,0.363,14.859c2.388,4.234,9.382,8.076,17.369,10.727c6.816,2.262,14.354,3.66,20.398,3.66
		c2.227,0,4.251-0.188,5.957-0.59c5.667-1.334,9.204-5.11,9.458-10.106v-0.003c0.321-6.366-4.735-10.55-6.396-11.924
		c-5.078-4.203-10.702-7.555-16.35-9.886c-4.108-1.695-8.228-2.865-12.164-3.351C292.047,780.992,283.515,782.26,279.452,788.335z
		 M319.548,805.255c-3.274,0.445-8.929-0.457-14.407-1.905c-6.594-1.743-12.93-4.279-14.53-6.243
		c-0.693-1.228-0.772-1.879-0.832-1.909c0.581-0.638,3.413-1.591,6.793-1.174c3.549,0.437,7.44,1.678,11.316,3.54
		c3.723,1.788,7.433,4.147,10.813,6.944C319.036,804.786,319.315,805.034,319.548,805.255z M185.896,811.712
		c1.071,0,2.194-0.051,3.365-0.157c6.472-0.584,13.349-1.365,20.015-3.903c4.814-1.833,23.512-13.219,23.164-25.158
		c-0.091-3.144-1.573-8.838-10.454-11.637c-4.091-1.289-8.196-0.986-11.31-0.584c-11.882,1.534-23.125,6.278-32.523,13.718
		c-7.821,6.2-10.529,14.36-6.895,20.792C173.863,809.388,178.776,811.712,185.896,811.712z M185.847,793.706
		c7.634-6.045,16.765-9.897,26.42-11.143c1.852-0.242,4.218-0.451,5.994,0.112c0.814,0.257,1.334,0.499,1.652,0.681
		c-1.265,3.464-10.372,10.935-15.05,12.714c-5.192,1.979-11.101,2.638-16.714,3.141c-4.917,0.457-6.054-0.478-6.091-0.478h-0.003
		C182.008,798.178,183.024,795.942,185.847,793.706z M185.654,829.333c-10.753,0.033-14.214,6.042-15.174,8.668
		c-0.565,1.544-0.785,3.155-0.723,4.783c0.171,4.491,2.638,9.112,7.071,12.823c9.67,8.094,23.065,9.652,31.939,9.652
		c1.244,0,2.402-0.03,3.446-0.079c0.003,0,0.003,0,0.003,0c9.664-0.445,16.121-5.098,16.85-12.142
		c0.259-2.52-0.187-6.874-4.767-11.126c-1.199-1.113-2.666-2.22-4.497-3.285C209.435,832.607,197.626,829.393,185.654,829.333z
		 M213.574,849.342c1.8,1.05,2.678,1.942,3.007,2.278c-0.729,0.451-2.475,1.068-4.935,1.18c-6.693,0.312-19.056-0.16-26.862-6.693
		c-1.171-0.98-1.843-1.893-2.243-2.578c-0.346-0.592-0.494-1.019-0.52-1.101c0.182-0.185,1.213-0.702,3.486-0.702
		c0.027,0,0.054,0,0.082,0c4.787,0.023,9.539,0.673,14.14,1.894C204.561,844.902,209.224,846.816,213.574,849.342z M266.777,819.932
		c-4.926-2.511-9.988-2.886-14.65-1.089c-6.284,2.427-9.918,7.504-9.973,13.927c-0.017,2.032,0.356,4.105,0.999,6.146
		c2.432,7.719,8.957,14.934,14.974,17.373c2.699,1.092,5.174,1.634,7.51,1.634c0.608,0,1.204-0.036,1.794-0.109
		c4.157-0.514,7.833-2.847,10.351-6.572c2.92-4.318,3.876-9.858,2.557-14.82c-0.733-2.76-2.133-5.505-3.944-8.02
		C273.856,824.878,270.483,821.82,266.777,819.932z M268.363,839.605c0.39,1.479,0.051,3.367-0.85,4.699
		c-0.339,0.502-0.893,1.123-1.595,1.207c-0.687,0.091-1.758-0.151-3.138-0.708c-2.675-1.085-6.111-5.051-7.543-8.758
		c-0.428-1.107-0.698-2.195-0.689-3.172c0.009-0.986,0.16-1.74,2.042-2.466c1.304-0.499,2.838-0.312,4.56,0.566
		c1.132,0.577,2.185,1.389,3.136,2.299C266.325,835.225,267.851,837.684,268.363,839.605z M438.909,831.139
		c-8.393-3.213-13.34-0.191-15.54,1.894c-5.516,5.219-5.071,14.55-3.017,20.956c3.649,11.398,13.473,21.34,25.025,25.322
		c0.003,0,0.003,0,0.003,0c0.72,0.248,2.233,0.772,4.088,0.772c0.941,0,1.97-0.136,3.029-0.505c2.95-1.05,5.044-3.464,6.23-7.174
		C463.944,856.137,454.87,837.239,438.909,831.139z M447.402,866.8c-7.013-3.129-12.998-9.567-15.249-16.593
		c-1.304-4.073-0.859-7.495-0.454-8.057c0.003-0.003,0.094-0.024,0.29-0.024c0.387,0,1.177,0.085,2.496,0.59
		C443.569,846.189,449.351,857.29,447.402,866.8z M606.031,758.085c6.308,5.138,16.762,6.569,26.462,6.569
		c12.051,0,22.928-2.212,23.201-2.266c4.251-0.887,7.038-2.92,8.29-6.057c1.84-4.629-0.49-9.649-5.936-12.789
		c-4.269-2.46-37.718-17.745-51.639-9.727c-4.142,2.384-6.43,6.475-6.442,11.519C599.956,750.433,602.052,754.845,606.031,758.085z
		 M612.433,744.66c3.004-3.11,21.63,1.682,33.503,6.738c-11.089,1.325-26.623,1.522-32.078-2.92c-1.08-0.88-1.501-1.755-1.498-3.116
		C612.361,744.866,612.442,744.66,612.433,744.66z M580.664,678.517c7.431,0.759,14.801,1.12,22.148,1.12
		c0.633,0,1.263-0.036,1.896-0.041c0.036,0.001,0.07,0.011,0.107,0.011c0.142,0,0.284-0.003,0.427-0.012
		c0.052-0.003,0.103-0.01,0.155-0.013c33.075-0.379,65.495-7.959,98.845-19.071c18.335-6.109,36.948-13.256,56.116-20.876
		c44.229-17.582,96.273-38.934,146.91-63.977c42.538-21.037,79.066-42.126,111.671-64.47c31.279-21.434,61.387-42.892,85.934-69.681
		c15.976-17.439,27.335-39.25,33.061-62.057c4.005-15.954,5.278-32.392,3.344-48.18c-3.083-25.17-16.874-51.4-35.134-66.827
		c-4.675-3.945-10.157-7.361-17.261-10.744c0,0,0,0-0.003,0c-4.236-2.018-8.635-3.83-12.523-5.431
		c-72.939-29.984-158.989-25.373-203.796-19.945c-91.901,11.119-178.658,43.361-262.56,74.537
		c-27.609,10.261-51.865,22.489-72.77,36.414c-0.006,0.005-0.013,0.008-0.019,0.013c-82.146,54.731-111.645,136.117-81.092,231.539
		c10.426,32.561,24.673,56.905,43.383,74.141c2.232,2.056,4.513,4.032,6.873,5.887C525.588,665.951,551.276,675.515,580.664,678.517
		z M615.398,317.381c83.057-30.865,168.94-62.782,259.026-73.684c16.463-1.991,38.671-3.879,63.705-3.879
		c40.816,0,89.142,5.017,132.333,22.774c3.885,1.601,7.897,3.253,11.758,5.089c5.87,2.796,10.296,5.528,13.927,8.596
		c15.44,13.044,27.119,35.367,29.754,56.873c1.114,9.094,1.003,18.439-0.166,27.758c-3.202,25.506-14.576,50.801-32.287,70.134
		c-23.434,25.579-52.758,46.459-83.266,67.363c-31.996,21.93-67.908,42.656-109.783,63.363
		c-50.141,24.798-101.822,46.002-145.767,63.469c-11.429,4.543-22.65,8.921-33.717,12.998c-15.295,5.636-30.29,10.672-45.125,14.792
		c10.899-8.468,20.655-18.748,28.816-30.701c8.87-12.992,16.037-27.484,21.473-43.389c0.053,0.001,0.104,0.013,0.157,0.013
		c0.756,0,1.525-0.112,2.287-0.348c7.72-2.381,14.979-4.645,21.943-6.842c84.017-26.511,118.884-41.957,245.933-102.033
		c3.867-1.827,5.522-6.445,3.691-10.311c-1.827-3.867-6.448-5.519-10.311-3.691c-121.241,57.327-157.984,73.749-234.393,98.216
		c-7.639,2.446-15.673,4.973-24.229,7.63c3.933-15.766,6.377-32.716,7.258-50.819c0.493-10.133,0.391-20.042-0.242-29.69
		c0.267-0.064,0.535-0.115,0.799-0.21c7.569-2.688,15.252-5.319,22.983-7.92c29.101-9.788,59.109-19.01,88.345-27.979
		c68.464-21.01,139.258-42.734,204.96-73.442c3.876-1.809,5.549-6.42,3.737-10.296c-1.812-3.873-6.408-5.549-10.296-3.737
		c-64.722,30.247-134.989,51.811-202.945,72.664c-28.607,8.778-57.953,17.792-86.547,27.367c-7.591,2.542-15.122,5.125-22.578,7.754
		c-3.264-24.599-10.268-47.105-20.594-66.482c-0.084-0.159-0.175-0.312-0.26-0.47c11.903-4.815,24.246-8.98,36.269-12.988
		l162.816-54.253l23.053-7.682c4.06-1.352,6.254-5.74,4.902-9.797c-1.355-4.06-5.746-6.254-9.797-4.902L747.15,370.627
		c-13.013,4.338-26.407,8.858-39.453,14.257c-9.103-13.519-20.072-25.069-32.711-34.209l63.846-22.68
		c4.03-1.431,6.139-5.861,4.705-9.891c-1.428-4.03-5.861-6.142-9.891-4.705l-75.862,26.948
		c-19.781-9.73-42.559-14.241-65.877-13.355C600.03,323.351,607.932,320.156,615.398,317.381z M492.241,612.496
		c-8.427-12.721-15.51-28.1-21.369-46.398c-34.577-107.994,15.46-174.206,74.151-213.422c40.479-16.304,85.457-13.184,117.536,8.217
		c11.698,7.802,21.837,17.98,30.364,29.978c21.376,30.076,32.315,71.948,30.018,119.132c-2.015,41.433-12.487,76.286-31.128,103.586
		c-20.554,30.104-52.263,48.49-87.036,50.506c-7.494,0.075-15.001-0.22-22.541-0.991c-26.465-2.702-49.388-11.149-66.289-24.432
		C507.069,631.694,499.198,622.998,492.241,612.496z"/>
</g>
</svg>
