<?xml version="1.0" encoding="utf-8"?>
<!-- Generator: Adobe Illustrator 23.0.3, SVG Export Plug-In . SVG Version: 6.00 Build 0)  -->
<svg version="1.1" id="Capa_1" xmlns="http://www.w3.org/2000/svg" xmlns:xlink="http://www.w3.org/1999/xlink" x="0px" y="0px"
	 viewBox="0 0 1200 1200" enable-background="new 0 0 1200 1200" xml:space="preserve">
<g>
	<path fill="#3FAD80" d="M337.593,260.182c-0.686-0.237-1.4-0.438-2.098-0.662c0.127,0.001,0.246-0.008,0.373-0.006
		c0.509,0.005,1.016,0.032,1.525,0.041C337.46,259.763,337.526,259.972,337.593,260.182z M446.028,254.359
		c7.808-2.231,15.962-4.222,24.521-5.298c6.293-0.792,12.628-1.031,18.937-0.795c-10.151-41.865-25.569-82.454-45.858-120.456
		c-1.741-3.26-3.738-6.713-7.105-8.235c-3.034-1.372-6.552-0.88-9.819-0.242c-15.892,3.098-30.064,6.144-34.868,16.631
		c19.31,28.239,34.426,58.981,34.675,59.527C435.208,214.66,441.708,234.4,446.028,254.359z M615.043,296.49
		c50.917,9.033,74.204,62.553,81.852,85.142c6.64,19.619,11.171,40.717,13.842,64.249c6.675,0.363,13.481,0.797,20.388,1.296
		c0.269-2.732,0.568-5.46,0.82-8.194c2.912-31.732,4.365-65.172-9.362-93.928c-20.461-42.863-71.703-64.927-119.097-61.811
		c-9.858,0.647-19.615,2.212-29.363,3.874c2.604,3.012,4.892,6.396,6.714,10.302C591.871,295.064,603.232,294.402,615.043,296.49z
		 M531.761,665.102c-13.26-2.323-25.101-7.676-36.015-14.245c-0.52,1.598-1.084,3.11-1.612,4.502l-0.364,0.962
		c-5.267,13.989-8.329,28.996-9.096,44.002C500.325,692.557,515.594,681.146,531.761,665.102z M344.961,285.059
		c-0.892-0.252-1.77-0.589-2.593-1.109c-18.376-11.632-53.229-12.993-74.258-6.966c-14.733,4.225-27.888,12.133-38.049,22.596
		c1.79,0.97,3.554,1.989,5.289,3.06c8.45,5.218,15.991,11.425,23.287,17.432c6.391,5.26,12.433,10.233,18.931,14.492
		c21.101,13.825,36.713,8.753,58.313,1.741c4.711-1.532,9.533-3.076,14.566-4.492C350.544,313.182,349.268,301.543,344.961,285.059z
		 M370.066,327.747c17.708-1.843,34.822,2.381,51.421,6.521c3.364,0.84,6.687,1.664,9.977,2.432
		c2.01-19.996,1.504-40.289-1.421-60.48c-23.705-6.244-47.422-12.492-71.625-15.246c0.439,1.426,0.884,2.854,1.314,4.277
		C367.351,290.477,369.9,304.839,370.066,327.747z M480.61,936.058c-14.461-16.232-23.982-33.956-28.218-52.742
		c-8.767-38.856-4.4-71.187,12.094-93.734c-0.665,0.006-1.33,0.047-1.996,0.047c-30.855,0-61.713-6.219-89.681-18.617
		c-35.77-15.853-59.566-39.964-67.008-67.89c-1.181-4.44-2.473-11.107-0.031-17.732c2.737-7.403,8.929-11.732,13.024-14.592
		l34.052-23.785c2.96-2.063,6.809-2.343,10.033-0.721c3.224,1.622,5.295,4.884,5.398,8.488
		c0.636,22.474,17.689,44.189,41.467,52.807c16.469,5.965,35.846,6.037,55.122,0.505c-0.048-19.912,3.533-40.093,10.533-58.684
		l0.383-1.012c1.165-3.067,2.262-5.965,2.151-8.043c-0.146-2.649-2.346-5.996-4.677-9.535l-1.127-1.725
		c-19.583-30.253-23.655-69.921-10.627-103.521c12.526-32.314,51.745-66.223,87.483-75.67c25.503-10.121,57.59-8.366,84.184-6.914
		c7.936,0.433,15.435,0.847,22.462,0.974c11.105,0.204,22.918,0.51,35.255,0.992c-2.551-20.872-6.689-39.609-12.586-57.027
		c-13.595-40.156-38.522-67.111-66.686-72.107c-25.269-4.493-49.652,7.637-75.458,20.465
		c-23.383,11.628-47.563,23.647-74.334,24.115c-15.734,0.165-30.594-3.47-45.09-7.085c-17.302-4.321-33.65-8.408-49.41-5.387
		c-1.612,0.307-3.186,0.68-4.763,1.047c-0.253,0.064-0.504,0.124-0.765,0.168c-6.884,1.644-13.46,3.756-19.849,5.832
		c-8.525,2.768-17.157,5.571-26.15,6.988c-0.075,0.037-0.136,0.091-0.212,0.127c-13.775,6.51-23.54,22.677-29.85,49.43
		c-17.463,74.058-10.597,151.601-3.957,226.587c0.479,5.402-3.512,10.163-8.91,10.643c-0.295,0.027-0.587,0.038-0.878,0.038
		c-5.03,0-9.312-3.845-9.765-8.948c-6.778-76.539-13.786-155.684,4.401-232.825c4.727-20.028,11.498-35.43,20.457-46.524
		c-6.477-1.856-13.209-4.882-20.273-9.512c-7.392-4.842-14.132-10.39-20.649-15.753c-7.104-5.847-13.809-11.367-21.124-15.887
		c-3.507-2.165-7.171-4.049-10.931-5.71c-8.632,11.242-16.281,24.21-22.929,39.108c-40.721,91.26-30.395,190.03-14.851,286.106
		c16.367,101.168,46.651,200.097,89.994,292.974c11.226,24.053,25.232,50.754,48.232,65.573c4.371,2.816,8.875,4.867,13.465,6.445
		c24.702-5.966,47.718-8.144,79.706-3.641c7.284,1.024,14.657,2.178,22.24,3.362c5.103,0.801,10.302,1.614,15.634,2.411
		c18.06,2.709,37.299,0.648,56.296-5.808c-7.721-10.661-13.711-22.695-17.436-36.177C481.944,954.88,480.697,945.474,480.61,936.058
		z M450.819,340.215c3.577,0.393,7.129,0.611,10.659,0.555c22.347-0.387,43.522-10.915,65.938-22.06
		c11.218-5.577,22.593-11.206,34.271-15.566c-2.807-4.458-7.061-8.042-12.379-12.098c-3.536,0.455-7.076,0.862-10.633,1.129
		c-13.774,1.033-27.327,0.39-40.745-1.282c-1.17-7.593-2.526-15.157-4.038-22.69c-6.939-0.62-13.946-0.539-20.889,0.334
		c-7.986,1.005-15.878,2.997-23.487,5.226C452.7,295.936,453.16,318.237,450.819,340.215z M403.058,726.044
		c-25.368-9.194-44.906-30.161-51.764-54l-21.255,14.845c-2.089,1.461-5.249,3.669-5.854,5.302
		c-0.257,0.702-0.368,2.297,0.587,5.877c7.928,29.774,38.488,47.24,55.993,55c46.691,20.697,102.249,22.458,150.352,5.125
		c-0.682-3.089-1.319-6.238-1.822-9.545c-3.01-19.779,2.4-38.453,7.629-56.515c0.641-2.214,1.269-4.401,1.884-6.578
		c-16,14.885-31.494,25.797-47.591,33.469C461.701,733.094,429.562,735.648,403.058,726.044z M517.104,850.989
		c5.383-6.061,10.47-11.789,14.871-17.988c14.002-19.716,10.023-34.963,4.131-55.723c-13.437,4.709-27.386,8.075-41.559,10.087
		c-0.359,0.343-0.721,0.686-1.141,0.98c-31.817,22.19-27.358,66.322-21.868,90.655c2.263,10.025,6.398,19.758,12.344,29.097
		c3.045-12.398,8.154-24.287,15.283-34.92C504.59,865.082,510.95,857.92,517.104,850.989z M508.783,494.433
		c-13.151,11.48-23.907,25.146-28.979,38.232c-10.792,27.837-7.418,60.701,8.802,85.763l1.047,1.603
		c1.115,1.694,2.315,3.54,3.442,5.528c17.067,12.159,32.315,20.373,50.27,21.124c0.416,0.017,0.81,0.106,1.211,0.173
		c-1.289-19.59-9.902-38.728-18.996-58.873c-12.402-27.477-25.227-55.89-18.56-86.737
		C507.533,498.876,508.136,496.624,508.783,494.433z M1147.474,808.416c9.235-26.605-8.1-55.325-31.742-71.484
		c-0.611,1.224-1.239,2.449-1.808,3.673c-3.474,7.487-5.199,13.369-5.601,19.062c-0.797,11.183,3.688,22.447,8.438,34.374
		c3.22,8.093,6.556,16.459,8.477,25.38c6.728,31.2-4.907,66.149-31.119,93.492c-22.539,23.501-52.332,38.672-81.17,51.569
		c-119.29,53.332-233.772,86.035-340.264,97.195c-8.07,0.847-16.275,1.273-24.51,1.273c-49.306,0-99.912-15.267-132.547-46.942
		c-12.689,5.011-25.572,8.274-38.357,9.755c4.965,3.466,10.043,6.779,15.193,9.947c79.266,48.769,172.607,72.585,265.649,74.713
		c93.043,2.128,185.841-16.849,273.268-48.755c29.123-10.628,58.364-23.088,81.218-44.036s38.515-51.993,33.86-82.643
		c-4.583-30.194-27.876-58.913-18.952-88.121C1131.739,833.018,1142.725,822.097,1147.474,808.416z M632.092,462.587
		c-10.643-0.583-20.73-1.008-30.142-1.008c-40.021,0-67.939,7.71-75.745,43.817c-5.298,24.521,5.663,48.805,17.268,74.514
		c6.027,13.349,12.16,26.963,16.216,41.086c122.15-8.061,243.31,6.407,360.144,43.04c5.172,1.622,8.051,7.131,6.429,12.303
		c-1.315,4.194-5.187,6.882-9.362,6.882c-0.974,0-1.963-0.146-2.941-0.452c-113.647-35.638-231.475-49.845-350.272-42.339
		c0.514,4.353,0.777,8.757,0.688,13.229c-0.303,15.312-4.52,29.866-8.595,43.936c-4.854,16.762-9.439,32.591-7.077,48.103
		c0.756,4.974,1.85,9.768,3.057,14.452c0.052,0.114,0.127,0.21,0.175,0.327c0.38,0.921,0.561,1.865,0.651,2.807
		c0.684,2.526,1.382,5.031,2.082,7.498c2.398,8.446,4.828,17,5.891,25.855c0.03,0.065,0.073,0.118,0.102,0.184
		c5.847,13.675,21.278,23.789,47.175,30.928c71.865,19.806,148.013,15.922,221.657,12.161c5.341-0.284,10.022,3.888,10.302,9.305
		c0.276,5.413-3.891,10.025-9.305,10.302c-30.004,1.53-60.433,3.082-90.912,3.082c-45.899,0-91.935-3.519-136.956-15.926
		c-19.333-5.329-34.116-12.475-44.66-21.585c-2.064,6.204-5.248,12.609-9.983,19.277c-5.018,7.07-10.7,13.468-16.194,19.66
		c-5.981,6.736-11.632,13.096-16.317,20.085c-14.503,21.63-19.02,49.537-12.084,74.645c4.196,15.19,11.589,27.92,21.129,38.538
		c0.48,0.441,0.921,0.929,1.312,1.469c35.952,38.474,100.911,47.995,144.814,43.395c104.43-10.946,216.903-43.108,334.299-95.593
		c31.227-13.963,55.932-27.339,75.013-47.237c21.37-22.29,31.372-51.32,26.101-75.768c-1.576-7.319-4.466-14.572-7.526-22.255
		c-5.356-13.453-10.896-27.362-9.784-43.023c0.751-10.604,4.57-19.878,7.38-25.932c0.754-1.628,1.563-3.222,2.367-4.818
		c-24.667-10.852-52.204-14.67-77.919-23.281c-82.527-27.636-139.91-101.629-213.849-147.535
		c-26.391-16.385-54.939-29.051-84.63-38.152c2.671-17.235,4.975-34.525,6.958-51.853c-26.567-1.903-51.577-2.709-73.775-3.117
		C647.887,463.453,640.216,463.031,632.092,462.587z"/>
	<path d="M648.175,1062.95c8.235,0,16.44-0.426,24.51-1.273c106.492-11.16,220.975-43.863,340.264-97.195
		c28.838-12.897,58.631-28.068,81.17-51.569c26.212-27.343,37.848-62.292,31.119-93.492c-1.921-8.921-5.256-17.287-8.477-25.38
		c-4.75-11.927-9.236-23.191-8.438-34.374c0.403-5.693,2.128-11.574,5.601-19.062c0.569-1.224,1.197-2.449,1.808-3.673
		c1.338-2.677,2.733-5.367,4.223-8.169c5.459-10.267,11.103-20.883,13.276-33.113c5.049-28.305-10.171-54.375-22.06-71.52
		c-52.251-75.362-141.599-131.47-251.584-157.988c-43.847-10.571-87.975-16.038-128.462-18.964
		c-6.908-0.499-13.714-0.934-20.388-1.296c-2.671-23.532-7.202-44.63-13.842-64.249c-7.648-22.589-30.935-76.109-81.852-85.142
		c-11.811-2.088-23.172-1.426-34.205,0.93c-1.822-3.906-4.111-7.289-6.714-10.302c-4.722-5.462-10.393-9.798-15.997-14.015
		l-1.419-1.066c-19.352-14.604-43.084-22.866-67.221-23.771c-6.309-0.236-12.644,0.002-18.937,0.795
		c-8.56,1.076-16.713,3.067-24.521,5.298c-4.32-19.959-10.82-39.699-19.518-58.868c-0.248-0.546-15.365-31.288-34.675-59.527
		c-15.264-22.322-33.147-43.082-48.389-46.118c-6.652-1.323-12.958,0.422-17.766,4.907c-15.105,14.112-28.991,29.697-41.283,46.328
		c-1.38,1.871-3.688,5.003-4.528,9.163c-2.116,10.378,5.743,17.988,9.519,21.642c24.064,23.305,37.618,55.351,48.003,87.668
		c0.067,0.209,0.134,0.418,0.2,0.627c-0.686-0.237-1.4-0.438-2.098-0.662c-23.283-7.46-52.699-7.161-72.793-1.407
		c-20.536,5.89-38.659,17.675-51.74,33.376c-22.122-7.079-46.404-7.402-68.62-0.363c-72.728,23.057-102.731,101.117-89.175,232.02
		c12.59,121.594,41.379,251.653,83.256,376.107c12.939,38.465,29.601,81.933,63.684,110.982
		c20.082,17.118,45.979,26.434,71.003,26.434c9.443,0,18.763-1.327,27.6-4.064c39.584-12.264,64.029-18.92,106.282-12.974
		c7.185,1.012,14.457,2.151,21.941,3.32c5.141,0.805,10.382,1.626,15.761,2.431c11.261,1.683,22.875,1.737,34.578,0.381
		c12.785-1.481,25.668-4.744,38.357-9.755C548.263,1047.683,598.869,1062.95,648.175,1062.95z M854.987,485.225
		c105.296,25.384,190.549,78.689,240.052,150.091c15.746,22.704,21.742,40.784,18.87,56.89c-1.637,9.19-6.322,18.008-11.287,27.343
		c-1.382,2.602-2.772,5.275-4.135,7.979c-0.804,1.596-1.613,3.191-2.367,4.818c-2.81,6.054-6.629,15.328-7.38,25.932
		c-1.112,15.661,4.428,29.57,9.784,43.023c3.059,7.683,5.95,14.937,7.526,22.255c5.271,24.448-4.731,53.478-26.101,75.768
		c-19.081,19.898-43.786,33.274-75.013,47.237c-117.396,52.485-229.869,84.647-334.299,95.593
		c-43.903,4.601-108.862-4.921-144.814-43.395c-0.391-0.54-0.831-1.028-1.312-1.469c-9.541-10.618-16.933-23.348-21.129-38.538
		c-6.935-25.108-2.419-53.014,12.084-74.645c4.685-6.989,10.336-13.349,16.317-20.085c5.494-6.192,11.176-12.59,16.194-19.66
		c4.735-6.668,7.919-13.072,9.983-19.277c10.544,9.109,25.327,16.255,44.66,21.585c45.021,12.406,91.057,15.926,136.956,15.926
		c30.479,0,60.908-1.553,90.912-3.082c5.413-0.276,9.581-4.888,9.305-10.302c-0.28-5.417-4.961-9.588-10.302-9.305
		c-73.644,3.761-149.792,7.645-221.657-12.161c-25.898-7.139-41.329-17.252-47.175-30.928c-0.028-0.066-0.072-0.119-0.102-0.184
		c-1.063-8.856-3.492-17.409-5.891-25.855c-0.701-2.467-1.398-4.971-2.082-7.498c-0.09-0.942-0.272-1.887-0.651-2.807
		c-0.048-0.117-0.123-0.213-0.175-0.327c-1.207-4.684-2.3-9.478-3.057-14.452c-2.362-15.512,2.224-31.342,7.077-48.103
		c4.075-14.07,8.293-28.623,8.595-43.936c0.089-4.471-0.174-8.875-0.688-13.229c118.797-7.506,236.625,6.701,350.272,42.339
		c0.978,0.307,1.967,0.452,2.941,0.452c4.175,0,8.047-2.688,9.362-6.882c1.622-5.172-1.258-10.681-6.429-12.303
		c-116.833-36.632-237.994-51.1-360.144-43.04c-4.056-14.123-10.189-27.737-16.216-41.086
		c-11.605-25.71-22.566-49.993-17.268-74.514c7.806-36.107,35.724-43.817,75.745-43.817c9.412,0,19.499,0.426,30.142,1.008
		c8.124,0.445,15.795,0.866,23.179,1.004c22.199,0.408,47.209,1.214,73.775,3.117C768.828,469.558,812.134,474.89,854.987,485.225z
		 M483.882,908.096c-5.946-9.339-10.081-19.072-12.344-29.097c-5.49-24.333-9.949-68.465,21.868-90.655
		c0.42-0.293,0.781-0.636,1.141-0.98c14.173-2.013,28.122-5.378,41.559-10.087c5.892,20.761,9.871,36.007-4.131,55.723
		c-4.401,6.199-9.489,11.927-14.871,17.988c-6.153,6.932-12.514,14.093-17.938,22.186
		C492.036,883.809,486.927,895.698,483.882,908.096z M525.58,587.984c9.094,20.145,17.707,39.283,18.996,58.873
		c-0.401-0.067-0.794-0.156-1.211-0.173c-17.955-0.751-33.203-8.965-50.27-21.124c-1.127-1.989-2.327-3.835-3.442-5.528
		l-1.047-1.603c-16.221-25.062-19.595-57.925-8.802-85.763c5.072-13.086,15.828-26.752,28.979-38.232
		c-0.647,2.191-1.25,4.442-1.763,6.814C500.354,532.094,513.178,560.507,525.58,587.984z M494.135,655.36
		c0.528-1.393,1.092-2.904,1.612-4.502c10.914,6.569,22.754,11.922,36.015,14.245c-16.168,16.044-31.436,27.455-47.086,35.221
		c0.767-15.006,3.829-30.013,9.096-44.002L494.135,655.36z M491.217,719.024c16.097-7.671,31.592-18.584,47.591-33.469
		c-0.615,2.177-1.243,4.364-1.884,6.578c-5.229,18.061-10.639,36.736-7.629,56.515c0.503,3.308,1.14,6.456,1.822,9.545
		c-48.103,17.333-103.661,15.572-150.352-5.125c-17.505-7.76-48.065-25.227-55.993-55c-0.955-3.581-0.843-5.176-0.587-5.877
		c0.606-1.633,3.765-3.841,5.854-5.302l21.255-14.845c6.859,23.839,26.396,44.806,51.764,54
		C429.562,735.648,461.701,733.094,491.217,719.024z M473.003,268.537c6.943-0.873,13.95-0.954,20.889-0.334
		c18.356,1.64,36.212,8.349,50.991,19.499l1.438,1.085c1.032,0.776,2.021,1.523,2.987,2.259c5.318,4.055,9.573,7.64,12.379,12.098
		c-11.678,4.361-23.053,9.99-34.271,15.566c-22.416,11.145-43.591,21.673-65.938,22.06c-3.53,0.057-7.082-0.162-10.659-0.555
		c2.341-21.978,1.881-44.28-1.303-66.453C457.125,271.534,465.017,269.543,473.003,268.537z M303.041,157.785
		c-0.744-0.721-2.776-2.688-3.623-3.968c0.261-0.387,0.579-0.817,0.771-1.073c11.574-15.665,24.659-30.349,38.864-43.706
		c0.176-0.019,10.44-0.199,37.066,38.921c15.22,22.363,28.899,47.67,32.519,55.644c10.689,23.556,17.841,48.008,21.407,72.617
		c2.926,20.191,3.432,40.484,1.421,60.48c-3.29-0.768-6.613-1.592-9.977-2.432c-16.6-4.141-33.714-8.364-51.421-6.521
		c-0.167-22.908-2.715-37.27-10.334-62.495c-0.43-1.423-0.875-2.851-1.314-4.277C346.948,223.748,332.038,185.87,303.041,157.785z
		 M335.882,336.304c-21.6,7.012-37.211,12.084-58.313-1.741c-6.498-4.259-12.54-9.232-18.931-14.492
		c-7.296-6.008-14.837-12.215-23.287-17.432c-1.734-1.071-3.499-2.09-5.289-3.06c10.161-10.463,23.316-18.37,38.049-22.596
		c21.029-6.027,55.882-4.666,74.258,6.966c0.823,0.521,1.701,0.857,2.593,1.109c4.306,16.485,5.583,28.123,5.486,46.754
		C345.415,333.228,340.593,334.772,335.882,336.304z M445.599,1005.968c-5.333-0.797-10.532-1.61-15.634-2.411
		c-7.583-1.185-14.956-2.339-22.24-3.362c-31.988-4.503-55.004-2.325-79.706,3.641c-11.051,2.669-22.437,6.093-35.117,10.023
		c-25.97,8.043-57.396,0.763-80.058-18.56c-30.264-25.798-45.715-66.333-57.818-102.302
		c-41.417-123.104-69.891-251.695-82.335-371.874c-12.636-122.042,12.084-191.155,75.584-211.286
		c21.474-6.803,45.283-5.284,65.834,3.795c3.76,1.661,7.424,3.544,10.931,5.71c7.315,4.52,14.02,10.041,21.124,15.887
		c6.518,5.364,13.257,10.911,20.649,15.753c7.065,4.63,13.796,7.656,20.273,9.512c-8.96,11.093-15.73,26.495-20.457,46.524
		c-18.188,77.141-11.179,156.286-4.401,232.825c0.452,5.103,4.735,8.948,9.765,8.948c0.291,0,0.583-0.011,0.878-0.038
		c5.398-0.479,9.389-5.241,8.91-10.643c-6.64-74.986-13.507-152.529,3.957-226.587c6.31-26.753,16.075-42.92,29.85-49.43
		c0.076-0.036,0.137-0.09,0.212-0.127c8.992-1.417,17.625-4.221,26.15-6.988c6.389-2.076,12.965-4.188,19.849-5.832
		c0.261-0.044,0.512-0.104,0.765-0.168c1.577-0.367,3.15-0.739,4.763-1.047c15.761-3.021,32.108,1.066,49.41,5.387
		c14.496,3.615,29.356,7.25,45.09,7.085c26.772-0.468,50.952-12.487,74.334-24.115c25.806-12.828,50.189-24.958,75.458-20.465
		c28.163,4.995,53.091,31.951,66.686,72.107c5.896,17.418,10.034,36.155,12.586,57.027c-12.337-0.482-24.15-0.788-35.255-0.992
		c-7.027-0.127-14.526-0.541-22.462-0.974c-26.594-1.452-58.682-3.207-84.184,6.914c-35.739,9.448-74.957,43.356-87.483,75.67
		c-13.027,33.6-8.956,73.268,10.627,103.521l1.127,1.725c2.331,3.539,4.532,6.886,4.677,9.535c0.111,2.078-0.985,4.976-2.151,8.043
		l-0.383,1.012c-7,18.591-10.58,38.772-10.533,58.684c-19.276,5.532-38.653,5.46-55.122-0.505
		c-23.777-8.618-40.83-30.333-41.467-52.807c-0.104-3.604-2.174-6.866-5.398-8.488c-3.224-1.622-7.073-1.342-10.033,0.721
		l-34.052,23.785c-4.095,2.86-10.286,7.188-13.024,14.592c-2.442,6.625-1.15,13.292,0.031,17.732
		c7.441,27.926,31.238,52.037,67.008,67.89c27.968,12.399,58.826,18.617,89.681,18.617c0.666,0,1.33-0.041,1.996-0.047
		c-16.494,22.548-20.861,54.878-12.094,93.734c4.236,18.786,13.757,36.51,28.218,52.742c0.086,9.416,1.334,18.822,3.848,27.926
		c3.726,13.482,9.715,25.515,17.436,36.177C482.898,1006.615,463.658,1008.676,445.599,1005.968z"/>
</g>
</svg>
