<?xml version="1.0" encoding="utf-8"?>
<!-- Generator: Adobe Illustrator 23.0.3, SVG Export Plug-In . SVG Version: 6.00 Build 0)  -->
<svg version="1.1" id="Capa_1" xmlns="http://www.w3.org/2000/svg" xmlns:xlink="http://www.w3.org/1999/xlink" x="0px" y="0px"
	 viewBox="0 0 1200 1200" enable-background="new 0 0 1200 1200" xml:space="preserve">
<g>
	<path fill="#3FAD80" d="M425.567,253.014c-12.266-9.326-25.413-17.487-39.35-24.168c-12.324-5.908-25.324-10.877-35.977-19.44
		c-10.652-8.562-18.789-21.804-16.947-35.346c2.143-15.765,17.027-27.03,32.304-31.468c42.05-12.214,85.532,14.295,116.789,44.961
		c14.787,14.508,28.313,30.268,40.469,47.025C490.334,229.645,456.434,235.709,425.567,253.014z M520.563,374.545
		c0.535-0.04,1.073-0.051,1.608-0.084c17.276-11.337,36.7-19.902,57.425-25.41c-9.495-31.356-23.016-61.497-40.112-89.455
		c-30.584-9.759-63.797-7.666-94.323,6.503C480.12,284.019,506.284,321.199,520.563,374.545z M584.978,368.878
		c-8.561,2.269-16.87,5.1-24.849,8.497c9.992,2.189,19.672,5.51,28.745,9.953C587.578,380.408,586.218,374.146,584.978,368.878z"/>
	<path fill="#FF4B44" d="M403.246,1103.028c6.127,4.777,12.664,9.203,19.46,13.327c-26.472,3.584-51.665,2.266-73.698-13.136
		c-136.876-95.677-173.451-332.407-206.722-482.999c-1.265-5.722-2.482-11.529-3.633-17.401
		c-21.013-107.193-4.693-215.834,103.623-253.054c-3.467,5.686-6.555,11.384-9.175,17.018
		c-36.582,78.68-24.878,169.21-12.888,230.465c10.309,52.675,24.99,104.998,39.19,155.6c10.862,38.708,22.912,77.681,34.561,115.375
		c8.44,27.292,17.164,55.519,25.351,83.365l0.393,1.34c6.213,21.127,12.082,41.083,19.679,60.393
		C355.043,1053.141,374.738,1080.806,403.246,1103.028z M739.881,320.239c-17.508,5.955-32.822,15.737-46.493,27.838
		c-0.024,0.23-0.055,0.459-0.08,0.688c19.63,4.671,39.281,11.642,58.507,20.817c6.259-21.557,15.322-40.045,26.825-55.281
		C765.697,314.059,752.673,315.887,739.881,320.239z M697.189,1111.409c-0.534-0.145-1.042-0.272-1.58-0.418
		c-11.432-3.105-23.257-6.314-35.832-6.855c-17.318-0.747-33.459,3.591-49.079,8.809c-17.373-3.679-34.699-8.596-51.861-12.625
		c-32.738-7.686-68.596,2.113-103.588,9.904c-14.234-6.428-27.67-14.268-39.374-23.393c-25.443-19.832-43.137-44.822-57.377-81.027
		c-7.26-18.464-13.004-37.99-19.085-58.668l-0.393-1.34c-8.227-27.982-16.976-56.278-25.431-83.642
		c-11.613-37.561-23.618-76.406-34.408-114.858c-14.091-50.209-28.66-102.13-38.813-153.995
		c-18.175-92.876-14.565-162.102,11.356-217.862c5.219-11.223,12.39-22.724,21.073-33.764c0.62-0.12,1.2-0.272,1.825-0.388
		c63.268-11.767,135.754,19.505,159.52,79.31c15.652-22.573,39.646-36.8,65.977-42.929c1.16,4.177,2.182,8.239,3.077,12.131
		c-0.637,0.439-1.244,0.936-1.788,1.533c-36.675,40.397-78.708,103.024-78.227,229.819c0.297,77.657,14.428,167.124,26.899,246.057
		l2.976,18.889c0.794,5.062,5.162,8.676,10.132,8.676c0.529,0,1.063-0.04,1.604-0.124c5.604-0.878,9.43-6.133,8.552-11.737
		l-2.98-18.909c-12.355-78.207-26.358-166.847-26.647-242.932c-0.453-119.723,38.716-178.287,72.892-215.933
		c0.805-0.886,1.386-1.889,1.825-2.933c0.844-0.364,1.653-0.827,2.387-1.419c11.759-9.486,25.013-17.324,39.31-23.412
		c9.992,2.189,19.672,5.51,28.745,9.953c18.149,8.887,33.845,22.213,44.47,39.986c12.298-21.233,26.026-42.74,42.27-61.271
		c26.136,4.751,52.601,14.008,78.148,27.503c2.824,1.484,6.177,1.588,9.077,0.253c2.9-1.328,5.018-3.931,5.728-7.04
		c5.333-23.264,15.39-49.592,34.278-69.613c53.487,11.666,101.991,57.044,122,110.262c27.752,73.81,14.785,156.14-2.249,233.133
		c-18.351,82.941-41.02,164.926-67.884,245.513C829.325,982.215,780.812,1083.577,697.189,1111.409z M718.681,1041.332
		c-1.252-69.623,23.546-137.653,47.529-203.446c11.071-30.377,22.519-61.785,31.436-93.273
		c26.253-92.692,31.689-191.897,15.72-286.891c-0.943-5.596-6.286-9.382-11.829-8.428c-5.596,0.943-9.366,6.237-8.428,11.829
		c15.471,92.018,10.205,188.111-15.223,277.89c-8.712,30.766-20.032,61.813-30.975,91.837
		c-24.625,67.557-50.084,137.413-48.769,210.85c0.104,5.608,4.681,10.084,10.265,10.084c0.064,0,0.124,0,0.189,0
		C714.269,1051.681,718.782,1047.004,718.681,1041.332z M520.787,375.347c0.455-0.304,0.927-0.587,1.384-0.887
		c-0.535,0.034-1.073,0.045-1.608,0.084C520.636,374.815,520.715,375.076,520.787,375.347z"/>
	<path d="M1022.151,345.5c-38.416-56.109-101.36-87.308-160.337-79.523c-6.625,0.876-13.014,2.208-19.168,3.963
		c-32.803-30.519-77.077-47.962-121.875-47.962c-0.329,0-0.67,0.004-1.003,0.004c-12.239,0.069-24.526,1.492-36.657,4.149
		c-7.983-28.558-19.726-55.134-34.928-77.567c-42.07-62.09-111.272-99.831-180.73-98.532c-4.477,0.088-9.691,0.349-14.934,2.331
		c-11.56,4.372-24.701,17.124-21.665,53.028c0.445,5.174,1.183,13.839,7.465,20.164c7.397,7.441,19.009,12.026,30.241,16.458
		c8.4,3.317,17.088,6.747,22.611,10.882c21.913,16.398,41.035,36.249,56.831,59.001c9.026,13.003,16.612,25.876,22.902,38.761
		c-15.268-8.177-31.474-13.567-48.05-16.081c-32.521-4.933-66.421,1.131-97.288,18.436c-2.116,1.186-4.215,2.424-6.3,3.716
		c-10.842-2.438-22.306-3.338-34.336-2.602c-59.203,3.559-114.348,49.21-142.654,95.638c-3.467,5.686-6.555,11.384-9.175,17.018
		c-36.582,78.68-24.878,169.21-12.888,230.465c10.309,52.675,24.99,104.998,39.19,155.6c10.862,38.708,22.912,77.681,34.561,115.375
		c8.44,27.292,17.164,55.519,25.351,83.365l0.393,1.34c6.213,21.127,12.082,41.083,19.679,60.393
		c15.656,39.82,35.351,67.485,63.859,89.707c6.127,4.777,12.664,9.203,19.46,13.327c35.15,21.33,78.024,33.645,116.472,33.645
		c10.714,0,21.087-0.955,30.842-2.932c12.375-2.507,24.292-6.687,35.812-10.73c18.231-6.398,35.407-12.443,53.061-11.681
		c10.289,0.441,20.513,3.217,31.336,6.153c6.683,1.813,13.594,3.69,20.682,5.03c54.597,10.333,117.216-13.662,163.422-62.611
		c39.214-41.548,63.177-92.988,88.271-151.047c54.765-126.731,108.115-262.198,106.635-402.479
		C1068.489,448.644,1052.648,390.036,1022.151,345.5z M719.889,242.519c0.297,0,0.59-0.004,0.886-0.004
		c36.319,0,72.236,12.976,100.331,35.904c-16.516,8.35-30.776,20.397-42.467,35.883c-11.503,15.236-20.567,33.724-26.825,55.281
		c-19.226-9.176-38.877-16.146-58.507-20.817c0.025-0.23,0.056-0.459,0.08-0.688c3.598-33.977,1.651-68.967-5.329-102.024
		C698.605,243.781,709.273,242.578,719.889,242.519z M503.479,136.45c-7.726-5.78-17.718-9.723-27.377-13.538
		c-9.266-3.658-18.845-7.441-23.213-11.833c-1.023-1.031-1.404-5.519-1.568-7.429c-0.887-10.449-0.963-28.512,8.464-32.078
		c2.178-0.822,5.182-0.947,8.063-1.003c0.995-0.02,1.982-0.028,2.976-0.028c60.666,0,123.333,34.894,160.361,89.543
		c33.012,48.723,48.69,118.645,41.911,184.781c-12.563-1.971-25.062-3.077-37.363-3.077c-0.385,0-0.774,0.004-1.159,0.004
		c-6.895,0.034-13.726,0.415-20.487,1.073c-0.427-22.836-4.059-45.086-11.025-66.964c-0.127-0.524-0.313-1.031-0.523-1.533
		c-8.173-25.09-20.671-49.707-37.663-74.184C547.819,175.62,527.161,154.176,503.479,136.45z M539.484,259.595
		c15.925,5.081,31.099,13.419,44.831,24.841c6.113,19.978,9.171,40.275,9.289,61.403c-4.726,0.919-9.399,1.986-14.007,3.211
		c-20.725,5.508-40.148,14.073-57.425,25.41c-0.457,0.3-0.929,0.583-1.384,0.887c-0.072-0.271-0.151-0.532-0.225-0.803
		c-14.279-53.345-40.442-90.526-75.402-108.446C475.687,251.93,508.9,249.837,539.484,259.595z M943.751,914.031
		c-24.308,56.245-47.437,105.985-84.356,145.102c-32.479,34.408-87.549,67.32-144.665,56.53c-5.787-1.094-11.538-2.629-17.541-4.255
		c-0.534-0.145-1.042-0.272-1.58-0.418c-11.432-3.105-23.257-6.314-35.832-6.855c-17.318-0.747-33.459,3.591-49.079,8.809
		c-3.915,1.308-7.805,2.656-11.663,4.011c-11.368,3.991-22.102,7.758-33.089,9.984c-32.598,6.619-74.335-0.294-110.698-16.715
		c-14.234-6.428-27.67-14.268-39.374-23.393c-25.443-19.832-43.137-44.822-57.377-81.027c-7.26-18.464-13.004-37.99-19.085-58.668
		l-0.393-1.34c-8.227-27.982-16.976-56.278-25.431-83.642c-11.613-37.561-23.618-76.406-34.408-114.858
		c-14.091-50.209-28.66-102.13-38.813-153.995c-18.175-92.876-14.565-162.102,11.356-217.862
		c5.219-11.223,12.39-22.724,21.073-33.764c27.101-34.454,69.055-64.383,113.371-67.05c2.355-0.14,4.649-0.209,6.919-0.209
		c65.65,0,94.523,58.226,107.031,103.251c1.16,4.177,2.182,8.239,3.077,12.131c-0.637,0.439-1.244,0.936-1.788,1.533
		c-36.675,40.397-78.708,103.024-78.227,229.819c0.297,77.657,14.428,167.124,26.899,246.057l2.976,18.889
		c0.794,5.062,5.162,8.676,10.132,8.676c0.529,0,1.063-0.04,1.604-0.124c5.604-0.878,9.43-6.133,8.552-11.737l-2.98-18.909
		c-12.355-78.207-26.358-166.847-26.647-242.932c-0.453-119.723,38.716-178.287,72.892-215.933c0.805-0.886,1.386-1.889,1.825-2.933
		c0.844-0.364,1.653-0.827,2.387-1.419c11.759-9.486,25.013-17.324,39.31-23.412c7.978-3.397,16.288-6.228,24.849-8.497
		c6.612-1.752,13.369-3.165,20.25-4.217c0.162-0.022,0.323-0.04,0.482-0.069c9.47-1.425,19.148-2.211,28.968-2.261
		c0.353,0,0.702-0.004,1.055-0.004c13.093,0,26.445,1.274,39.883,3.716c26.136,4.751,52.601,14.008,78.148,27.503
		c2.824,1.484,6.177,1.588,9.077,0.253c2.9-1.328,5.018-3.931,5.728-7.04c5.333-23.264,15.39-49.592,34.278-69.613
		c14.623-15.502,34.54-27.223,61.663-30.808c50.57-6.683,107.132,21.749,140.698,70.762c28.155,41.123,42.788,95.9,43.494,162.82
		C1050.137,656.177,997.642,789.33,943.751,914.031z M766.21,837.886c-23.983,65.792-48.781,133.823-47.529,203.446
		c0.1,5.672-4.412,10.349-10.084,10.453c-0.064,0-0.124,0-0.189,0c-5.584,0-10.16-4.477-10.265-10.084
		c-1.316-73.438,24.144-143.293,48.769-210.85c10.943-30.024,22.262-61.071,30.975-91.837
		c25.427-89.779,30.694-185.872,15.223-277.89c-0.939-5.592,2.832-10.886,8.428-11.829c5.544-0.955,10.886,2.832,11.829,8.428
		c15.969,94.994,10.534,194.2-15.72,286.891C788.729,776.101,777.281,807.509,766.21,837.886z"/>
</g>
</svg>
