<svg version="1.1" id="Capa_1" xmlns="http://www.w3.org/2000/svg" xmlns:xlink="http://www.w3.org/1999/xlink" x="0px" y="0px" viewBox="0 0 1200 1200" enable-background="new 0 0 1200 1200" xml:space="preserve">
<g>
	<path fill="#E1AA40" d="M109.091,482.8l-7.385-228.417H79.104C63.03,254.383,50,267.414,50,283.487v197.849L109.091,482.8z" style="fill: rgb(255, 255, 255);"/>
	<path fill="#E1AA40" d="M1149.946,847.183c-4.208-37.531-19.982-78.445-52.919-99.715c-17.189-11.1-37.486-15.584-57.651-17.11&#10;&#9;&#9;c-2.984-0.226-29.043,0.153-45.212,1.245c-7.899,0.533-15.191-3.989-18.238-11.296c-8.762-21.011-23.901-54.925-43.287-89.003&#10;&#9;&#9;l53.822,11.139c4.459,0.901,8.625-2.509,8.622-7.058l-0.04-63.777c-0.003-5.04-5.051-8.515-9.76-6.719l-70.568,36.164&#10;&#9;&#9;c-21.763-34.985-49.704-59.526-68.154-72.286c2.935-14.343-7.984-28.654-23.531-28.548l-29.812,0.203l-131.67,2.13&#10;&#9;&#9;c-1.833,0.021-3.402-1.312-3.678-3.125l-0.659-5.101c11.186-22.336,26.483-42.498,47.221-53.362&#10;&#9;&#9;c3.49-1.289,6.719-2.727,9.725-4.337c32.601,45.272,105.472,42.401,127.102,40.438c3.548-0.322,6.271-3.237,6.422-6.796&#10;&#9;&#9;l2.047-48.25c10.393-0.389,20.604-2.556,12.119-10.432c-1.796-1.667-10.417-8.073-11.988-10.099l0.318-71.656l16.676-4.3&#10;&#9;&#9;c-7.777-30.454-28.193-55.383-57.743-67.954c-2.04-0.868-4.113-1.673-6.217-2.414c-11.219-3.95-23.307-6.056-35.901-5.955&#10;&#9;&#9;c-2.953,0.024-5.876,0.178-8.77,0.444c0.116,0.01,0.229,0.035,0.345,0.045c-52.74,4.677-94.864,48.652-96.142,102.418&#10;&#9;&#9;c-0.078,3.266-0.005,11.587,0.21,20.442c8.865-2.451,17.982-4.759,27.658-6.738l-1.06,24.168&#10;&#9;&#9;c-37.212,9.068-68.182,21.621-94.031,36.238c-1.128,0.65-2.274,1.292-3.382,1.949c-1.132,0.659-2.202,1.343-3.314,2.01&#10;&#9;&#9;c-25.546,15.634-45.633,33.352-61.376,51.605v-1.4c-52.321,58.437-60.011,123.083-61.27,142.9c0,0-8.973-95.359,61.27-172.358&#10;&#9;&#9;V283.487c0-16.074-13.03-29.104-29.104-29.104H123.96l-4.755,228.668l332.464,8.238c-1.52,0.274-3.05,0.526-4.639,0.556&#10;&#9;&#9;l-328.228,10.612l-3.393,163.159c-0.274-1.52-0.526-3.05-0.556-4.64l-5.116-158.226L50,504.682v197.731&#10;&#9;&#9;c0,16.074,13.03,29.104,29.104,29.104h237.805l0.321,1.346L207.03,856.58h67.319c-14.506,52.373,15.218,94.214,68.112,94.214&#10;&#9;&#9;c54.247,0,110.857-39.967,128.079-94.214c0,0,25.21-83.661-58.747-125.062h8.447c18.717,1.806,61.498,11.264,84.936,59.451&#10;&#9;&#9;c19.717,40.535,61.375,65.803,106.451,65.993c0,0,208.285,0.879,208.184,0.967c6.441,0,12.795-0.662,19.06-1.713&#10;&#9;&#9;c0.755,0.163,1.492,0.363,2.325,0.363c0.261-0.292,0.514-0.539,0.774-0.829c22.586-4.421,43.523-15.492,60.09-31.972&#10;&#9;&#9;c14.133-14.059,32.445-30.879,54.606-48.406c0.375-0.088,0.587-0.131,0.587-0.131c-52.168,44.869-53.297,81.338-53.189,81.338&#10;&#9;&#9;c-14.507,52.373,15.218,94.214,68.112,94.214c52.894,0,109.184-41.841,127.93-94.214l41.49,0&#10;&#9;&#9;C1146.63,856.58,1150.507,852.187,1149.946,847.183z M416.1,856.58c-9.132,22.381-33.494,39.922-56.404,39.922&#10;&#9;&#9;c-22.909,0-36.133-17.542-31.055-39.922H416.1z M547.804,781.409c-13.875-40.419,11.802-80.071,34.452-105.256&#10;&#9;&#9;c-34.336-22.576-76.053-24.737-76.053-24.737h101.847l0,0h104.006c4.211,0,7.103,3.762,5.57,7.244l-83.286,189.178&#10;&#9;&#9;C592.09,840.225,561.497,821.296,547.804,781.409z M742.07,849.953l-44.295-29.803l67.657-169.933&#10;&#9;&#9;c3.934-11.219-3.478-23.083-16.278-26.056l-120.739-28.049l-0.233-0.054l0.603-3.099c-0.255,2.022-0.37,3.154-0.37,3.154l0.9-5.88&#10;&#9;&#9;l8.006-41.142c0.544-2.11,1.119-4.252,1.724-6.43c0.136,0.001,0.266,0.03,0.403,0.028l200.685,0.197&#10;&#9;&#9;C983.855,655.099,911.687,834.826,742.07,849.953z M989.411,896.502c-22.91,0-36.133-17.542-31.056-39.922h87.459&#10;&#9;&#9;C1036.681,878.96,1012.32,896.502,989.411,896.502z" style="fill: rgb(255, 255, 255);"/>
</g>
</svg>