<svg version="1.1" id="Layer_1" xmlns="http://www.w3.org/2000/svg" xmlns:xlink="http://www.w3.org/1999/xlink" x="0px" y="0px" viewBox="0 0 1200 1200" enable-background="new 0 0 1200 1200" xml:space="preserve">
<g>
	<path fill="#EB4D80" d="M522.934,326.872c-15.567,0-28.184,12.617-28.184,28.184c0,15.567,12.617,28.184,28.184,28.184h169.612&#10;&#9;&#9;c15.567,0,28.184-12.617,28.184-28.184c0-15.567-12.617-28.184-28.184-28.184H522.934z" style="fill: rgb(255, 255, 255);"/>
	<path fill="#EB4D80" d="M1076.798,326.872h-79.841c-15.567,0-28.184,12.617-28.184,28.184c0,15.567,12.617,28.184,28.184,28.184&#10;&#9;&#9;l79.642-0.022c4.107,1.035,17.032,17.428,17.032,47.99v80.832c0,30.562-12.925,46.955-16.833,47.968l-953.387,0.016&#10;&#9;&#9;c-4.107-1.024-17.043-17.406-17.043-47.985v-80.832c0-30.579,12.936-46.961,16.844-47.968h79.995&#10;&#9;&#9;c15.567,0,28.184-12.617,28.184-28.184c0-15.567-12.617-28.184-28.184-28.184h-79.995C81.476,326.872,50,371.725,50,431.209v80.832&#10;&#9;&#9;c0,59.484,31.476,104.337,73.213,104.337h4.503l49.355,456.21c0.903,39.59,33.392,71.512,73.191,71.512h675.849&#10;&#9;&#9;c39.799,0,72.288-31.922,73.191-71.512l49.355-456.21h28.14c41.737,0,73.202-44.853,73.202-104.337v-80.832&#10;&#9;&#9;C1150,371.725,1118.535,326.872,1076.798,326.872z M943.121,1067.854c-0.11,1.007-0.165,2.02-0.165,3.033&#10;&#9;&#9;c0,9.286-7.552,16.844-16.844,16.844H250.262c-9.292,0-16.844-7.558-16.844-16.844c0-1.013-0.055-2.026-0.165-3.033&#10;&#9;&#9;l-48.841-451.476h807.55L943.121,1067.854z" style="fill: rgb(255, 255, 255);"/>
	<path fill="#EB4D80" d="M270.178,526.661c4.096,2.086,8.466,3.077,12.771,3.077c10.261,0,20.158-5.626,25.135-15.397L520.754,96.89&#10;&#9;&#9;c7.068-13.866,1.552-30.838-12.32-37.906c-13.861-7.068-30.849-1.552-37.906,12.32l-212.67,417.452&#10;&#9;&#9;C250.791,502.622,256.306,519.593,270.178,526.661z" style="fill: rgb(255, 255, 255);"/>
	<path fill="#EB4D80" d="M872.033,513.962c4.888,9.98,14.907,15.777,25.322,15.777c4.162,0,8.4-0.925,12.386-2.884&#10;&#9;&#9;c13.982-6.859,19.751-23.742,12.892-37.718L717.845,71.684c-6.837-13.966-23.747-19.762-37.707-12.892&#10;&#9;&#9;c-13.982,6.859-19.751,23.742-12.892,37.718L872.033,513.962z" style="fill: rgb(255, 255, 255);"/>
	<path fill="#EB4D80" d="M601.244,1001.61c9.336,0,16.911-7.569,16.911-16.911V740.036c0-9.342-7.575-16.911-16.911-16.911&#10;&#9;&#9;c-9.336,0-16.911,7.569-16.911,16.911v244.663C584.334,994.041,591.908,1001.61,601.244,1001.61z" style="fill: rgb(255, 255, 255);"/>
	<path fill="#EB4D80" d="M356.966,986.494c0.925,8.675,8.257,15.116,16.789,15.116c0.606,0,1.211-0.033,1.817-0.094&#10;&#9;&#9;c9.292-0.991,16.008-9.325,15.017-18.611l-26.114-244.663c-0.991-9.292-9.468-15.947-18.606-15.022&#10;&#9;&#9;c-9.292,0.991-16.008,9.325-15.017,18.612L356.966,986.494z" style="fill: rgb(255, 255, 255);"/>
	<path fill="#EB4D80" d="M812.736,1001.516c0.606,0.061,1.211,0.094,1.817,0.094c8.532,0,15.865-6.441,16.789-15.116l26.103-244.663&#10;&#9;&#9;c0.991-9.286-5.736-17.621-15.017-18.612c-9.116-0.936-17.615,5.73-18.606,15.022l-26.103,244.663&#10;&#9;&#9;C796.728,992.191,803.455,1000.525,812.736,1001.516z" style="fill: rgb(255, 255, 255);"/>
</g>
</svg>