<svg version="1.1" id="Capa_1" xmlns="http://www.w3.org/2000/svg" xmlns:xlink="http://www.w3.org/1999/xlink" x="0px" y="0px" viewBox="0 0 1200 1200" enable-background="new 0 0 1200 1200" xml:space="preserve">
<g>
	<path fill="#1E120D" d="M901.002,360.769c0,0,66.715-202.617-22.239-202.617c-88.953,0-71.656,153.417-71.656,153.417&#10;&#9;&#9;s-29.651-94.114-79.071-57.05c-17.877,13.408-24.406,44.941-25.498,79.708c-56.055,5.709-107.044,28.688-147.679,63.442&#10;&#9;&#9;c-5.408-5.908-11.891-11.788-19.759-17.471c-22.971-16.587-48.508-22.923-73.89-18.354c-20.698,3.737-38.087,14.062-51.396,24.933&#10;&#9;&#9;c-43.917-53.527-113.397-94.558-190.795-82.021C147.685,316.288,96.943,371.428,92.752,441.97&#10;&#9;&#9;c-3.662,61.588,20.042,104.49,49.364,132.345c-0.86,0.692-1.706,1.401-2.548,2.137c-16.437,14.414-25.607,34.539-26.518,58.198&#10;&#9;&#9;c-1.149,29.907,10.811,51.154,27.748,65.958c-6.675,5.929-10.964,14.48-10.964,24.11c0,17.876,14.491,32.367,32.367,32.367h16.61&#10;&#9;&#9;C181.665,974.218,359.083,1150,576.88,1150s395.215-175.782,398.068-392.914h16.611c17.875,0,32.367-14.491,32.367-32.367&#10;&#9;&#9;c0-17.875-14.492-32.367-32.367-32.367h-6.743c9.878-28.027,15.31-58.132,15.31-89.495c0-33.56-6.203-65.685-17.442-95.355&#10;&#9;&#9;c61.499-15.099,114.704-38.122,123.407-73.141C1128.33,344.871,901.002,360.769,901.002,360.769z M947.194,602.857&#10;&#9;&#9;c0,31.901-6.973,62.185-19.385,89.495h-11.762c3.609-16.187,5.575-32.987,5.575-50.246c0-127.246-103.525-230.772-230.772-230.772&#10;&#9;&#9;c-33.204,0-64.763,7.104-93.318,19.783c36.702-28.397,82.679-45.355,132.569-45.355&#10;&#9;&#9;C849.807,385.763,947.194,483.15,947.194,602.857z M154.833,445.658c2.463-41.418,31.551-72.626,74.115-79.509&#10;&#9;&#9;c63.408-10.224,122.404,37.034,150.324,85.322c5.351,9.254,15.124,15.035,25.806,15.436c10.492,0.322,20.866-4.785,26.894-13.612&#10;&#9;&#9;c5.01-7.329,22.041-27.057,40.462-30.278c5.46-0.952,14.08-1.19,26.249,7.601c11.431,8.254,17.883,16.931,19.169,25.779&#10;&#9;&#9;c1.714,11.788-5.473,24.188-8.153,27.678c-10.592,13.039-8.807,32.019,3.9,43.009c12.71,10.99,31.958,9.774,43.335-2.578&#10;&#9;&#9;c7.712-8.386,35.562-33.508,69.952-4.843c11.584,9.655,17.63,19.341,18.485,29.613c1.238,14.828-8.628,29.877-12.331,34.2&#10;&#9;&#9;c-8.633,9.638-10.619,23.633-4.653,35.112c5.97,11.475,18.151,18.059,31.036,16.56c4.79-0.428,39.916-1.965,62.795,39.083&#10;&#9;&#9;l-197.204-2.443L388.495,549.884c-12.81-11.44-32.469-10.329-43.908,2.485c-11.439,12.81-10.325,32.468,2.485,43.908l83.25,74.337&#10;&#9;&#9;l-209.607-2.597c-5.173-0.423-46.53-4.64-45.516-30.979c0.318-8.306,2.997-11.713,5.293-13.758&#10;&#9;&#9;c8.826-7.844,28.242-9.082,36.068-8.43c16.057,1.393,30.494-9.598,33.357-25.488c2.86-15.886-7.032-31.353-22.614-35.562&#10;&#9;&#9;C219.355,551.656,149.8,530.385,154.833,445.658z M861.345,692.352h-6.249c0.503-5.734,0.808-11.523,0.808-17.385&#10;&#9;&#9;c0-103.999-80.649-189.459-182.681-197.272c-2.064-1.945-4.209-3.884-6.519-5.809c-2.122-1.768-4.254-3.228-6.382-4.807&#10;&#9;&#9;c9.939-1.73,20.099-2.813,30.526-2.813c98.062,0,177.839,79.779,177.839,177.839C868.689,659.564,866.056,676.4,861.345,692.352z&#10;&#9;&#9; M795.188,692.352c-17.047-67.596-55.859-99.573-91.542-112.362c2.988-10.409,4.711-22.196,3.781-34.919&#10;&#9;&#9;c-0.151-2.056-0.399-4.237-0.728-6.49c56.019,20.074,96.272,73.547,96.272,136.385c0,5.894-0.458,11.673-1.146,17.385H795.188z&#10;&#9;&#9; M641.207,1090.966c-92.298-56.162-154.047-157.523-154.047-273.465c0-20.668,2.067-40.84,5.813-60.416h429.042&#10;&#9;&#9;C919.499,923.118,799.259,1061.049,641.207,1090.966z" style="fill: rgb(255, 255, 255);"/>
	<path fill="#FFFFFF" d="M730.1,385.763c-49.89,0-95.867,16.958-132.569,45.355c28.556-12.68,60.114-19.783,93.318-19.783&#10;&#9;&#9;c127.247,0,230.772,103.526,230.772,230.772c0,17.259-1.965,34.059-5.575,50.246h11.762c12.411-27.31,19.385-57.595,19.385-89.495&#10;&#9;&#9;C947.194,483.15,849.807,385.763,730.1,385.763z" style="fill: rgb(63, 173, 128);"/>
	<path fill="#FFFFFF" d="M690.849,464.267c-10.427,0-20.587,1.083-30.526,2.813c2.128,1.579,4.261,3.039,6.382,4.807&#10;&#9;&#9;c2.309,1.925,4.455,3.864,6.519,5.809c102.032,7.813,182.681,93.273,182.681,197.272c0,5.862-0.306,11.652-0.808,17.385h6.249&#10;&#9;&#9;c4.711-15.952,7.344-32.788,7.344-50.246C868.689,544.046,788.911,464.267,690.849,464.267z" style="fill: rgb(63, 173, 128);"/>
	<path fill="#FFFFFF" d="M706.7,538.582c0.329,2.253,0.577,4.434,0.728,6.49c0.93,12.722-0.793,24.51-3.781,34.919&#10;&#9;&#9;c35.683,12.788,74.495,44.765,91.542,112.362h6.638c0.688-5.712,1.146-11.492,1.146-17.385&#10;&#9;&#9;C802.972,612.13,762.719,558.657,706.7,538.582z" style="fill: rgb(63, 173, 128);"/>
	<path fill="#FFFFFF" d="M922.016,757.086H492.973c-3.746,19.576-5.813,39.748-5.813,60.416&#10;&#9;&#9;c0,115.942,61.749,217.303,154.047,273.465C799.259,1061.049,919.499,923.118,922.016,757.086z M541.228,837.041&#10;&#9;&#9;c0-5.177,4.197-9.373,9.374-9.373s9.373,4.197,9.373,9.373c0,5.177-4.196,9.374-9.373,9.374S541.228,842.218,541.228,837.041z&#10;&#9;&#9; M564.542,931.257c-10.265,0-18.586-8.322-18.586-18.587c0-10.265,8.321-18.586,18.586-18.586c10.266,0,18.587,8.322,18.587,18.586&#10;&#9;&#9;C583.129,922.935,574.808,931.257,564.542,931.257z M609.087,881.025c-9.558,0-17.306-7.748-17.306-17.305&#10;&#9;&#9;s7.748-17.305,17.306-17.305c9.557,0,17.304,7.748,17.304,17.305S618.644,881.025,609.087,881.025z" style="fill: rgb(63, 173, 128);"/>
	<path fill="#1E120D" d="M559.976,837.041c0-5.177-4.196-9.373-9.373-9.373s-9.374,4.197-9.374,9.373&#10;&#9;&#9;c0,5.177,4.197,9.374,9.374,9.374S559.976,842.218,559.976,837.041z" style="fill: rgb(255, 255, 255);"/>
	<path fill="#1E120D" d="M564.542,894.084c-10.265,0-18.586,8.322-18.586,18.586c0,10.265,8.321,18.587,18.586,18.587&#10;&#9;&#9;c10.266,0,18.587-8.322,18.587-18.587C583.129,902.405,574.808,894.084,564.542,894.084z" style="fill: rgb(255, 255, 255);"/>
	<path fill="#1E120D" d="M626.391,863.72c0-9.557-7.748-17.305-17.304-17.305c-9.558,0-17.306,7.748-17.306,17.305&#10;&#9;&#9;s7.748,17.305,17.306,17.305C618.644,881.025,626.391,873.277,626.391,863.72z" style="fill: rgb(255, 255, 255);"/>
	<path fill="#FFFFFF" d="M227.305,553.802c15.582,4.208,25.474,19.676,22.614,35.562c-2.863,15.89-17.3,26.881-33.357,25.488&#10;&#9;&#9;c-7.826-0.652-27.243,0.586-36.068,8.43c-2.296,2.045-4.975,5.451-5.293,13.758c-1.014,26.339,40.343,30.556,45.516,30.979&#10;&#9;&#9;l209.607,2.597l-83.25-74.337c-12.81-11.44-13.924-31.098-2.485-43.908c11.439-12.814,31.098-13.925,43.908-2.485l136.521,121.904&#10;&#9;&#9;l197.204,2.443c-22.879-41.048-58.005-39.51-62.795-39.083c-12.884,1.498-25.065-5.085-31.036-16.56&#10;&#9;&#9;c-5.966-11.479-3.98-25.474,4.653-35.112c3.702-4.323,13.568-19.371,12.331-34.2c-0.855-10.272-6.901-19.958-18.485-29.613&#10;&#9;&#9;c-34.39-28.665-62.24-3.543-69.952,4.843c-11.378,12.352-30.626,13.568-43.335,2.578c-12.707-10.99-14.492-29.97-3.9-43.009&#10;&#9;&#9;c2.68-3.49,9.867-15.891,8.153-27.678c-1.286-8.848-7.738-17.525-19.169-25.779c-12.17-8.791-20.789-8.553-26.249-7.601&#10;&#9;&#9;c-18.421,3.221-35.452,22.95-40.462,30.278c-6.028,8.826-16.402,13.934-26.894,13.612c-10.682-0.401-20.455-6.183-25.806-15.436&#10;&#9;&#9;c-27.92-48.288-86.916-95.545-150.324-85.322c-42.564,6.883-71.652,38.091-74.115,79.509&#10;&#9;&#9;C149.8,530.385,219.355,551.656,227.305,553.802z" style="fill: rgb(63, 173, 128);"/>
	<path fill="#1E120D" d="M341.978,257.109c8.611,4.243,39.792,5.976,57.521,6.63c4.95,0.182,7.78-5.561,4.62-9.375&#10;&#9;&#9;c-11.321-13.661-31.692-37.33-40.303-41.573c-12.238-6.03-27.047-0.998-33.077,11.24&#10;&#9;&#9;C324.708,236.269,329.74,251.079,341.978,257.109z" style="fill: rgb(255, 255, 255);"/>
	<path fill="#1E120D" d="M590.546,233.213c14.128-10.732,38.638-30.082,43.242-38.505c6.544-11.972,2.143-26.981-9.829-33.525&#10;&#9;&#9;c-11.972-6.543-26.981-2.142-33.525,9.829c-4.604,8.423-7.655,39.502-9.06,57.188C580.982,233.138,586.6,236.209,590.546,233.213z" style="fill: rgb(255, 255, 255);"/>
	<path fill="#1E120D" d="M497.733,261.655c9.526,9.59,25.871,3.416,26.68-10.077c2.893-48.326,6.402-133.467-2.853-157.969&#10;&#9;&#9;c-13.153-34.827-52.051-52.397-86.877-39.242c-34.827,13.154-52.397,52.051-39.242,86.878&#10;&#9;&#9;C404.695,165.747,463.614,227.309,497.733,261.655z" style="fill: rgb(255, 255, 255);"/>
</g>
</svg>