<svg version="1.1" id="Capa_1" xmlns="http://www.w3.org/2000/svg" xmlns:xlink="http://www.w3.org/1999/xlink" x="0px" y="0px" viewBox="0 0 1200 1200" enable-background="new 0 0 1200 1200" xml:space="preserve">
<g>
	<path fill="#484A5B" d="M600.014,443.264c-45.165,0-83.318-22.66-83.318-49.479c0-6.56-5.319-11.875-11.875-11.875&#10;&#9;&#9;s-11.875,5.315-11.875,11.875c0,38.311,40.947,68.853,95.193,72.778v31.394c0,6.56,5.319,11.874,11.875,11.874&#10;&#9;&#9;c6.555,0,11.875-5.315,11.875-11.874v-31.317c55.804-3.432,95.162-30.986,95.162-68.054c0-36.901-35.185-63.051-104.57-77.728&#10;&#9;&#9;c-54.52-11.566-85.785-31.447-85.785-54.543c0-25.459,35.82-44.658,83.318-44.658c45.149,0,83.287,22.652,83.287,49.467&#10;&#9;&#9;c0,6.56,5.317,11.875,11.875,11.875c6.555,0,11.875-5.315,11.875-11.875c0-38.303-40.932-68.841-95.162-72.767v-29.832&#10;&#9;&#9;c0-6.56-5.319-11.875-11.875-11.875c-6.555,0-11.875,5.315-11.875,11.875v29.755c-55.826,3.429-95.193,30.976-95.193,68.036&#10;&#9;&#9;c0,35.844,37.147,63.464,104.61,77.775c39.118,8.276,85.745,24.445,85.745,54.497C683.301,424.056,647.498,443.264,600.014,443.264&#10;&#9;&#9;z" style="fill: rgb(255, 255, 255);"/>
	<path fill="#484A5B" d="M599.998,616.483c156.185,0,283.244-127.064,283.244-283.243S756.182,50,599.998,50&#10;&#9;&#9;c-156.183,0-283.242,127.06-283.242,283.239S443.815,616.483,599.998,616.483z M599.998,73.749&#10;&#9;&#9;c143.087,0,259.495,116.407,259.495,259.49c0,143.087-116.408,259.493-259.495,259.493S340.505,476.326,340.505,333.239&#10;&#9;&#9;C340.505,190.156,456.911,73.749,599.998,73.749z" style="fill: rgb(255, 255, 255);"/>
	<path fill="#484A5B" d="M1053.449,684.744c-28.791-27.464-95.231-66.87-140.582-19.366c-25.088,26.328-74.823,78.428-84.106,88.154&#10;&#9;&#9;L785.5,774.105c-11.973-19.422-36.833-38.873-76.485-37.918l-88.429,2.052c-11.463-8.047-48.991-32.323-84.677-31.338&#10;&#9;&#9;l-60.017,1.427c-22.489,0.53-43.008,1.013-54.226,1.299c-27.196,0.599-69.162,14.766-105.367,52.73l-77.738,81.474l-16.335-15.585&#10;&#9;&#9;c-4.73-4.515-12.244-4.345-16.783,0.394l-59.289,62.123c-4.531,4.743-4.354,12.261,0.393,16.788&#10;&#9;&#9;c4.74,4.53,12.262,4.356,16.784-0.391l51.094-53.533l233.525,222.828l-51.031,53.472c-4.531,4.743-4.354,12.262,0.393,16.788&#10;&#9;&#9;c2.297,2.195,5.25,3.286,8.196,3.286c3.13,0,6.254-1.234,8.589-3.676l59.236-62.065c2.172-2.277,3.355-5.327,3.286-8.477&#10;&#9;&#9;c-0.079-3.146-1.401-6.139-3.681-8.314l-38.392-36.633l22.42-23.484l295.49,4.554c3.238-0.004,6.493-1.279,8.775-3.676&#10;&#9;&#9;l292.613-306.691c2.18-2.281,3.354-5.33,3.284-8.477C1057.052,689.908,1055.729,686.92,1053.449,684.744z M747.63,988.076&#10;&#9;&#9;l-295.481-4.553c-3.355,0.092-6.493,1.283-8.773,3.676l-26.011,27.241L255.744,860.224l77.741-81.478&#10;&#9;&#9;c40.256-42.212,80.959-45.203,88.745-45.378c11.249-0.286,31.751-0.769,54.217-1.295l60.024-1.43&#10;&#9;&#9;c33.677-0.437,72.797,28.713,73.19,29.007c2.143,1.631,4.763,2.535,7.477,2.424l92.441-2.146&#10;&#9;&#9;c47.53-1.299,60.587,34.643,60.712,39.772c0.185,7.673-7.932,49.588-48.173,50.554l-150.933,3.525l0.556,23.742l150.933-3.525&#10;&#9;&#9;c55.766-1.341,71.822-55.334,71.367-74.86c-0.02-0.845-0.152-1.772-0.25-2.674l47.148-22.424c1.306-0.623,2.489-1.476,3.487-2.524&#10;&#9;&#9;c0,0,57.898-60.635,85.63-89.747c31.843-33.363,78.438-3.05,97.96,12.436L747.63,988.076z" style="fill: rgb(255, 255, 255);"/>
</g>
</svg>